<?xml version="1.0" encoding="iso-8859-1"?>
<!-- Generator: Adobe Illustrator 29.5.1, SVG Export Plug-In . SVG Version: 9.03 Build 0)  -->
<svg version="1.1" id="Ebene_1" xmlns="http://www.w3.org/2000/svg" xmlns:xlink="http://www.w3.org/1999/xlink" x="0px" y="0px"
	 viewBox="0 0 141.732 141.732" style="enable-background:new 0 0 141.732 141.732;" xml:space="preserve">
<g>
	<path d="M99.783,90.404c3.77-2.94,6.311,4.706,8.873,6.155c2.237-1.808,16.239-22.87,16.59-13.745
		c-5.229,5.995-10.575,12.908-15.439,19.03c-0.516,0.525-0.781,0.855-1.567,0.629c-0.885-0.255-2.878-3.392-3.621-4.3
		C103.197,95.907,98.695,93.236,99.783,90.404z"/>
	<path d="M45.681,119.353c1.167-0.594,3.104-4.126,4.51-2.911c1.3,1.123-1.914,3.555-2.726,4.415
		c-0.921,0.976-2.095,3.227-3.537,2.788c-1.061-0.323-3.96-5.077-5.226-5.882c-0.575-1.057,0.223-1.718,1.319-1.319
		c0.815,0.297,2.366,2.698,3.209,3.286l-0.102-11.118l0.419-0.541c0.722,0.076,1.012,0.277,1.65-0.204
		C46.087,111.335,45.154,115.602,45.681,119.353z"/>
	<path d="M96.717,108.806c2.542-2.682,1.106,9.315,1.318,10.735c0.609-0.604,1.364-1.11,1.984-1.686
		c0.743-0.69,0.839-1.691,2.205-1.472c0.801,0.128,0.628,0.903,0.305,1.534c-1.069,1.349-3.683,4.175-4.956,5.212
		c-1.338,1.405-5.841-5.505-6.701-5.948c0.786-3.049,3.855,1.635,5.088,2.36l-0.563-11.394
		C95.574,107.189,97.136,107.627,96.717,108.806z"/>
	<path d="M70.161,107.96c0.761-0.846,1.161,0.098,1.236,0.099c0.194,0,0.473-0.246,0.719-0.183l0.275,0.302l-0.157,11.552
		c1.151-0.579,2.847-4.039,4.33-3.298c1.435,1.59-2.243,3.846-3.104,5.184c-2.592,3.734-4.099,0.755-5.941-1.787
		c-0.848-0.986-3.923-3.485-1.039-3.491c0.772,0.134,2.773,2.919,3.681,3.392V107.96z"/>
	<path d="M120.509,137.122c-0.325,0.312-0.521,0.942-1.194,0.875c-0.358-0.375,1.837-2.883,2.07-1.785
		C121.466,136.597,120.726,136.913,120.509,137.122z"/>
	<path d="M35.792,128.958c-0.354-0.134-12.703,12.358-12.715,10.45c2.819-3.61,7.595-7.14,10.926-10.449l-4.141,0.096
		c-3.395,2.61-6.375,7.533-10.36,8.751l-0.018,0.543l-0.735,0.023c2.568-3.622,7.535-6.15,9.979-9.603l-4.327,0.097
		c-2.93,2.346-5.367,6.449-9.042,7.434l7.343-7.439c-2.685-0.971-4.52,3.426-6.874,4.233c-0.912-1.084,2.884-3.417,3.297-4.513
		c-0.727-0.117-3.268-0.042-3.689-0.363c-0.243-0.185-0.445-2.15,0.206-2.086c36.513-0.076,73.184,0.491,109.587-0.361
		c1.019,0.142,1.524,0.661,1.203,1.735c-0.255,0.851-1.889,0.409-2.599,0.507l0.002,0.757l-1.957-0.014
		c-0.18,0.052-0.104,0.456-0.308,0.661c-0.28,0.119-2.048,1.813-2.255,1.33l2.071-1.976c-6.039-0.861-9.766,6.483-14.688,9.037
		l0.659-1.505l0.47,0.562c-0.309-0.51,0.176-0.787,0.204-1.305l0.359,0.178c1.664-2.834,5.302-4.537,7.724-6.781h-3.861
		c-3.757,3.61-8.022,7.611-12.428,10.548c2.295-4.303,7.339-7.068,10.827-10.548h-2.919c-3.859,2.787-8.093,7.75-12.146,9.511
		c2.708-3.413,6.862-6.738,10.545-9.137c-0.141-0.525-0.364-0.186-0.47-0.186h-8.475c-2.457,2.716-5.58,5.249-8.498,7.163
		l-0.543-0.384l7.441-6.779h-7.533c-2.877,3.771-6.912,6.992-10.642,9.98l-0.475-0.471l9.987-9.51h-6.874
		c-2.098,1.955-4.605,4.039-7.065,5.929c-0.687,0.57-1.545,1.913-2.538,1.793l-0.094-0.566l0.75,0.189l0.192-0.945l0.563,0.189
		l-0.296-0.564l6.7-5.838h-3.296c-3.709,3.371-7.735,7.78-12.048,10.366c-1.877,0.005,10.87-10.165,10.635-10.366H70.82
		c-1.155,0.545-10.253,10.354-11.204,8.76c2.969-3.171,6.312-5.938,9.603-8.76h-3.484c-1.655,0.999-11.906,11.823-12.306,9.354
		l10.894-9.542h-4.049c-3.314,3.589-6.985,6.879-10.921,9.795l-0.095-0.568l0.372,0.192c2.087-3.74,6.143-6.291,9.043-9.419h-2.919
		l-9.038,7.723c1.29-2.952,4.713-5.601,7.248-7.628c-4.258-0.415-8.983-0.205-13.426-0.245c-10.668,9.984-17.015,12.403-1.828-0.039
		H35.792z M25.151,127.451h7.91c-2.263-0.411-4.999-0.153-7.252-0.188C25.577,127.273,25.109,127.12,25.151,127.451z"/>
	<path d="M80.066,139.051c3.255-3.362,6.949-6.349,10.563-9.314l0.621,0.445l-11.297,10.17l-0.748-0.187
		C79.398,139.615,79.738,139.407,80.066,139.051z"/>
	<path d="M81.459,131.03c-0.765,2.377-6.957,7.086-8.974,8.632C68.606,141.646,80.453,130.598,81.459,131.03z"/>
	<path d="M31.368,139.319c2.003-1.357,7.678-8.52,9.975-8.009c0.02,0.442-5.516,5.29-6.309,5.929
		C34.2,137.65,32.024,140.426,31.368,139.319z"/>
	<path d="M38.9,139.691c-0.133-0.845,7.717-8.326,8.286-7.058c0.119,0.575-2.301,2.554-2.822,3.013
		C42.914,136.701,40.589,139.64,38.9,139.691z"/>
	<path d="M92.572,137.054l0.375-0.751l-0.561,0.377c1.423-1.919,4.615-4.37,6.717-5.993c3.224-1.088-2.251,3.189-2.955,3.636
		C95.132,135.069,93.887,137.272,92.572,137.054z"/>
	<path d="M122.274,131.917l-6.349,5.236l-0.564-0.193l0.562-0.092l-0.188-0.563c2.276-1.479,4.316-4.029,6.688-5.65L122.274,131.917
		z"/>
	<path d="M46.014,130.432c-8.248,7.746-7.335,3.892-0.239-0.715L46.014,130.432z"/>
	<path d="M112.613,136.758c-0.446,0.26-1.999,2.355-2.154,1.331c0.762-1.269,4.725-4.326,5.688-5.713
		c0.233-0.091,0.834,0.4,1.281-0.218C116.529,133.942,114.102,135.336,112.613,136.758z"/>
	<path d="M120.93,50.724c-5.933,5.555-11.425,11.964-17.201,17.445c0.339,0.683-0.442-0.014-0.045,0.712l-0.565-0.188l-0.007,0.931
		c-0.726-0.069-1.166,1.078-1.314,1.709c-0.879-0.581-0.806,0.657-0.968,0.905c-1.271,0.322-1.052,0.525-1.514,1.695
		c-0.296,0.18-1.008-0.159-1.371,0.612c-0.121,0.256,0.137,0.579-0.196,0.739l-0.28-0.563c0.245,1.564-1.984,1.936-2.737,3.196
		c-1.138,0.832-2.678,3.739-4.044,3.396c0.667,0.715-2.55,3.117-3.079,3.888c-4.281,4.3-9.452,8.803-13.53,12.646l-0.528,0.042
		c0.428,0.851-1.302,0.456-0.755,1.502l-0.749-0.19l-0.004,0.57l-0.365-0.184c0.087,0.758-1.042,1.134-1.476,1.373
		c-0.309,0.278-0.985,1.206-1.174,1.632c-1.031-0.858,0.991-1.139,0.848-2.26c0.447-0.709-0.025,0.962,1.037-0.377l-0.376-0.188
		c0.194-0.491,0.473-0.553,0.941-0.376l0.003-0.939l0.279,0.375c0.414-0.719,1.098-0.214,1.018-1.039
		c1.032-0.623,1.586-1.608,1.769-2.691c0.08-0.204,1.24-0.615,0.888-1.353l0.561,0.376c-0.102-0.855,0.945-1.107,1.387-1.53
		c0.687-1.186,2.613-1.981,2.948-3.18l0.334,0.138c1.881-2.22,4.808-3.909,6.254-6.351c-1.582,1.516-4.034,2.779-5.073,4.62
		c-0.678-0.356-1.399,1.305-1.696,1.509c-0.581,0.168-0.787-0.095-0.804,0.609c-0.147,0.146-0.706-0.18-0.525,0.606l-0.372-0.374
		c-2.593,2.444-5.757,5.313-8.444,7.372c-0.05,0.039,0.193,0.833-0.787,0.731l0.155,0.337c-0.616,0.425-2.053,1.09-1.849,1.915
		l-0.562-0.189c0.086,1.02-1.043,0.947-1.273,1.18c-0.168,0.17-0.924,1.582-1.005,1.642c-0.699-0.407-0.909,0.571-1.57,0.747
		l0.078,0.575c-0.39-0.116-0.577-0.931-0.392-1.228c1.098-1.11,6.081-4.816,6.606-6.115c-0.516-0.021-2.815,0.838-2.452,1.684
		l-0.939,0.197l-0.088-0.373c-0.393,0.464-1.051,0.208-0.853,0.94c-0.714-0.445-1.54,0.621-2.256,0.756l0,0.373
		c0.026,0.037,0.911-0.478,0.377,0.096l-3.578,1.318l-0.661,1.222l0.003-0.939c-0.375,0.214-0.945,0.502-1.283,0.746
		c-0.166,0.12-0.141,0.706-0.51,0.282l-0.183-0.651c0.126,0.709-2.984,1.035-3.171,1.093c-0.095-0.059-0.124-0.474-0.325-0.525
		l-1.304,0.571c-0.097-0.005-0.085-0.382-0.214-0.399c-0.171-0.022-3.266,0.269-3.431,0.319c-0.57,0.174-0.311,0.662-0.973,0.254
		l-0.032,0.523l-1.288,0.044c0.713-1.561-1.491-0.508-2.339-0.765l-0.489,0.95l-0.467-0.374l-0.096,0.567l-0.563-0.561l0.565-0.379
		c-0.434,0.052-1.034-0.032-1.259,0.427c-0.145,0.296,0.102,0.733-0.245,0.7l-0.377-0.748l0.75-0.567l-0.925,0.165l-0.018-0.354
		l-0.372,0.374l-0.118-0.388l-0.927,0.048l-0.273,0.341c0.015-0.906-0.97,0.007-0.568,0.565c-0.733-0.235-0.428-0.893-1.226-0.187
		l-0.171-0.364l-0.672,0.176l0.566,0.844l-0.567,0.094l0.099-0.376c-0.154-0.26-0.675,0.364-0.477-0.751l-0.373,0.563l-0.003-0.754
		c-0.111-0.11-1.2,0.224-1.419,0.158c-0.174-0.053,0.041-0.424-0.273-0.343l-0.286,0.563l-0.28-0.375l-0.378,0.562l0.094-0.753
		c-0.272,1.072-1.952,1.867-2.215,0.44c-1.352-0.946-5.894,0.515-7.012-0.817l-0.217,0.388l-1.289-0.393l-0.471,0.382l0.187-0.563
		c-0.486,0.667-2.58,0.122-3.434,0.139c-4.229-0.565-3.407-4.088-3.353-7.399C15.84,65.5,15.993,35.01,15.916,4.562
		c0.142-1.611,0.743-2.212,2.354-2.354C36.989,2.176,55.709,1.99,74.391,1.643c15.713,1.048,33.428-1.955,48.227,0.956
		c3.367-0.624,1.473,5.959,1.977,7.817C122.291,21.962,128.812,42.241,120.93,50.724z M32.12,3.157v0.188h32.392V3.157H32.12z
		 M121.758,4.291L18.371,4.852c1.046,31.627-0.066,63.965-0.726,95.642c9.337,0.603,18.917-0.315,28.324-0.341
		c8.599-0.414,12.169-0.039,16.691-7.98c7.604-12.846,6.963-28.833,6.42-43.109c4.568-5.937,44.84,2.399,52.303-4.384L121.758,4.291
		z M122.704,13.703v9.793C123.195,20.676,122.917,16.79,122.704,13.703z M92.007,48.167c-0.302,0.011-4.265,0.053-4.33-0.188
		l-0.001,0.376c1.107-0.144,3.245,0.25,4.33-0.002L92.007,48.167z M115.924,48.356l-23.73-0.094
		C98.201,49.006,110.208,50.304,115.924,48.356z M76.187,49.486c-2.232-0.436-2.87,0.661-4.242,2.075l0.101,2.066
		C73.174,53.149,75.708,50.615,76.187,49.486z M72.609,60.031v2.825c3.984-3.865,7.178-9.275,11.866-12.145
		c-3.38,4.922-8.09,8.758-11.866,13.369v3.296l16.763-17.042l-11.675-0.563l-5.362,5.354l0.275,4.153
		C84.585,45.791,83.435,50.71,72.609,60.031z M107.449,50.991h-2.919C93.146,62.853,81.607,74.723,69.689,86.019
		c-0.265-1.816,5.43-6.069,6.786-7.715c9.041-9.072,17.814-18.587,27.206-27.221c0.079-0.426-0.186-0.26-0.466-0.28
		c-2.371,0.159-5.344-0.36-7.629-0.094c-7.308,8.439-15.844,16.067-23.54,24.199c2.058-4.857,18.981-19.974,22.596-24.201
		c-1.015-0.147-3.021-0.575-3.95-0.184C84.98,56.593,78.464,62.552,72.599,68.59c-0.687,9.839-4.03,20.242-9.122,28.355
		c20.448-12.232,37.724-30.08,54.518-46.893c-2.201,0.682-4.476,0.668-6.735,0.986C97.751,64.435,84.779,78.866,71.01,92.048
		c1.315-3.964,8.205-8.632,11.208-12.144c9.096-9.902,18.262-19.787,28.243-28.819l-2.175,0.085
		c-13.474,13.734-26.792,27.897-40.76,41.065C78.196,78.103,95.231,64.309,107.449,50.991z M16.675,100.143
		c-0.191-0.461,0.435-5.274,0.096-5.274C16.728,96.498,16.076,98.777,16.675,100.143z M35.322,101.263l0,0.388l18.454,0.007l0-0.388
		L35.322,101.263z"/>
	<path d="M89.748,85.269c0.278,0.851,1.724-1.355,1.226-0.188c-2.137,1.59-4.398,4.606-6.408,6.399l-0.095-1.129
		c-0.628,0.108,0.009,1.041-0.188,1.32L83.91,91.48l0.094,0.579c-0.71,0.724-2.118,1.712-2.902,2.077
		c-0.035,0.058,0.438,0.912-0.392,1.112l-0.003-0.941l-0.562,0.375c0.162-1.005,1.54-1.79,2.166-2.635l0.654,0.751l0.377-1.128
		l-0.748,0.093l8.281-7.815C91.078,84.19,90.186,85.347,89.748,85.269z"/>
	<path d="M92.195,86.585c-0.28-0.383,4.145-4.032,4.33-4.331c0.123,0.822-0.799,1.067-1.203,1.525
		c-0.254,0.288-0.995,1.442-1.252,1.57c-0.571,0.283-0.9-0.232-0.748,0.858l-0.372-0.374C92.88,86.833,92.559,86.435,92.195,86.585
		c0.49,0.441-0.361,0.6-0.69,1.016c-0.243,0.281,0.229,0.501-0.804,0.504l-0.015,0.739l-0.373-0.375l-0.566,0.563
		c0.054-0.69,0.873-1.002,1.316-1.413C91.559,87.161,91.31,86.949,92.195,86.585z"/>
	<path d="M102.176,76.982c-0.141,0.371-0.391,0.555-0.752,0.375c0.443,0.712-0.744,1.114-1.253,1.573
		c-0.139,0.125-0.906,1.377-1.195,1.062C98.966,79.085,101.288,76.97,102.176,76.982z"/>
	<polygon points="79.764,96.377 79.389,96.376 79.579,95.625 79.949,95.906 	"/>
	<path d="M79.107,96.001c0.122,0.063,0.122,0.126,0,0.188V96.001z"/>
	<path d="M99.54,51.935L72.422,79.239C80.579,69.78,89.799,59.75,99.54,51.935z"/>
	<path d="M87.753,77.253c-0.306,0.291-1.581,2.128-1.583,1.05c0.538-0.945,25.47-25.524,26.926-26.934l0.056,0.696
		C105.153,60.918,96.39,69.03,87.753,77.253z"/>
</g>
</svg>
