<?xml version="1.0" encoding="iso-8859-1"?>
<!-- Generator: Adobe Illustrator 29.5.1, SVG Export Plug-In . SVG Version: 9.03 Build 0)  -->
<svg version="1.1" id="Ebene_1" xmlns="http://www.w3.org/2000/svg" xmlns:xlink="http://www.w3.org/1999/xlink" x="0px" y="0px"
	 viewBox="0 0 141.732 141.732" style="enable-background:new 0 0 141.732 141.732;" xml:space="preserve">
<g>
	<path d="M55.281,90.683c16.023-14.128,16.697,8.113-3.261,15.323c-4.242,0.78-7.093-13.396-6.581-16.747
		C46.653,78.031,54.746,81.082,55.281,90.683z M49.683,84.925c-3.816,3.946-0.878,14.386,2.189,17.98
		c4.372-1.506,11.359-6.238,12.478-10.997c0.459-7.866-8.288,1.871-10.136,2.887C51.413,94.755,53.573,85.64,49.683,84.925z"/>
	<path d="M51.112,114.002c3.481,0.658-0.539,5.593-1.704,2.287C49.144,115.27,50.092,114.127,51.112,114.002z"/>
	<path d="M35.086,89.888c1.515-0.285,2.413,2.152,0.928,2.921C33.855,93.927,32.902,90.3,35.086,89.888z"/>
	<path d="M37.108,106.789c-0.003,0.04-0.356,0.284-0.083,0.412c7.48-5.191,9.922,6.322,2.066,7.601
		c6.473,6.32-2.02,14.143-6.196,5.119c-4.221,9.325-12.663,2.076-5.864-4.624c-9.569-0.404-5.254-10.929,2.476-6.609
		C27.706,100.159,37.688,96.564,37.108,106.789z M34.631,110.504c-0.728-1.037,0.451-2.637,0.474-3.902
		c0.778-4.52-3.273-5.774-3.757-0.784c-0.124,1.615,0.626,3.193,0.31,4.686C32.768,110.068,33.519,110.225,34.631,110.504z
		 M35.954,113.644c8.894-0.77,7.647-9.928-0.654-2.965L35.954,113.644z M30.666,111.168c-8.464-4.739-10.24,3.075-0.825,2.312
		C29.749,112.568,30.068,111.825,30.666,111.168z M32.774,111.855c-1.595,0.262-1.44,2.952,0.272,2.779
		C34.563,114.481,34.365,111.593,32.774,111.855z M32.979,116.454c5.387,10.525,9.897,3.22,2.726-1.649
		C34.906,115.562,34.225,116.597,32.979,116.454z M30.498,115.132l-0.324,0.002c-7.754,6.431-1.281,11.26,2.144,1.321
		C31.656,116.25,30.674,115.843,30.498,115.132z"/>
	<path d="M102.742,9.357c19.927,14.924,21.227,41.987,3.77,59.57c1.814,2.955,3.411,7.004,5.175,9.865
		c0.284,0.253,0.982,0.167,1.49,0.492c6.736,7.54,12.311,16.548,18.448,24.665c1.773,2.416,7.934,9.638,8.209,12.107
		c0.038,4.43-6.482,8.212-10.287,8.645c-2.456-0.259-5.305-4.206-6.777-6.116c-7.221-9.371-14.165-19.528-21.005-29.211
		c-1.399-1.02-0.928-2.601-0.491-3.982l-6.019-7.595l1.278,59.089c-2.226,2.963-5.162-0.211-7.145-1.765
		c-0.921,0.712-0.912,3.361-1.808,3.717c-1.997,0.794-3.172-2.34-4.633-3.067c-0.649,0-2.394,3.255-2.774,3.921
		c-2.015,1.914-3.736-3.608-5.235-4.575c-0.47,0.816-2.367,3.838-3.041,4.145c-2.052,0.933-2.368-3.464-3.297-3.306
		c-2.666,4.266-4.536,4.547-6.2-0.577l-0.426-0.101c-1.242,0.901-3.994,5.463-5.991,4.338l-3.924-5.158
		c-4.812,3.334-5.901,10.603-11.056,2.629c-1.564-4.136-4.609,2.292-6.287,3.152c-3.029,1.979-3.718-2.573-5.134-4.294
		c-0.596-0.131-3.568,3.991-4.854,4.382c-4.489,1.55-2.424-10.481-6.2-4.052c-2.591,3.49-7.413,5.233-6.93-0.911
		c0.882-29.887,1.403-59.886,1.487-89.788C-1.77,45.607,2.457,46.544,1.954,32.904c2.562-2.169,7.265-0.751,10.541-1.191
		c0.642-2.928,0.512-5.957,1.02-8.89c8.795-0.136,17.989-0.624,26.893-1.1C53.325,0.683,82.896-6.12,102.742,9.357z M76.884,4.341
		c-47.821,1.51-52.794,68.248-3.514,72.796C125.829,80.542,130.097,4.975,76.884,4.341z M38.76,25.107L16.617,26.05
		c0.319,36.314-1.54,74.482-1.311,109.98c6.831-7.629,5.572-8.107,9.334,1.247c1.552-0.443,3.07-3.971,4.491-4.437
		c2.202-0.863,3.546,4.381,4.459,4.732c1.855-0.494,4.184-5.523,6.407-5.274c2.559,0.75,3.133,4.468,5.368,5.625
		c1.569-1.9,5.106-7.559,7.764-6.85l3.63,5.288c0.545,0.68,1.791-0.92,2.239-1.408c3.408-4.875,4.114-3.524,6.603,0.956
		c0.636,0.096,2.334-4.375,4.015-3.398c0.741,0.25,1.483,4.325,2.583,2.594c1.139-1.494,2.115-4.992,4.309-2.634
		c4.699,8.406,2.054,1.415,6.472-0.461c0.924,0.446,2.462,3.315,3.345,3.537c0.987,0.248,0.831-3.57,2.084-3.74
		c1.537-0.136,3.605,3.261,4.861,3.144L92.114,77.8C59.866,90.289,21.478,58.919,38.76,25.107z M13.158,42.45l0.009-7.692
		l-8.104,0.257L4.897,42.45L13.158,42.45z M100.636,73.601c-0.483,0.333-2.035,0.933-1.894,1.441l5.678,7.545
		c1.174-1.215,2.738-1.755,4.141-2.636c-1.239-3.108-2.987-5.959-4.802-8.757C102.756,71.977,101.673,72.885,100.636,73.601z
		 M117.622,90.779c-1.682-2.123-4.444-7.425-6.628-8.324c-0.334-0.048-4.412,2.819-4.916,3.277
		c-4.617,1.604,17.885,26.97,20.135,31.227c0.74,1.242,2.47,3.808,3.807,4.201c1.346-0.105,6.676-3.139,6.506-4.753
		C130.295,107.799,123.922,99.309,117.622,90.779z"/>
	<path d="M49.897,23.523c28.966-37.591,85.989,8.877,47.25,41.554C70.02,86.685,27.235,53.668,49.897,23.523z M52.863,25.165
		C27.172,61.388,91.311,87.883,104.961,49.1C115.998,17.943,70.428,0.199,52.863,25.165z"/>
	<path d="M73.249,18.294c-9.544,2.056-16.608,8.86-21.1,17.31c-1.83,0.876-1.583-0.441-1.248-1.744
		c1.838-7.15,10.615-14.806,17.557-16.801C70.008,16.613,73.753,15.561,73.249,18.294z"/>
</g>
</svg>
