<?xml version="1.0" encoding="iso-8859-1"?>
<!-- Generator: Adobe Illustrator 29.5.1, SVG Export Plug-In . SVG Version: 9.03 Build 0)  -->
<svg version="1.1" id="Ebene_1" xmlns="http://www.w3.org/2000/svg" xmlns:xlink="http://www.w3.org/1999/xlink" x="0px" y="0px"
	 viewBox="0 0 40 40" enable-background="new 0 0 40 40" xml:space="preserve">
<g>
	<path d="M25.164,13.819c0,2.85-2.31,5.16-5.16,5.16s-5.16-2.31-5.16-5.16s2.31-5.16,5.16-5.16S25.164,10.969,25.164,13.819z
		 M22.065,9.816c-1.57-0.8-3.527-0.702-4.889,0.477c-0.085,0.074-0.16,0.206-0.246,0.267c-0.031,0.022-0.064-0.004-0.066-0.002
		c-0.009,0.015,0.004,0.07-0.015,0.107c-0.026,0.051-0.368,0.364-0.444,0.477c-0.064,0.095-0.113,0.339-0.241,0.33l0.027,0.08
		l-0.053-0.027l-0.041,0.161c0.076-0.074,0.175-0.151,0.247-0.225c0.062-0.063,0.139-0.186,0.217-0.257
		c0.113-0.102,0.281-0.2,0.388-0.315c0.035-0.007,0.146-0.009,0.128,0.057c-0.009,0.033-0.08,0.032-0.099,0.049
		c-0.277,0.26-0.539,0.52-0.832,0.766c-0.04,0.034-0.142,0.047-0.16,0.091c-0.033,0.083-0.042,0.227-0.137,0.302l-0.102,0.363
		c0.016-0.078,0.1-0.073,0.113-0.087c0.022-0.022,0.034-0.147,0.066-0.175c0.006-0.005,0.042,0.016,0.063-0.005
		c0.174-0.168,0.305-0.387,0.523-0.553c0.089-0.068,0.18-0.128,0.283-0.174c0.057,0.087-0.135,0.161-0.194,0.223
		c-0.22,0.232-0.402,0.448-0.64,0.663c-0.046,0.042-0.127,0.163-0.148,0.176c-0.026,0.016-0.073-0.02-0.093,0.011
		c-0.021,0.032-0.093,0.395-0.115,0.479c-0.016,0.062,0.026,0.149-0.059,0.143l0.079,0.106c-0.018-0.099,0.026-0.065,0.07-0.093
		c0.09-0.056,0.035-0.024,0.086-0.115c0.037-0.066,0.11-0.109,0.116-0.194l0.05,0.025c0.009-0.09,0.057-0.117,0.122-0.162
		c0.099-0.068,0.187-0.184,0.312-0.278c0.02-0.015,0.127-0.106,0.131-0.03c0.002,0.034-0.191,0.262-0.231,0.306
		c-0.242,0.272-0.537,0.5-0.755,0.788l-0.021,0.693c0.122-0.055,0.115-0.161,0.174-0.257c0.03-0.049,0.068-0.065,0.089-0.099
		c0.026-0.044,0.134-0.297,0.158-0.311c0.024-0.015,0.073,0,0.104-0.004c-0.053-0.124,0.132-0.158,0.202-0.242l0.018,0.047
		l0.049-0.02c0.016,0.126-0.047,0.099-0.095,0.16c-0.167,0.21-0.334,0.417-0.508,0.621c-0.025,0.03-0.032,0.084-0.056,0.106
		c-0.029,0.028-0.082,0.021-0.09,0.03c-0.007,0.008-0.006,0.211-0.002,0.221c0.006,0.021,0.053,0.017,0.054,0.032
		c0.004,0.061-0.089,0.153,0.012,0.253c0.107-0.152,0.171-0.36,0.308-0.493c0.029-0.028,0.067-0.013,0.078-0.021
		c0.004-0.003-0.017-0.041,0.002-0.064c0.131-0.159,0.333-0.212,0.191,0c-0.04,0.06-0.101,0.16-0.139,0.211
		c-0.067,0.089-0.372,0.364-0.395,0.44c-0.036,0.118,0.062,0.173,0.088,0.252c0.044,0.133,0.007,0.148,0.08,0.267
		c0.023,0.038,0.016,0.164,0.069,0.147l0-0.081c0.053-0.046,0.077,0.009,0.108-0.081c-0.139-0.05-0.014-0.064-0.008-0.073
		c0.018-0.026,0.004-0.084,0.024-0.126c0.084-0.179,0.221-0.313,0.33-0.448c0.029-0.036,0.094-0.212,0.167-0.106
		c0.091,0.133-0.117,0.248-0.189,0.358c-0.085,0.131-0.163,0.304-0.248,0.444c-0.027,0.044-0.104,0.116-0.114,0.152
		c-0.011,0.04,0.024,0.082,0.03,0.126c0.015,0.101,0.035,0.18,0.116,0.285c0.012,0.015,0.034,0.021,0.053,0.02l-0.08,0.053
		l0.109-0.011l0.11-0.252c0.081,0.041,0.031,0.002,0.052-0.034c0.078-0.132,0.228-0.244,0.34-0.352l-0.022-0.048
		c0.151-0.047,0.069,0.171,0.025,0.248c-0.074,0.129-0.308,0.313-0.412,0.427c-0.228,0.251-0.017,0.203,0.062,0.308
		c0.029,0.039,0.029,0.111,0.055,0.153c0.027,0.044,0.123,0.072,0.122,0.18c0.085-0.126,0.131-0.311,0.203-0.436
		c0.048-0.084,0.247-0.197,0.295-0.303l0.107,0.014l-0.05,0.039c0.06,0.102-0.094,0.186-0.15,0.257
		c-0.056,0.071-0.339,0.428-0.339,0.468c0.099,0.021,0.107,0.193,0.14,0.224c0.004,0.004,0.038-0.015,0.049-0.005
		c0.05,0.046,0.102,0.118,0.148,0.17c0.122-0.035,0.017-0.065,0.043-0.143c0.011-0.034,0.059-0.035,0.071-0.049
		c0.009-0.011,0.089-0.179,0.115-0.217c0.017-0.024,0.078-0.066,0.105-0.095c0.056-0.059,0.067-0.163,0.163-0.139
		c0.043,0.195-0.134,0.272-0.215,0.395c-0.02,0.03-0.059,0.1-0.079,0.135c-0.039,0.067-0.068,0.142-0.11,0.207
		c0.046,0.034,0.093,0.072,0.133,0.112c0.027,0.027,0.023,0.07,0.036,0.083c0.026,0.026,0.168,0.06,0.176,0.066
		c0.021,0.015,0.03,0.109,0.094,0.099c0.082-0.007,0.191-0.202,0.234-0.273c0.056-0.092,0.014-0.055,0.03-0.095
		c0.002-0.006,0.072-0.022,0.09-0.087c0.011-0.038-0.016-0.076-0.012-0.078c0.007-0.005,0.046,0.007,0.073-0.008
		c0.018-0.011-0.009-0.057,0.034-0.046l0.053,0.195c-0.078,0.044-0.075,0.139-0.124,0.204c-0.039,0.052-0.29,0.235-0.25,0.296
		l0.509,0.245c-0.043-0.075-0.023-0.052,0.054-0.054c-0.053-0.064,0.03-0.053,0.056-0.118c0.073-0.19-0.021-0.14,0.181-0.289
		c0.003-0.003-0.019-0.043,0.015-0.077c0.048-0.05,0.201-0.125,0.16-0.005l-0.358,0.557l0.101,0.093
		c0.112,0.043,0.2,0.15,0.316,0.056l0.013,0.08l0.161,0l-0.053-0.053c0.142,0.017,0.046-0.041,0.059-0.076
		c0.001-0.002,0.032-0.004,0.045-0.026c0.036-0.064,0.217-0.396,0.285-0.381c0.091,0.045-0.01,0.223-0.054,0.27
		c-0.024,0.026-0.01-0.015-0.082,0.075c-0.031,0.039-0.112,0.112-0.116,0.156c-0.007,0.078,0.381,0.166,0.443,0.119l0.022,0.05
		c0.65,0.095,1.245,0.035,1.853-0.117c0.319-0.08,0.573-0.25,0.886-0.371c0.051-0.02,0.132-0.002,0.162-0.018
		c0.034-0.019,0.007-0.058,0.02-0.079c0.003-0.004,0.037,0.014,0.05,0.005c0.081-0.053,0.235-0.111,0.216-0.197l0.04,0.053
		c0.079-0.092,0.15-0.208,0.278-0.221l0.005-0.075l0.051,0.026c0.003-0.025,0.003-0.054,0.019-0.076
		c0.046-0.065,0.225-0.18,0.297-0.254c0.439-0.457,0.871-1.136,1.07-1.737c0.38-1.145,0.231-2.437-0.293-3.442
		c-0.152-0.292-0.31-0.522-0.484-0.807c-0.016-0.025-0.014-0.071-0.018-0.075c-0.002-0.002-0.039,0.019-0.061,0.016
		c-0.115-0.016-0.053-0.081-0.102-0.162c-0.085-0.14-0.262-0.219-0.358-0.341c-0.015-0.02-0.016-0.053-0.015-0.078l-0.08,0.027
		l0.013-0.054c-0.12,0.004-0.215-0.137-0.316-0.205c-0.14-0.094-0.325-0.167-0.483-0.251C22.078,9.851,22.074,9.82,22.065,9.816z"/>
	<path d="M16.832,18.944c0.004,0.003-0.015,0.038-0.007,0.05c0.034,0.056,0.12,0.036,0.164,0.063
		c0.266,0.16,0.382,0.243,0.686,0.371c0.336,0.142,0.759,0.3,1.1,0.36l0.574,0.149l0.066-0.056
		c-0.008,0.079,0.081,0.059,0.138,0.069c0.028,0.005,0.05,0.034,0.064,0.038c0.007,0.002,0.007-0.072,0.107-0.047
		c0.369,0.09,0.943,0.035,1.363-0.067c0.073-0.018,0.112-0.098,0.141,0.007c0.076-0.085,0.197-0.073,0.297-0.106
		c0.107-0.035,0.246-0.128,0.36-0.11l0.001-0.08c0.124,0.078,0.19-0.05,0.295-0.094c0.114-0.047,0.31-0.099,0.408-0.149
		c0.508-0.263,0.578-0.478,1.221-0.326c0.5,0.118,1.169,0.409,1.614,0.645c0.745,0.395,1.801,1.358,2.16,2.134
		c0.019,0.041,0.069,0.012,0.025,0.155l0.04-0.054c0.115,0.118,0.217,0.288,0.175,0.457l0.052-0.026
		c0.021,0.015,0.057,0.18,0.072,0.214c0.006,0.014,0.051,0.014,0.063,0.047c0.048,0.133,0.039,0.192,0.03,0.317
		c-0.001,0.01,0.1,0.05,0.051,0.173l0.053-0.027c0.01,0.012-0.026,0.126-0.021,0.148c0.003,0.015,0.04,0.007,0.051,0.054
		c0.085,0.36,0.117,1.017,0.126,1.396c0.008,0.333,0.034,1.029-0.061,1.304c-0.114,0.325-0.334,0.607-0.631,0.755l0.026,0.051
		c-0.102,0.007-0.102,0.1-0.215,0.082l0.027,0.053c-0.111-0.025-0.123,0.039-0.168,0.062c-0.361,0.177-0.746,0.335-1.124,0.406
		c-0.105,0.02-0.213,0.045-0.32,0.016l0.027,0.053c-0.188-0.016-0.376,0.067-0.558,0.1c-1.277,0.231-2.591,0.334-3.888,0.327
		c-0.152-0.001-0.396,0.044-0.538,0.032c-0.086-0.008-0.134-0.114-0.159-0.005c-0.253,0.017-0.619-0.057-0.864-0.027
		c-0.051,0.006-0.037,0.054-0.05,0.053c-0.273-0.014-0.556-0.051-0.835-0.053c-0.119-0.001-0.2,0.076-0.322-0.025l0.013,0.054
		c-0.077,0.044-0.138,0-0.204,0c-0.17,0.002-0.425,0.031-0.563-0.054c-0.019,0.084-0.086,0.025-0.161,0.029
		c-0.161,0.009-0.35,0.067-0.484-0.056l-0.024,0.051l-0.274-0.043c-0.701,0.003-1.448-0.135-2.17-0.28
		c-0.727-0.146-1.432-0.306-2.104-0.596c-0.011-0.005-0.074-0.102-0.097-0.117c-0.303-0.197-0.516-0.271-0.707-0.601
		c-0.01-0.017-0.049-0.02-0.056-0.031c-0.006-0.01,0.015-0.039,0.009-0.056c-0.109-0.341-0.144-0.667-0.14-1.023
		c0.008-0.773,0.08-1.66,0.361-2.427c0.458-1.248,0.994-1.982,2.075-2.761c0.153-0.11,0.356-0.259,0.519-0.342
		c0.492-0.251,1.059-0.422,1.581-0.605c0.115-0.04,0.313-0.09,0.451-0.079C16.693,18.898,16.826,18.939,16.832,18.944z
		 M18.683,20.458c-0.513-0.113-0.969-0.245-1.441-0.486c-0.135-0.069-0.476-0.32-0.566-0.347c-0.026-0.008-0.296-0.014-0.311-0.009
		c-0.39,0.134-0.849,0.231-1.269,0.446c-0.064,0.033-0.349,0.193-0.392,0.224c-0.071,0.05-0.071,0.163-0.206,0.133l0.023,0.05
		c-0.332,0.156-0.539,0.463-0.781,0.723c-0.006,0.006-0.036-0.019-0.043-0.014c-0.011,0.007-0.137,0.176-0.157,0.205
		c-0.015,0.023-0.064,0.063-0.023,0.085c0.079-0.103,0.202-0.153,0.299-0.226c0.046-0.034,0.061-0.119,0.144-0.097l-0.027-0.08
		c0.104,0.034,0.117-0.058,0.141-0.072c0.279-0.163,0.594-0.389,0.833-0.556c0.093-0.009,0.259-0.223,0.316-0.099
		c-0.039,0.027-0.146,0.085-0.171,0.106c-0.037,0.031-0.084,0.105-0.163,0.164c-0.418,0.311-0.931,0.634-1.35,1.001
		c-0.083,0.073-0.199,0.242-0.29,0.316c-0.051,0.042-0.116,0.033-0.123,0.04c-0.071,0.068-0.141,0.25-0.181,0.326
		c-0.053,0.098-0.109,0.196-0.167,0.292c0.104,0.062,0.089-0.061,0.114-0.087c0.011-0.011,0.17-0.077,0.252-0.152
		c0.279-0.255,0.541-0.532,0.887-0.764c0.032-0.021,0.235-0.171,0.25-0.072c-0.015,0.081-0.084,0.067-0.113,0.093
		c-0.302,0.266-0.632,0.542-0.92,0.806c-0.285,0.261-0.588,0.468-0.702,0.853l-0.051,0.411c0.217-0.162,0.251-0.461,0.519-0.569
		l-0.022-0.049c0.19-0.069,0.335-0.29,0.493-0.421c0.029-0.024,0.188-0.148,0.205-0.157c0.068-0.036,0.124,0.053,0.037,0.118
		c-0.179,0.133-0.315,0.316-0.478,0.477c-0.111,0.11-0.247,0.204-0.352,0.307c-0.139,0.137-0.253,0.306-0.403,0.429l-0.04-0.054
		c-0.014,0.193-0.062,0.382-0.055,0.576c0.001,0.031-0.013,0.09,0.041,0.068c0.066-0.027,0.124-0.259,0.174-0.329
		c0.041-0.058,0.173-0.127,0.194-0.229c0.082,0.044,0.023-0.008,0.067-0.061c0.057-0.07,0.523-0.434,0.623-0.505
		c0.021-0.015,0.019-0.05,0.084-0.03c-0.004,0.073-0.02,0.129-0.07,0.185c-0.206,0.23-0.449,0.412-0.638,0.61
		c-0.165,0.173-0.311,0.365-0.501,0.514c0.039,0.143-0.011,0.266-0.012,0.397c0,0.03-0.006,0.138,0.052,0.121
		c0.038-0.065,0.105-0.117,0.144-0.178c0.049-0.076,0.021-0.196,0.139-0.171c-0.062-0.084,0.15-0.166,0.181-0.196
		c0.139-0.135,0.179-0.241,0.335-0.368c0.08-0.065,0.109-0.113,0.189-0.189c0.016-0.015,0.025-0.03,0.02-0.053
		c0.188,0.129-0.137,0.365-0.233,0.466c-0.035,0.036-0.148,0.161-0.122,0.174c-0.23,0.212-0.426,0.487-0.692,0.671
		c-0.04,0.107,0.007,0.161,0.012,0.235c0.006,0.08-0.017,0.397,0.108,0.362c0.059-0.016,0.008-0.183,0.046-0.236
		c0.018-0.025,0.094-0.025,0.101-0.034c0.002-0.003-0.025-0.035-0.019-0.046c0.014-0.026,0.246-0.265,0.273-0.294
		c0.059-0.064,0.471-0.509,0.526-0.464c0.054,0.045-0.054,0.055-0.054,0.07c0,0.018,0.028,0.045,0.023,0.061
		c-0.033,0.101-0.448,0.506-0.525,0.574c-0.04,0.035,0.003,0.161-0.082,0.11c-0.038,0.122-0.36,0.334-0.267,0.441
		c0.042,0.048,0.242,0.21,0.301,0.25c0.022,0.015,0.026,0.038,0.067,0.027c0.009-0.007,0.017-0.112,0.03-0.139
		c0.119-0.245,0.408-0.462,0.589-0.686c0.018-0.022,0.019-0.06,0.029-0.086l0.106,0.011l0.007,0.088
		c-0.214,0.315-0.504,0.579-0.679,0.92l0.403,0.161l-0.107-0.08c0.023,0,0.05,0.003,0.071-0.01c0.075-0.046,0.104-0.222,0.146-0.292
		c0.03-0.051,0.135-0.159,0.168-0.209c0.015-0.023,0.09-0.22,0.112-0.214c0.173,0.062,0.051,0.242-0.015,0.356
		c-0.041,0.071-0.104,0.189-0.148,0.26c-0.052,0.083-0.137,0.144-0.199,0.217c0.038,0.002,0.079-0.008,0.116,0.001
		c0.011,0.003,0.142,0.082,0.193,0.093c0.235,0.051,0.25-0.048,0.371-0.218l0.286-0.224c0.016,0.072,0.018,0.111-0.026,0.173
		l-0.054-0.012c0.039,0.089-0.306,0.288-0.242,0.349c0.108-0.003,0.2,0.059,0.302,0.089c0.058,0.017,0.086-0.041,0.118,0.045
		l0.061-0.022l0.003,0.049l0.08-0.053c-0.003,0.021-0.002,0.041,0.02,0.052c0.045,0.022,0.424,0.085,0.512,0.101
		c0.537,0.095,1.133,0.139,1.657,0.169c0.34,0.02,0.686,0.018,1.018,0.081l0.03-0.054c0.022,0.093,0.036,0.023,0.104,0.029
		c0.351,0.031,0.924,0.095,1.24-0.002c0.026,0.099,0.067,0.031,0.135,0.033c0.768,0.027,1.543,0.026,2.309,0.021
		c0.173-0.001,0.445-0.023,0.591-0.081c0.026,0.105,0.093,0.013,0.183,0.008c0.113-0.007,0.299,0.077,0.381-0.008l0.027,0.054
		l0.063-0.067l0.499,0.011c1.125-0.247,2.581-0.232,3.597-0.809c0.125-0.071,0.529-0.369,0.595-0.48
		c0.051-0.084,0.035-0.317,0.093-0.418l-0.051-0.038l0.055-0.015c-0.022-0.052-0.03-0.102-0.03-0.159
		c-0.003-1.043,0.018-1.868-0.404-2.814c-0.536-1.202-1.732-2.159-2.974-2.62c-0.266-0.099-0.544-0.157-0.825-0.184
		c-0.094,0.004-0.176,0.111-0.263,0.154c-0.441,0.219-0.982,0.433-1.443,0.566c-0.78,0.226-1.759,0.292-2.567,0.183
		c-0.05-0.007-0.035-0.05-0.057-0.055c-0.101-0.024-0.261,0.028-0.399-0.007C18.69,20.489,18.689,20.459,18.683,20.458z"/>
</g>
</svg>
