<?xml version="1.0" encoding="iso-8859-1"?>
<!-- Generator: Adobe Illustrator 29.5.1, SVG Export Plug-In . SVG Version: 9.03 Build 0)  -->
<svg version="1.1" id="Ebene_1" xmlns="http://www.w3.org/2000/svg" xmlns:xlink="http://www.w3.org/1999/xlink" x="0px" y="0px"
	 viewBox="0 0 141.732 141.732" style="enable-background:new 0 0 141.732 141.732;" xml:space="preserve">
<g>
	<path style="fill:#1D1D1B;" d="M21.549,18.595c1.441-2.154,2.584-4.002,5.467-3.949c8.596,0.159,6.121,14.944,4.639,20.265
		c-0.233,0.837-0.603,2.919-1.323,3.282c-1.289,0.605-1.817-0.434-2.677-0.796c-2.531-1.065-4.344-1.445-6.722-3.084
		c-3.997-2.756-7.839-7.072-8.341-12.087C11.976,16.062,17.725,15.304,21.549,18.595z M23.392,25.811
		c-1.459-1.799-2.181-3.87-4.183-5.152c-1.176-0.754-3.22-1.624-3.548,0.368c-0.51,3.094,4.18,8.226,6.558,9.993
		c1.01,0.751,4.101,2.628,5.214,2.943c0.274,0.078,0.49,0.187,0.759-0.014c0.782-0.548,1.74-8.066,1.762-9.385
		c0.037-2.293-0.374-7.837-3.962-6.38c-2.824,1.147-0.371,6.473-1.368,7.215C24.421,25.551,23.552,25.879,23.392,25.811z"/>
	<path style="fill:#1D1D1B;" d="M99.599,8.137c0.23,0.014,0.563-0.008,0.743,0.124c0.457,0.336,1.189,5.784,1.248,6.725
		c0.257,4.067-0.654,8.905,0.261,12.452c-0.41,2.305-0.008,4.736,0.174,6.81c0.03,0.345-0.167,0.679-0.432,0.892
		c0.697,0.212,0.513,0.557,0.512,1.235l-0.759,0.377c0.365-0.088,1.004,0.683,0.989,0.877c-0.024,0.304-1.038,0.218-0.742,0.867
		l0.742,0.005c0.22,1.253-1.15,1.242,0.253,1.865l-0.993,0.622l0.994,0.624l-0.507,1.238l0.513,0.249l0,0.502l-0.493,0.129
		l-0.013,0.365l0.429,0.175l-0.106,0.402l0.425,0.171c-1.856,1.015,0,0.854,0.249,1.124c0.442,0.48-0.709,0.62-0.729,0.859
		c-0.013,0.151,0.428,0.631,0.379,1.01c-0.05,0.386-0.914,0.575,0.35,0.869l-0.497,0.247l0.497,0.99l-0.996,0.379l0.994,0.747
		c0.288,0.516-0.89,0.512-0.992,0.622c-0.509,0.547,0.953,0.692,0.994,0.746l-0.998,0.868l0.484,0.147l-0.19,0.697l0.453,0.031
		c-0.549,0.745-0.991,1.702,0.252,1.49c0.212,0.653-0.356,0.412-0.442,0.614c-0.16,0.374-0.04,0.963,0.441,1.001l-0.746,0.38
		l0.749,1.119l-0.493,0.268c0.28,0.548-0.255,1.217,0.487,1.099c-0.855,0.778-0.054,1.924-0.243,2.81
		c-0.041,0.192-0.449,0.151-0.496,0.342c-0.212,0.866,0.209,2.225-0.057,3.137c-0.118,0.403-1.343,2.021-1.562,2.651l-0.643-0.403
		c0.05-0.664,0.31-1.266,0.288-1.947c-0.585-18.909-2.105-37.834-2.769-56.718c-0.026-0.744-0.155-2.229,0.263-2.743
		C98.749,6.187,100.274,6.678,99.599,8.137z"/>
	<path style="fill:#1D1D1B;" d="M56.508,1.248c10.594-0.817,22.451,1,33.02,1.915c2.113,0.183,6.489-0.243,8.318,0.639
		c1.846,0.889,0.443,2.597-1.383,2.818c-6.488,0.786-13.222-1.135-19.616-1.474c-8.032-0.427-17.684,0.59-25.39-0.237
		c-0.963-0.103-2.92-0.649-2.862-1.843c0.453-2.114,2.408-1.016,3.858-1.14C53.649,1.823,55.116,1.355,56.508,1.248z"/>
	<path style="fill:#1D1D1B;" d="M53.633,15.17c0.343-0.345,1.24-0.488,1.395,0.101c-0.275,1.28,0.889,4.975,0.154,5.794
		C52.911,23.598,52.461,16.35,53.633,15.17z"/>
	<path style="fill:#1D1D1B;" d="M55.496,25.988c-1.09,1.323-3.155-0.484-2.19-1.818C54.405,22.653,56.499,24.771,55.496,25.988z"/>
	<path style="fill:#1D1D1B;" d="M48.35,55.164c0.741,0.048,1.171-0.523,1.852-0.758c4.495-1.552,10.931-0.495,15.675-0.473
		c7.659,0.035,22.147-1.513,28.119,3.728c3.737,3.28,3.074,7.98,3.114,12.505c6.193,2.79,5.343,13.442,3.555,18.779
		c-3.108,9.279-13.61,9.749-21.281,13.054c-3.137,1.352-0.17,0.995,0.812,2.551c1.574,2.209,0.319,7.243,0.237,9.943
		c-0.083,2.758-0.136,5.99,0,8.729c0.248,4.982,1.881,10.22-1.025,14.877c-1.789,2.867-3.104,2.828-6.235,2.335
		c-3.782-0.595-5.934-1.875-6.95-5.739c-1.113-4.234-0.103-12.101,0.036-16.711c0.066-2.18,0.462-5.207,0.265-7.226
		c-0.113-1.158-0.783-2.002-0.948-3.032c-0.386-2.413,0.206-4.434,2.673-5.169c0.71-0.212,2.782-0.257,2.956-0.776l-0.214-9.795
		c-4.33,0.339-8.964-0.125-13.277-0.78c-3.975-0.604-8.871-1.646-11.21-5.211c-2.853-4.35-3.457-18.352-2.311-23.416
		c0.567-2.506,1.489-4.292,3.071-6.293c-0.728-1.691-1.277-3.619-1.413-5.466c-0.73-9.902-0.195-22.837,0.269-32.841
		c0.16-3.45,0.129-8.645,1.604-11.831c0.361-0.78,1.736-1.887,2.079-0.829c0.427,1.319-0.173,4.454-0.22,5.922
		c-0.398,12.453,0.476,25.549-0.228,37.839c-0.044,0.767-0.164,2.534-0.309,3.175C48.862,53.064,47.884,53.866,48.35,55.164z
		 M80.392,58.08c-0.38,0.224-7.617-0.328-8.821-0.333c-4.038-0.014-8.103-0.039-12.14-0.105c-2.541-0.042-7.251-0.517-9.012,1.581
		c-1.474,1.755-1.409,7.164-2.134,9.437c-0.147,0.46-0.607,0.515-0.699,1.297c-0.214,1.828,0.474,7.384,0.836,9.394
		c0.718,3.988,1.895,4.947,5.588,6.354c6.112,2.328,9.77,1.587,15.861,1.784c5.733,0.186,12.534,1.565,17.986-0.654
		c4.99-2.031,4.407-7.811,4.779-12.263l-0.965,0.031c-0.281,0.717-0.156,1.75-0.458,2.406c-0.21,0.457-0.723,0.377-0.912,1.081
		c-0.342,1.273,0.701,2.816-1.524,2.726c-1.152-0.047-1.297-2.137-1.374-3.125c-0.249-3.229-0.1-8.215,0.257-11.455
		c0.093-0.844,0.467-2.188,1.427-2.329c1.835-0.269,1.746,5.003,1.809,6.187c0.775,0.051,1.808-0.149,1.755-1.107
		c-0.499-2.09-0.145-4.484-0.682-6.561c-0.933-3.611-8.133-3.972-11.15-4.274C80.926,56.902,80.444,58.05,80.392,58.08z
		 M74.724,101.691c1.729-2.268,4.599-3.117,7.151-4.167c3.68-1.515,11.414-3.495,13.74-6.413c2.968-3.721,3.52-11.997,1.622-16.289
		c-0.729,1.387-0.239,3.099-0.362,4.612c-0.773,9.52-5.166,12.358-14.305,12.815c-2.773,0.139-5.596-0.027-8.347-0.261
		L74.724,101.691z M76.962,106.915c-1.366-0.042-2.749,0.057-4.117,0.011c-0.633-0.021-2.868-0.716-3.075,0.134
		c-0.063,0.26,0.665,2.237,0.732,2.955c0.676,7.258-0.77,15.731-0.432,23.116c0.478,1.342,0.459,1.948,1.821,2.615
		c6.113,2.991,4.25-6.584,5.079-9.786L76.962,106.915z"/>
	<path style="fill:#1D1D1B;" d="M73.413,81.328c0.731-0.126,2.32,0.387,3.176,0.457c0.982,0.08,3.346-0.166,3.972,0.515
		c0.617,0.671,0.025,1.557-0.748,1.719c-1.467,0.308-7.342,0.61-7.527-1.4C72.29,82.008,72.826,81.429,73.413,81.328z"/>
	<path style="fill:#1D1D1B;" d="M81.353,74.599c1.605-0.518,1.109,1.446,1.13,2.086c0.021,0.622,0.636,2.375-0.672,2.373
		C80.376,79.056,80.3,74.939,81.353,74.599z"/>
</g>
</svg>
