<?xml version="1.0" encoding="iso-8859-1"?>
<!-- Generator: Adobe Illustrator 29.5.1, SVG Export Plug-In . SVG Version: 9.03 Build 0)  -->
<svg version="1.1" id="Ebene_1" xmlns="http://www.w3.org/2000/svg" xmlns:xlink="http://www.w3.org/1999/xlink" x="0px" y="0px"
	 viewBox="0 0 141.732 141.732" style="enable-background:new 0 0 141.732 141.732;" xml:space="preserve">
<g>
	<path d="M47.863,124.857c-31.15-24.58-34.933-62.431-31.995-99.375c0.296-0.401,2.181-1.514,2.668-1.571
		c18.937-1.462,38.202-6.95,50.969-21.835c5.769-1.95,3.04,0.847,7.28,3.554c11.437,13.741,30.123,16.868,46.95,18.266
		c1.409,0.238,1.013,1.165,2.105,1.781c1.004,23.092,1.004,48.852-9.178,70.356c-9.89,19.013-26.439,34.305-45.239,44.313
		C62.597,137.299,54.963,130.789,47.863,124.857z M67.741,134.715c1.039,0.662,1.976,1.55,3.154,1.991
		c45.268-26.285,54.404-60.132,51.587-109.782l-6.159-0.328l-0.184-0.53c-16.246-1.244-34.48-7.275-44.928-21.104
		c-12.983,15.23-33.171,21.304-52.464,22.805l-0.169,2.195l0.842-1.446l0.823,0.119c-0.094,2.481-2.597,2.814-2.003,6.059
		c0.85-0.411,2.431-4.487,3.04-2.465c-1.372,3.378-3.604,2.668-3.041,6.689c0.993-0.325,2.043-3.947,2.881-1.933
		c-0.165,0.561-2.078,3.273-2.881,3.454c0,0,0,2.703,0,2.703c4.235-5.504,3.36-1.474,0.21,1.39c-0.195,0.801-0.26,2.831-0.21,3.679
		c0.61-0.257,2.067-3.335,2.702-2.703c0.284,1.744-1.695,2.486-2.045,3.952c-0.234,0.354-0.664,0.236-0.668,0.854
		c-0.003,0.588,0.357,1.431,0.181,2.122c0.866-0.52,0.851-2.16,2.194-1.857c-0.708,2.564-2.641,3.21-1.857,6.249
		c0.918-0.45,1.096-1.939,2.195-1.857c0.477,0.509-1.447,3.146-1.946,3.553l0.259,2.866l0.854-1.086l1.34-0.432
		c0.439,0.42-1.76,2.315-1.939,2.705c-0.412,0.896,0.447,2.374,0.252,3.376c0.472-0.342,0.829-1.41,1.583-1.169
		c0.819,0.7-0.127,0.925-0.347,1.225c-1.247,1.645-0.94,2.129-0.559,4.167l1.772-1.854c0.833,1.295,0.283,1.162-0.347,1.846
		c-0.398,0.433-0.577,0.996-1.258,1.028l0.508,3.543c0.738-0.804,2.141-2.695,1.82-0.203c-0.702,0.206-1.009,1.269-1.498,1.8
		l1.03,4.654c0.229-0.267,1.55-2.338,1.944-2.327c1.485,1.143-2.136,2.368-1.269,5.537c0.739-0.038,0.923-1.607,1.526-1.939
		c0.564-0.426,1.288-0.218,0.917,0.581c-1.11,1.759-2.09,2.359-1.429,4.568c0.301,0.355,1.289-1.598,1.384-1.653
		c2.704-0.393-0.341,2.012-0.706,2.916l1.096,2.285c0.483-0.784,1.042-1.687,2.105-1.685c0.409,0.817-0.158,0.676-0.476,1.119
		c-0.403,0.561-0.636,1.196-1.173,1.687l0.982,2.595c0.287,0.02,0.145-0.368,0.324-0.601c0.152-0.197,0.599-0.389,0.864-0.664
		c0.069-0.65,1.003-1.152,1.529-0.645c0.365,0.563-0.77,1.221-1.1,1.755c-0.284,0.46-0.253,1.073-0.739,1.2l0.98,2.166
		c0.475,0.124,0.339-0.364,0.596-0.666c0.499-0.585,0.75-0.812,1.597-0.685c0.217,0.207-1.261,2.114-1.472,2.447
		c0.462,0.492,0.687,2.402,1.391,2.118c0.244-0.22,1.543-2.682,2.201-1.7c0.415,0.619-0.328,0.802-0.574,1.13
		c-0.387,0.515-0.634,1.14-1.127,1.58l1.101,1.69c-0.097-0.574,1.607-2.605,2.12-1.862c0.352,0.705-0.527,0.978-0.71,1.243
		c-0.303,0.44-0.508,1.091-0.887,1.524l1.589,1.967c0.765-0.781,0.114-2.633,1.776-2.364c0.152,3.761-2.437,1.939,0.594,5.407
		l1.265-1.774c2.689-0.579-0.354,1.675-0.32,2.509c0,0,1.756,2.133,1.756,2.133c1.847-2.974,3.18-1.393,0.594,0.763
		c4.314,4.599,1.655,1.466,5.064-0.422c0.427,0.594-1.307,3.162-1.659,3.803l1.914,1.769l1.295-2.671l0.793-0.007
		c0.445,0.423-0.733,3.042-1.331,3.273c0.009,0.448,1.526,1.47,1.949,1.731c0.337-0.027,1.752-2.142,1.796-2.635
		c2.734-0.417-0.326,2.742-1.206,3.269l1.862,1.697c0.913,0.196,2.087-1.857,2.387-2.599c2.73-0.411-0.661,2.839-1.375,3.435
		l2.109,1.602c0.466-1.134,1.833-1.727,1.945-3.037l1.011,0.254l0.147,0.469c-0.176,0.612-0.813,0.923-1.162,1.386
		c-0.39,0.518-0.243,1.237-1.18,1.353l1.774,1.433c0.341-1.017,1.097-1.163,1.779-1.764c0.668-0.589,1.043-1.916,1.613,0.085
		c-1.206,0.439-1.716,1.865-3.14,1.935l2.1,1.617c0.474-1.105,1.682-1.526,1.942-2.641l0.831-0.045l0.294,0.989
		c-1.151,0.327-1.194,1.701-2.294,2.027c-0.233,0.331,1.166,1.062,1.437,1.178c0.119-1.388,2.482-1.292,2.781-2.803l1.188,0.102
		c-0.423,1.413-2.242,2.76-3.716,2.873c0.373,0.48,3.163,2.51,3.548,2.193c-0.605-0.981,1.188-1.322,1.684-1.779
		c0.306-1.192,1.87-1.17,1.445,0.091c-0.249,0.394-2.23,1.69-2.79,1.86C66.073,134.01,67.147,134.336,67.741,134.715
		c-1.122-0.915,1.413-1.349,2.021-1.95c0.472-0.374,0.447-1.05,1.263-0.927C72.951,132.301,68.374,135.187,67.741,134.715z
		 M43.75,21.349c-0.997,0.168-2.847,0.831-3.716,1.348C41.182,22.275,42.901,22.186,43.75,21.349z M125.353,28.107
		c-0.523-0.14-1.167,1.321-1.011,1.52c0.33-0.217,0.55-0.52,0.986-0.53L125.353,28.107z"/>
	<path d="M90.72,27.091l0.334-0.08l-0.148-0.824l0.367-0.249c7.463,3.43,16.388,5.642,24.669,6.427
		c2.626,0.497,1.158,6.651,1.479,8.842c1.455,35.376-11.839,72.462-46.681,86.367C44.647,115.55,26.955,90.942,24.998,61.979
		c-2.528-46.951-3.281-19.854,31.367-38.744c2.512-1.57,10.596-5.849,11.306-8.496c0.252-0.18,0.961-0.105,1.304-0.308
		c0.298-0.175,0.607-1.114,1.223-1.197c2.75,0.64,4.626,3.83,7.188,5.141c1.825,1.441,5.231,2.314,6.241,4.234
		c0.133,0.118,2.792,1.345,3.207,1.523C88.352,24.784,91.238,24.878,90.72,27.091z M27.363,35.203
		c-1.699,38.647,6.528,72.033,44.218,89.243c35.519-18.424,44.244-50.769,43.128-88.317c-0.196-1.799-0.666-1.258-1.922-1.454
		c-1.718-0.268-3.992-0.664-5.65-1.108c-1.641-0.831-2.193-0.673-3.962-0.601c-7.511-1.348-14.776-5.247-21.801-7.934
		c-2.39-1.334-10.28-6.129-10.846-8.24C58.758,27.465,43.098,33.87,27.363,35.203z"/>
	<path d="M100.296,44.38c0.341,0.287,0.521,0.986,0.802,1.308c0.519,0.594,1.556,0.638,1.369,1.843
		c-9.213,8.578-17.359,18.701-25.333,28.405c-4.546,5.036-7.392,13.186-13.15,16.509c-0.227-0.04-1.378-0.545-1.495-0.714
		c-1.986-4.742-7.586-9.163-10.296-13.864c-2.02-2.567-4.818-5.086-6.24-7.953c-0.652-0.655-2.418-0.372-2.17-2.144
		c0.184-1.313,1.093-1.304,1.905-1.992c1.323-1.12,1.796-2.39,3.961-1.418c5.329,5.004,9.325,11.063,13.783,16.794
		C68.58,75.955,94.46,40.88,100.296,44.38z M85.143,61.56c-0.795,0.445-3.492,1.842-4.055,2.531
		C82.501,63.485,84.037,62.628,85.143,61.56z M71.458,76.259c-0.984,0.238-1.761,1.099-2.365,1.855L71.458,76.259z M60.6,83.984
		c0.224-0.219,0.667-1.269,0.719-1.644l-1.518,1.776l0.082,0.25C60.054,84.153,60.432,84.149,60.6,83.984z"/>
</g>
</svg>
