<?xml version="1.0" encoding="iso-8859-1"?>
<!-- Generator: Adobe Illustrator 29.5.1, SVG Export Plug-In . SVG Version: 9.03 Build 0)  -->
<svg version="1.1" id="Ebene_1" xmlns="http://www.w3.org/2000/svg" xmlns:xlink="http://www.w3.org/1999/xlink" x="0px" y="0px"
	 viewBox="0 0 141.732 141.732" style="enable-background:new 0 0 141.732 141.732;" xml:space="preserve">
<g>
	<path d="M90.241,14.272c-0.467-0.338,0.209-1.68,0.421-2.104c0.781-1.565,4.06-6.013,5.397-7.015
		c0.688-0.515,1.637-0.88,1.505,0.363c-0.189,1.783-4.756,7.3-6.298,8.385C91.041,14.06,90.476,14.442,90.241,14.272z"/>
	<path d="M57.294,15.379c-0.962,0.608-3.187-1.797-3.703-2.542c-0.53-0.766-1.571-2.817-0.757-3.606l0.907,0.057
		c0.754,1.276,1.884,2.293,2.718,3.502C56.995,13.567,57.859,14.426,57.294,15.379z"/>
	<path d="M98.452,40.835c1.451-0.422,6.04,0.95,6.836,2.303c0.493,0.838-0.295,1.085-1.037,1.048
		c-0.968-0.049-5.765-1.93-6.221-2.633C97.822,41.23,98.193,40.91,98.452,40.835z"/>
	<path d="M49.196,40.663c0.711-0.059,1.394-0.205,1.92,0.42c0.211,0.925-4.534,2.425-5.379,2.512
		c-0.827,0.085-2.631,0.073-1.583-1.018C45.022,41.672,47.932,40.768,49.196,40.663z"/>
	<path d="M67.194,113.763c0.794-0.627,5.558-5.013,6.047-5.055c0.54-0.046,0.492,0.6,0.261,0.972
		c-1.167,0.897-2.302,1.871-3.401,2.85c-0.241,0.214-0.33,0.548-0.556,0.739c-0.103,0.088-0.483-0.063-0.564,0.212l0.331,0.122
		l-0.144,0.345l3.007,0.091l3.777-3.18c0.616-0.187,1.752-1.357,2.335-1.235c0.302,0.063,0.232,0.274,0.135,0.504
		c-0.194,0.455-2.911,2.657-3.521,3.253c-0.145,0.142-0.856,0.77-0.653,0.944l2.44-0.097c1.369-1.182,2.827-2.553,4.241-3.658
		c0.162-0.127,1.757-1.382,1.596-0.474c-0.101,0.566-3.479,3.747-4.327,4.044c-0.051,0.304,0.255,0.181,0.468,0.188
		c0.405,0.013,1.831-0.038,2.167-0.122c1.531-0.384,5.788-5.155,6.298-5.141c0.191,0.005,0.414,0.523,0.187,0.747l-4.231,4.233
		c0.838,0.162,2.226-0.07,3.049-0.336c1.406-0.455,3.641-3.385,5.161-4.43c0.433-0.298,1.504-0.99,1.29-0.027l-4.046,3.853
		c0.128,0.209,0.58,0.075,0.796,0.044c3.471-0.501,3.885-2.802,6.063-5.032c0.492-0.504,1.371-1.247,1.133,0.004l-3.103,3.668
		c-0.029,0.144,0.173,0.115,0.277,0.09c0.54-0.135,2.892-1.099,3.282-1.42c0.694-0.572,2.866-3.889,3.495-4.029
		c0.248-0.034,0.518,0.232,0.465,0.464c-0.035,0.151-1.519,1.832-1.768,2.184c-0.105,0.149-0.162,0.328-0.297,0.456
		c-0.04,0.128,0.156,0.13,0.277,0.09c0.334-0.109,2.529-1.578,2.833-1.87c0.691-0.663,1.266-1.957,1.972-2.729
		c0.373-0.408,0.952-1.28,1.495-0.57l-1.123,1.507l0.278,0.278c0.908-0.97,2.292-1.685,3.18-2.651
		c0.407-0.443,2.127-3.514,2.746-2.988l-0.094,0.75c0.937-0.877,1.784-1.857,2.725-2.729c3.306-3.062,10.903-9.523,10.149-14.466
		c-0.371-2.433-3.796-1.244-5.196-0.515c-2.195,1.143-5.581,5.163-6.801,7.216c-0.053,0.089,0.146,1.64-0.22,2.033
		c-0.14,0.103-0.797-0.316-1.064-0.331c-1.162-0.063-4.85,2.957-6.019,3.682c-1.336,0.827-2.959,1.442-4.306,2.287
		c-0.32,0.502,2.247,3.047,0.952,3.951c-1.407-0.635-1.796-2.476-3.038-3.352c-1.434-1.013-2.992-1.161-4.618-1.401
		c-0.214-0.032-0.848-0.061-0.708-0.414c1.652-1.241,4.363-0.707,6.174,0.062c0.956-1.239,2.526-1.982,3.85-2.827
		c1.242-0.793,2.642-1.478,3.878-2.328c0.99-0.68,1.556-1.756,3.009-1.88c2.57-3.869,4.624-7.344,8.969-9.462
		c2.379-1.16,4.925-1.2,6.747,0.913c0.162-0.002,1.219-2.164,1.443-2.502c1.093-1.649,5.141-5.956,1.101-6.996
		c-3.164-0.815-7.827,4.022-9.79,6.206c-0.766,0.852-2.459,3.426-3.098,3.861c-0.587,0.4-1.04,0.318-1.631,0.626
		c-1.526,0.794-3.397,2.875-4.874,3.965c-2.032,1.499-4.398,2.766-6.423,4.256c-1.059,0.779-0.456,1.366-0.719,2.434
		c-0.573-0.255-0.817,0.159-1.302,0.378c-0.157-0.597-0.421-1.456-0.782-1.947c-2.021-2.754-5.253-3.526-8.404-4.393
		c-0.251-0.069-0.494,0.05-0.396-0.322c0.258-0.982,1.836-1.358,2.724-1.432c0.376-0.031,0.738,0.212,1.081,0.162
		c0.321-0.047,4.685-3.247,5.298-3.733c2.457-1.95,4.59-4.176,7.245-5.92l5.27-7.706c-1.661-0.735-3.573-0.116-5.03,0.8
		c-4.73,2.977-8.885,7.993-13.42,11.216c-1.317,0.936-5.287,2.741-5.978,3.99c-0.306,0.553-0.42,1.435-0.744,2.077
		c-0.527,1.04-2.145,2.95-3.039,3.731c-0.33,0.289-1.599,1.005-1.655,1.086c-0.087,0.126,0.002,0.434-0.054,0.486
		c-0.097,0.088-0.67-0.023-0.97,0.073c-0.54,0.172-1.202,0.645-1.784,0.85c-1.018,0.359-2.224,0.376-3.06,1.077
		c4.031,1.269,8.273,2.466,11.099,5.824c0.506,0.601,1.138,1.191,0.083,1.615c-0.656,0.105-2.443-1.356-3.158-1.736
		c-6.886-3.664-12.858-4.02-20.316-5.26c-2.122-0.353-4.237-0.793-6.326-1.292l0.082-0.573c1.206-0.517,2.575-0.338,3.867-0.366
		c-0.332-0.576,0.122-0.907,0.412-1.373c0.33-0.528,1.8-2.437,2.219-1.168l-2.256,2.54c2.761,0.592,4.062-1.824,6.298-2.822
		c0.28-0.041,0.339,0.001,0.287,0.287c-0.146,0.812-2.103,1.78-2.733,2.347c-0.384,0.515,2.308,0.47,2.726,0.28
		c0.329-0.149,1.817-1.75,2.359-2.154c0.417-0.311,1.539-1.431,1.779-0.478l-2.631,2.54c0.862-0.083,1.961,0.189,2.773-0.14
		c0.497-0.201,1.888-1.736,2.506-2.201c0.205-0.155,0.468-0.204,0.683-0.35c0.209-0.141,0.557-1.162,0.996-0.035l-2.255,1.791
		c-0.043,0.349,0.383,0.148,0.572,0.102c1.76-0.425,2.899-1.162,4.097-2.487c0.605-0.669,0.903-1.941,1.911-1.754l-0.282,1.691
		c0.973-1.141,2.701-2.121,2.726-3.76c-0.422,0.3-0.808,0.635-1.258,0.903c-1.31,0.779-4.57,2.217-5.804,0.989
		c-0.763-0.759-1.919-4.348-1.399-5.463c-0.19-0.133-3.954,0.525-4.609,0.561c-5.203,0.282-10.249-1.602-15.134-3.105
		c-7.895-2.428-11.723-0.742-17.683,4.515c-4.197,3.701-5.102,8.049-7.548,12.763c-4.589,8.843-12.75,16.892-18.958,24.672
		l-1.797,1.212c-0.421,0.131,0.172-2.328,0.094-2.443l-0.561-0.092c0.915-0.988,1.584-2.163,2.448-3.195
		c4.474-5.341,8.925-10.313,12.889-16.26c6.441-9.663,5.706-18.362,18.227-23.335c4.354-1.729,8.152-1.962,12.766-1.288
		c5.522,0.806,10.234,3.782,16.009,3.546c3.897-0.16,8.822-2.186,12.612-0.948c1.21,0.395,1.818,0.975,2.497,2.017
		c0.229,0.352,0.453,1.473,0.875,1.377c0.15-0.034,1.983-1.684,2.367-1.96c4.695-3.384,8.971-6.796,13.246-10.638
		c0.837-0.753,5.249-3.357,6.251-3.528c2.176-0.373,3.722,0.337,5.571,1.287c1.79-2.716,6.522-4.41,9.322-2.354
		c0.671,0.493,1.199,1.433,1.313,2.261c0.131,0.954-0.135,1.838-0.132,2.665c0.001,0.238,0.064,0.273,0.239,0.414
		c4.624-1.876,8.494,2.413,6.28,6.849c-0.841,1.684-2.347,4.194-3.473,5.742c-0.351,0.482-1.748,1.831-1.861,2.088
		c-0.34,0.768-0.356,2.947-0.807,4.082c-0.611,1.534-3.616,5.399-4.797,6.769c-8.78,10.185-24.07,20.96-38.031,21.867
		c-9.318,0.606-19.149-1.82-28.403-1.322c-1.243,0.067-3.428,0.44-4.466,1.128c-0.243,0.161-0.547,0.834-0.812,1.118
		c-2.639,2.825-4.443,6.558-6.432,9.929c-1.792,3.036-3.037,6.214-4.706,9.211c-0.654,1.175-1.546,2.228-2.217,3.399l-1.577,0.046
		l0.186-0.751l-0.657,0.563l-0.114-0.342l-0.542,0.155l1.44-3.108c-0.579-0.867-3.912-4.334-2.389-5.268l0.58-0.001
		c0.277,1.538,1.717,2.506,2.063,4.051c0.353,0.258,1.343-1.419,1.206-1.883c-0.031-0.106-0.933-1.761-1.052-1.941
		c-0.748-1.138-3.383-2.987-1.19-4.084c0.539-0.004,0.585,1.034,0.81,1.455c0.633,1.186,1.558,2.212,2.106,3.445
		c0.298,0.202,1.609-2.425,1.428-3.012c-0.114-0.37-1.243-1.51-1.584-2.006c-0.809-1.176-2.24-2.856-0.693-4.005
		c0.419,0.262,0.186,0.734,0.335,1.077c0.025,0.057,0.253,0.077,0.315,0.189c0.722,1.31,1.436,2.621,2.359,3.805
		c0.249-0.773,1.546-2.236,1.272-2.944c-0.396-1.023-3.139-4.217-3.027-5c0.084-0.584,0.54-0.802,1.095-0.703
		c0.335,1.66,1.983,3.081,2.918,4.513c0.168-0.558,0.722-1.03,0.894-1.559c0.044-0.137,0.125-0.251,0.125-0.415
		c0.001-0.609-2.632-3.662-3.103-4.41l0.11-1.324c0.562-0.098,0.888,0.4,1.222,0.749c0.934,0.975,1.74,2.349,2.633,3.386
		l1.396-1.623c0.057-0.334-2.476-3.411-2.705-4.025c-0.169-0.454-0.218-0.981,0.172-1.329c0.18-0.212,0.454-0.069,0.611,0.078
		c0.399,0.374,2.315,3.879,2.594,3.888l1.602-2.35l-1.694-2.256l0.376-0.369l-0.378-0.66c0.839-0.871,2.025,2.462,2.754,2.601
		l1.49-0.715l-1.436-4.02c0.966-0.267,0.9-1.176,1.134-1.492c0.442-0.597,4.64-4.815,4.994-4.8l0.465,0.431l-6.015,6.116
		l1.884,3.108l2.442-0.293c0.058-0.565-0.457-0.918-0.526-1.452c-0.063-0.49,0.48-1.235-0.602-0.803
		c-0.043-0.31,0.064-0.559,0.212-0.821c0.324-0.57,4.558-4.776,5.236-5.295c0.449-0.344,1.107-0.866,1.32,0.002
		c-1.524,1.221-2.766,2.975-4.135,4.351c-0.211,0.212-0.472,0.103-0.517,0.145c-0.221,0.209-1.104,1.186-1.155,1.372
		c-0.155,0.565,0.411,0.535,0.623,0.823c0.198,0.269,0.779,1.436,0.991,1.494c0.687,0.19,1.558-0.2,2.218-0.206
		c0.549-0.005,1.329,0.369,1.859,0.216c0.18-0.052,0.131-0.47,0.296-0.67c0.65-0.789,1.588-1.138,2.353-1.792
		c0.728-0.622,4.461-4.255,5.079-4.132l0.197,0.569l-6.304,5.921c0.853,0.394,2.585,0.728,3.426,0.277
		c0.261-0.14,0.945-1.265,1.27-1.599c0.956-0.981,3.161-3.247,4.134-3.953c0.341-0.247,0.701-0.448,1.135-0.461
		c0.082,0.379-0.084,0.503-0.272,0.76c-1.046,1.428-2.81,2.616-3.961,3.938c-0.346,0.398-0.878,1.006-1.032,1.507H67.194z
		 M122.162,66.222c-1.764-0.618-2.899,0.014-4.345,0.934c-2.072,1.319-4.555,3.833-6.035,5.813
		c-0.516,0.691-3.034,4.174-3.202,4.677c-0.099,0.296,0.281,0.767-0.099,1.047c-0.441,0.357-1.021,0.185-1.502,0.38
		c-1.88,0.759-4.088,3.43-5.666,4.677c-1.551,1.225-3.647,2.188-5.249,3.4l3.666,3.096c2.028-1.763,4.278-3.231,6.389-4.887
		c5.343-4.19,10.409-8.331,14.645-13.658c0.118-0.149,0.416-0.212,0.585-0.444C121.908,70.489,122.94,66.78,122.162,66.222z
		 M83.403,80.912c-0.191-0.175-0.726-0.387-0.988-0.424c-1.747-0.245-5.029,0.404-6.766,0.923c-0.211,0.063-0.333-0.125-0.272,0.285
		c1.085,0.371,1.685,4.484,2.152,4.555c2.166-0.552,6.818-1.516,6.297-4.543C83.787,81.485,83.567,81.062,83.403,80.912z"/>
	<path d="M54.877,112.258c-0.039-0.261,0.032-0.471,0.142-0.702c0.244-0.509,4.986-5.237,5.683-5.788
		c0.581-0.46,1.249-0.813,1.049,0.297c-0.975,0.239-1.16,1.26-1.8,1.961c-0.234,0.257-0.593,0.389-0.85,0.655
		c-0.836,0.865-2.301,2.632-3.108,3.286C55.661,112.236,55.291,112.293,54.877,112.258z"/>
	<path d="M49.422,104.549c0.038,0.537-0.501,0.776-0.942,0.753l0.169,0.532c-0.514,0.476-1.499,1.281-1.861,1.816
		c-0.291,0.43-0.332,0.989-0.67,1.399c-0.323,0.391-1.931,1.748-1.74,0.521c0.061-0.39,3.538-4.547,4.035-4.808
		C48.749,104.583,49.037,104.501,49.422,104.549z"/>
	<path d="M45.603,106.019c-0.017,0.037-0.215,0.033-0.236,0.081c-0.51,1.14-0.759,0.99-1.758,1.577
		c-0.262,0.154-0.161,0.54-0.955,0.445c-0.272-0.47,2.278-2.91,2.721-2.821C45.64,105.498,45.762,105.68,45.603,106.019z"/>
	<path d="M60.893,88.94c0.569,0.595-1.486,1.619-1.867,1.986c-0.369,0.355-0.335,1.191-1.328,1.021l1.128-1.785
		C59.076,89.769,60.498,88.527,60.893,88.94z"/>
	<path d="M57.509,89.317c-0.409,0.719-1.772,0.593-1.694,1.691l-0.562-0.191C55.613,90.371,56.922,88.64,57.509,89.317z"/>
	<path d="M83.845,20.477c0.525,0.095,1.076-0.16,1.579-0.138c5.825,0.255,11.664,0.505,17.501,0.9
		c0.623,0.042,1.885,0.114,2.407,0.226c1.778,0.383,0.625,1.863-0.143,2.598c-3.494,3.344-7.214,6.492-10.821,9.678
		c-1.01,0.892-2.033,1.914-2.948,2.735c-0.272,0.244-1.687,1.266-1.737,1.434c0.48,1.171,0.509,2.442,0.83,3.639
		c1.229,4.585,3.746,10.924,4.041,15.516c0.218,3.39-1.108,2.623-3.646,1.954c-5.411-3.239-10.493-6.862-16.158-9.721
		c-1.797,1.395-3.827,2.431-5.719,3.677c-2.539,1.673-5.087,3.31-7.634,4.967c-1.019,0.663-3.508,3.21-4.635,2.692
		c-0.928-0.427-0.186-0.901-0.174-1.512c0.007-0.337-0.353-0.24-0.392-0.4c-0.401-1.651,2.085-10.335,2.577-12.624
		c0.479-2.228,0.494-4.624,1.503-6.715c-1.437-1.418-2.938-2.809-4.458-4.137c-3.22-2.814-6.395-5.79-9.692-8.55
		c-0.544-0.455-2.071-1.115-2.123-1.824c-0.01-0.136,0.376-0.963,0.236-1.379c0.394-0.678,7.982-1.384,9.228-1.501
		c3.939-0.371,8.153-0.323,12.022-0.955c0.246-0.04,0.477-0.106,0.673-0.267c0.494-1.046,0.663-2.209,1.033-3.293
		c1.474-4.327,2.816-8.812,4.574-13.104c0.329-0.805,0.893-2.536,1.376-3.138c0.848-1.058,1.626-0.148,2.586,0.17
		c0.826,1.799,1.308,3.874,2.051,5.673c1.173,2.838,2.675,5.966,4.014,8.774C82.528,17.386,83.649,18.802,83.845,20.477z
		 M81.333,22.989c-0.145-0.114-0.431-0.101-0.6-0.239c-0.358-0.292-1.407-3.663-1.752-4.462c-1.094-2.533-2.405-5.053-3.335-7.572
		l-1.585-3.771l-6.023,17.214l-18.24,1.405l5.548,5.076c2.981,2.123,5.982,4.301,8.714,6.713
		c-1.599,5.872-2.323,11.981-4.294,17.733l15.601-9.879c1.145-0.386,0.828,0.206,1.414,0.67c1.848,1.466,4.846,3.413,6.886,4.774
		c2.33,1.554,4.858,2.784,7.128,4.436l-4.662-18.296l13.501-12.355c-1.329-0.032-2.718-0.312-4.034-0.386
		c-3.591-0.204-7.174-0.096-10.71-0.196c-0.518-0.015-1.089-0.371-1.711-0.376c-0.397-0.003-0.813,0.236-1.125,0.206
		C81.522,23.632,81.574,23.179,81.333,22.989z"/>
</g>
</svg>
