<?xml version="1.0" encoding="iso-8859-1"?>
<!-- Generator: Adobe Illustrator 29.5.1, SVG Export Plug-In . SVG Version: 9.03 Build 0)  -->
<svg version="1.1" id="Ebene_1" xmlns="http://www.w3.org/2000/svg" xmlns:xlink="http://www.w3.org/1999/xlink" x="0px" y="0px"
	 viewBox="0 0 141.732 141.732" style="enable-background:new 0 0 141.732 141.732;" xml:space="preserve">
<g>
	<path d="M13.213,108.673c-0.077-0.115,0.003-0.557,0.086-0.72c3.708-2.067,7.819-3.433,11.639-5.355
		c1.738-0.874,3.593-1.869,5.249-2.886c2.32-1.425,4.44-3.222,6.768-4.566l0.4,0.336c0.153,0.3-0.283,0.751-0.47,0.987
		c-3.604,4.552-15.952,10.585-21.607,12.017C14.946,108.57,13.376,108.916,13.213,108.673z"/>
	<path d="M60.175,36.601c3.972-0.373,7.929,0.824,11.49,2.502c8.568,4.038,16.123,9.994,25.122,13.926
		c5.715,2.497,17.917,5.901,21.529,10.65c2.466,3.242,1.167,10.99,1.003,15.071c-0.097,2.431,0.367,4.923-0.449,7.326
		c-1.43,4.214-8.173,7.671-11.714,10.16c-10.15,7.137-16.587,19.51-31.101,13.138c-9.084-3.988-16.81-13.269-25.99-18.301
		c-7.063-3.872-23.442-5.766-24.381-15.209c-0.362-3.64-0.132-8.363-0.175-12.118c-0.018-1.61-0.493-3.102,0.084-4.782
		c1.399-4.075,9.786-7.443,13.408-9.551C45.228,45.788,53.218,37.253,60.175,36.601z M67.881,83.111
		c5.867,4.478,11.251,8.958,19.175,8.21c4.774-0.451,6.732-3.473,10.032-6.238c5.775-4.838,12.976-7.636,17.993-13.463
		c1.466-1.702,2.596-3.427,1.771-5.753c-1.347-3.803-11.067-6.401-14.696-7.901c-6.164-2.548-12.179-5.339-18.022-8.553
		c-6.633-3.649-15.505-10.568-23.286-9.971c-6.277,0.482-12.903,7.381-18.186,10.738c-3.814,2.424-11.347,5.353-13.9,8.697
		c-2.411,3.158,2.128,5.966,4.631,7.111c5.724,2.618,12.386,3.765,18.265,6.321C57.983,75.059,62.529,79.026,67.881,83.111z
		 M117.155,72.702c-3.933,5.399-9.955,8.035-15.164,11.86c-4.876,3.581-9.178,9.098-15.479,9.649
		C73.78,95.326,64.029,81.925,53.527,76.223c-6.448-3.501-13.292-4.673-19.887-7.411c-1.988-0.825-3.878-1.828-5.424-3.342
		c-0.225,2.401,0.229,4.761,0.367,7.133c0.195,3.346-0.688,5.178,2.256,7.686c4.159,3.543,14.422,5.291,19.98,8.041
		c9.389,4.645,15.912,12.98,24.695,17.607c13.152,6.928,19.178-4.003,28.388-10.605c2.933-2.103,11.04-6.658,12.295-9.76
		c0.332-0.821,0.418-1.794,0.595-2.659L117.155,72.702z"/>
	<path d="M20.92,89.451c-1.54,1.498-3.058,3.288-3.724,5.406c-0.321,1.021-0.574,5.056-1.403,5.296
		c-1.795,0.52-1.332-2.464-1.545-3.633c-0.865-4.742-3.813-8.088-8.222-9.855c-0.643-0.258-3.333-0.867-3.458-1.249
		c-0.475-1.449,2.542-2.002,3.475-2.436c3.52-1.638,6.979-5.3,7.836-9.157c0.27-1.217,0.436-5.084,0.952-5.736
		c0.358-0.452,0.765-0.487,1.183-0.09c0.694,0.66,0.515,3.647,0.653,4.772c0.589,4.803,2.897,8.076,7.266,10.089
		c0.854,0.393,3.64,1.089,3.9,2.083c0.274,1.052-2.788,1.631-3.451,1.916C22.905,87.492,22.014,88.386,20.92,89.451z M15.377,76.86
		c-0.486-0.057-0.283,0.021-0.361,0.268c-1.027,3.257-3.707,6.215-6.868,7.508c-0.077,0.084-0.024,0.249,0.113,0.374
		c0.369,0.335,1.394,0.727,1.931,1.103c2.166,1.515,4.258,3.609,4.826,6.293c0.919-0.773,1.166-2.064,1.912-3.057
		c1.482-1.972,3.496-3.352,5.678-4.446C19.1,83.596,16.287,80.496,15.377,76.86z"/>
	<path d="M114.67,50.509c0.74-0.679,2.751,0.261,3.565,0.595c6.593,2.707,11.941,7.756,13.48,14.902
		c0.838,3.894,0.832,10.563-1.753,13.807c-0.489,0.613-1.496,1.055-1.597,0.026c-0.072-0.731,1.073-3.242,1.247-4.353
		c1.047-6.676-0.551-13.597-5.583-18.243c-2.864-2.644-6.414-4.127-9.54-6.321C114.538,50.796,114.579,50.594,114.67,50.509z"/>
	<path d="M50.042,100.22c2.121-0.18,0.136,1.871-0.492,2.586c-4.447,5.06-12.268,10.113-18.26,13.196
		c-2.534,1.304-9.086,4.403-11.708,4.562c-0.29,0.018-1.229-0.134-1.31-0.416c-0.055-0.23,0.036-0.373,0.166-0.548
		c0.322-0.431,3.676-1.502,4.473-1.854C32.962,113.307,41.689,107.292,50.042,100.22z"/>
	<path d="M62.147,111.964l0.786,0.047c0.631,0.434-0.704,2.178-1.02,2.616c-3.792,5.258-11.681,11.268-17.308,14.509
		c-1.097,0.632-5.179,2.934-6.179,2.877c-1.845-0.104-0.127-1.457,0.47-1.897c2.349-1.732,5.398-3.225,7.887-4.948
		C52.361,121.308,57.354,116.743,62.147,111.964z"/>
	<path d="M130.289,51.572c0.583-0.185,1.499,0.504,2.005,0.841c3.803,2.531,6.702,8.463,6.914,12.97
		c0.051,1.075-0.158,4.425-1.586,2.492c0.02-6.191-3.079-11.865-7.629-15.874L130.289,51.572z"/>
	<path d="M74.7,78.281c-0.841-1.966,1.361-1.908,2.297-0.764C76.761,78.84,75.673,78.289,74.7,78.281z"/>
	<path d="M44.988,63.695c1.106-0.044,1.462,1.453-0.623,1.581C42.97,65.362,43.38,63.76,44.988,63.695z"/>
	<path d="M80.503,83.05c0.576-0.355,1.653-0.406,1.769,0.42C82.51,85.174,79.478,84.684,80.503,83.05z"/>
	<path d="M56.096,46.269c-0.877-0.63,1.311-2.134,1.86-1.046C58.487,46.274,56.714,46.713,56.096,46.269z"/>
	<path d="M90.361,79.899c-0.021,0.043-0.516,0.183-0.404,0.76l-0.212,0.162c-0.839,0.054-1.52-0.105-1.23-1.058
		C88.855,78.644,90.644,79.31,90.361,79.899z"/>
	<path d="M50.314,50.06c-0.872-0.865,1.051-2.221,1.631-0.804C52.263,50.031,50.883,50.623,50.314,50.06z"/>
	<path d="M109.15,71.47c1.254-0.375,1.252,0.995,0.187,1.456C107.823,73.581,108.168,71.764,109.15,71.47z"/>
	<path d="M93.965,74.903c0.723-0.215,1.643,0.507,1.15,1.155C94.178,77.289,92.664,75.29,93.965,74.903z"/>
	<path d="M101.551,75.071c1.401-0.467,1.622,2.054,0.051,1.534C100.714,76.311,100.934,75.276,101.551,75.071z"/>
	<path d="M62.679,44.179c0.255-0.024,0.521,0.149,0.702,0.319l-0.002,0.728C61.844,46.579,61.215,44.315,62.679,44.179z"/>
	<path d="M106.13,68.905c-0.252-0.859,0.992-2.374,1.418-1.025C107.293,68.5,106.869,69.035,106.13,68.905z"/>
	<path d="M59.832,49.726c-0.469,0.176-1.311,0.476-1.425-0.249c0.293-0.338,0.641-0.791,1.152-0.625L59.832,49.726z"/>
	<path d="M103.929,93.276c-0.201,0.115-0.653,0.06-0.796-0.135c-0.171-0.254-0.051-0.481,0.008-0.736
		c0.283-1.222,3.025-7.273,3.817-8.119c0.142-0.152,0.261-0.433,0.525-0.376c0.595,0.129-0.219,2.096-0.366,2.523
		C106.838,87.24,104.257,93.088,103.929,93.276z"/>
	<path d="M113.899,80.477c0.321,0.713,0.101,1.093-0.147,1.748c-0.529,1.398-2.288,5.119-3.069,6.33
		c-0.133,0.206-0.34,0.642-0.646,0.588c-0.169-0.111-0.396-0.283-0.446-0.479c-0.097-0.382,1.608-4.391,1.929-5.056
		c0.31-0.642,1.206-2.451,1.655-2.864C113.415,80.521,113.542,80.408,113.899,80.477z"/>
	<path d="M96.185,93.312c0.306,0.286-2.264,7.168-2.626,7.947c-0.268,0.576-0.403,1.305-1.168,1.272
		c-0.072-0.498-0.086-0.834,0.007-1.331c0.291-1.548,1.253-4.238,1.893-5.716C94.663,94.623,95.079,93.118,96.185,93.312z"/>
	<path d="M91.303,96.384l0.151,0.771c-0.873,1.859-1.413,3.85-2.234,5.731c-0.218,0.499-1.157,3.034-1.799,2.897
		c-0.246-0.169-0.284-0.339-0.285-0.626c-0.002-0.609,0.955-2.929,1.245-3.653C88.54,101.107,90.794,95.983,91.303,96.384z"/>
	<path d="M101.608,88.792c0.064,0.261,0.106,0.404,0.059,0.679c-0.113,0.661-3.055,7.438-3.417,7.801
		c-0.166,0.166-0.395,0.299-0.615,0.377c-0.512-0.687,2.18-6.545,2.741-7.471C100.514,89.949,101.354,88.596,101.608,88.792z"/>
	<path d="M86.423,98.193c0.052,0.256,0.12,0.409,0.062,0.682c-0.165,0.778-2.756,5.263-3.341,5.889
		c-0.457,0.489-1.094,0.765-1.054-0.134c0.024-0.541,2.338-4.512,2.81-5.16C85.079,99.224,86.098,97.955,86.423,98.193z"/>
	<path d="M34.361,80.655c-0.199-0.291,0.772-1.351,1.012-1.607c0.845-0.9,2.388-2.401,3.324-3.184
		c0.266-0.223,1.633-1.445,1.81-0.717c0.149,0.613-2.85,3.454-3.433,3.976C36.673,79.482,34.797,81.293,34.361,80.655z"/>
	<path d="M33.17,75.67c0.437-0.503,3.294-3.514,3.629-3.517c0.167-0.001,0.427,0.151,0.454,0.281
		c0.145,0.713-3.765,4.409-4.42,5.158l-0.717,0.162l-0.265-0.414C31.876,77.063,32.899,75.982,33.17,75.67z"/>
	<path d="M43.941,77.946c0.046,0.513-0.338,0.902-0.63,1.266c-0.452,0.564-3.081,3.039-3.632,3.072
		c-0.222,0.013-0.571-0.062-0.617-0.275C38.993,81.693,43.332,77.358,43.941,77.946z"/>
	<path d="M81.454,98.196c0.189,0.01,0.295,0.36,0.236,0.591c-0.078,0.308-2.418,3.597-2.761,3.931
		c-0.435,0.423-1.294,0.899-1.15-0.057C77.891,101.908,80.83,98.165,81.454,98.196z"/>
	<path d="M34.179,70.173c-0.164,0.338-0.313,0.689-0.542,0.993c-0.304,0.402-3.239,3.459-3.484,3.568
		c-0.708,0.314-0.72-0.098-0.461-0.643C30.08,73.279,33.294,69.511,34.179,70.173z"/>
	<path d="M46.239,79.962c0.337-0.049,0.572,0.024,0.594,0.42c-0.96,0.664-2.198,3.131-3.43,1.992
		C43.405,82.187,45.87,80.017,46.239,79.962z"/>
	<path d="M85.461,9.814c1.709-0.57,1.235,1.556,1.327,2.415c0.557,5.176,1.752,8.769,6.799,11.098
		c1.159,0.535,3.692,0.897,4.481,1.484c0.273,0.203,0.358,0.483,0.396,0.801c-0.055,1.148-3.378,1.732-4.313,2.119
		c-4.636,1.917-7.022,7.107-7.465,11.878c-2.163,1.996-2.044-1.958-2.33-3.253c-0.986-4.46-4.334-7.63-8.503-9.213
		c-0.692-0.263-2.568-0.45-2.633-1.181c-0.102-1.152,2.775-1.499,3.569-1.854c3.189-1.426,5.865-4.801,6.931-8.074
		C84.06,14.987,84.802,10.034,85.461,9.814z M87.947,21.827l-2.424-3.9c-1.184,3.333-3.746,6.38-7.051,7.774l3.157,1.992
		c1.676,1.553,3.259,3.349,3.894,5.598c0.141,0.106,1.137-2.313,1.299-2.585c1.321-2.217,3.661-4.172,6.109-5.009
		c-0.26-0.397-0.935-0.469-1.359-0.716C90.288,24.23,88.876,22.982,87.947,21.827z"/>
</g>
</svg>
