<?xml version="1.0" encoding="iso-8859-1"?>
<!-- Generator: Adobe Illustrator 29.5.1, SVG Export Plug-In . SVG Version: 9.03 Build 0)  -->
<svg version="1.1" id="Ebene_1" xmlns="http://www.w3.org/2000/svg" xmlns:xlink="http://www.w3.org/1999/xlink" x="0px" y="0px"
	 viewBox="0 0 141.732 141.732" style="enable-background:new 0 0 141.732 141.732;" xml:space="preserve">
<g>
	<path d="M132.962,29.23l2.33-1.976c1.917,1.43-5.838,9.34-6.616,11.799c-2.837,4.505-5.112,9.849-8.665,13.751
		c-0.79,0.473-1.018-0.124-1.567-0.157c-0.473-0.029-0.999,0.41-1.494,0.101c-1.768-3.488-4.638-9.246-6.6-12.909
		c1.461-0.715,2.113,0.922,3.199,1.598c-0.206-1.14-1.967-2.338-1.071-3.419l1.934,0.196c1.473,2.653,2.767,6.895,5.139,8.625
		C119.732,45.16,137.34,17.26,132.962,29.23z M120.556,48.44c1.271-1.363,4.401-6.735,5.399-8.404
		C124.107,41.918,121.972,46.171,120.556,48.44z"/>
	<path d="M96.065,2.099c2.61,1.455,7.164-1.827,8.067,2.832c0.067,19.87-1.06,39.999-0.786,59.918
		c29.261-2.074,36.159,11.54,31.211,38.519c-0.171,13.407-13.368,21.606-25.337,23.508c-1.321-0.116-0.76-1.035-0.474-1.793
		c-2.783,1.844,0.399-23.112-0.178-23.491c0.084-0.354,0.632-0.239,0.738-0.362c0.147-0.171-0.04-0.905,0.449-1.053l10.08-3.696
		l0.116-0.409c-4.972-3.284-11.117-4.19-17.009-4.007L102.931,136c-0.115,0.564,0.669,1.173,0.371,1.649
		c-1.097,0.238-0.043,1.76-1.756,1.037c0.513,2.72-4.488,1.131-6.113,1.41c-26.543-0.857-53.267-0.132-79.737,0.295
		c-0.902-3.18-0.652-0.594-1.945-2.031c-0.438-0.335,0.772-25.552-0.551-25.287c-1.818-0.423-9.126,0.526-6.726-2.889
		c-0.451-6.877-0.406-14.337-0.177-21.169c1.139-0.514,0.683-1.354,0.597-2.355c2.284-0.378,4.512,0.087,6.805,0
		c-0.099-27.29,0.468-55.124-0.903-82.246c0.105-0.213,0.825-0.612,1.109-0.892c0.628-0.618,1.018-1.752,1.992-0.907
		c0.015-0.697,0.216-0.918,0.894-1.009c9.86,0.25,19.751,0.297,29.633,0.201C62.86,2.351,79.761-0.327,96.065,2.099z M80.933,2.616
		c0.955-0.064,8.971,0.254,9.604-0.398C88.359,2.177,83.016,2.151,80.933,2.616z M65.924,2.818
		c-3.533-0.112-6.979,0.072-10.509,0.197c-0.402,0.024-0.578-0.154-0.494,0.401C58.391,2.653,62.689,3.637,65.924,2.818z
		 M43.112,4.219c-7.619,0.174-15.244-0.613-22.813,0.298l22.116-0.1L43.112,4.219z M72.135,4.33l-0.008,0.402l14.4,0.289
		l0.008-0.402L72.135,4.33z M100.144,4.618c-4.388-0.49-8.807,0.015-13.21,0.099c3.666,0.231,7.467,0.585,11.108,0.141
		C98.161,4.855,101.008,5.306,100.144,4.618z M18.9,4.619l-2.603,0.3c0.011,0.832,1.448,0.36,1.596,0.505
		c-0.515,27.113,0.047,54.52-0.165,81.608c29.537,3.788,53.92-18.229,82.206-21.393l0.209-59.421C75,6.273,49.778,4.725,24.605,5.42
		C23.126,5.282,17.908,7.432,18.9,4.619z M16.099,7.418v9.405c0.571-1.507,0.26-4.105,0.415-5.904
		C16.378,9.924,16.756,8.048,16.099,7.418z M102.342,22.625c0.07-4.125,0.413-8.268,0.102-12.408
		C102.111,14.261,101.896,18.559,102.342,22.625z M14.698,23.227c0.169,0.231-0.424,8.087,0.398,7.804
		C14.996,28.541,15.15,25.699,14.698,23.227z M101.542,64.648c0.303-8.615,0.132-17.213-0.098-25.815
		C101.462,47.324,100.952,56.443,101.542,64.648z M14.896,77.654c-0.038-7.883,0.165-15.791-0.298-23.613
		C14.634,57.075,14.246,75.107,14.896,77.654z M104.546,66.049h9.405c-2.642-0.532-5.647-0.457-8.302-0.398
		C105.404,65.672,104.576,65.726,104.546,66.049z M103.544,67.651c-4.302,0.208-8.712,0.583-12.805,1.998
		c3.978-0.803,8.041-1.146,12.09-1.419C103.187,68.189,103.691,68.126,103.544,67.651z M115.55,68.252
		c-3.451-0.449-6.916-0.72-10.403-0.601l0.296,0.4C108.83,67.592,112.229,68.441,115.55,68.252z M121.353,69.453l-5.201-1.001
		C116.941,68.627,120.602,69.911,121.353,69.453z M52.718,91.163v-5.903l-8.004,2.401c-0.246,0.815,0.847,5.621-1.312,4.213
		c-0.356-0.524-0.121-3.551-0.613-3.627c-2.989,0.768-5.969,1.67-9.082,1.814l0.173,6.275c-2.14,1.796-1.46-5.093-1.572-6.075
		l-7.604,0.8v3.202c-1.989,0.762-1.475-1.99-1.201-3.202h-7.904c-0.074,0-0.293-0.278-0.499-0.2
		c-0.317,0.859,0.64,3.943-0.693,3.809c-1.217-0.122-0.534-3.59-0.923-4.596l-1.986-0.211c0.153,0.488,1.394,0.002,1.2,0.798H9.095
		l0.438,18.772c41.24,10.994,78.892-36.276,113.881-14.994c4.886-3.356,11.41-11.517,6.625-17.365
		c-1.237-2.443-1.676,1.957-2.369,2.396c-2.079,0.503-0.41-3.845,0.475-4.229l0.012-0.285c-1.486-1.427-3.29-2.373-5.103-3.302
		c-0.635,0.657-0.989,5.359-2.415,4.216c-0.688-1.501,0.721-3.494,1.117-5.017c-2.502-0.681-5-1.395-7.603-1.603l-0.787,4.517
		l-0.506,0.093l-0.662-0.531l0.554-4.277c-2.586-0.074-5.201-0.284-7.717,0.185c-0.289,1.19-0.068,6.481-0.683,7.12
		c-2.384,1.784-0.803-5.949-1.005-7.108l-5.202,0.403c0.545,4.098-1.887,4.482-1.605,0.198l-5.973,1.229l0.072,3.575
		c-1.497,1.839-1.952-2.339-1.501-3.201c-10.053,4.23-8.657-0.106-8.395,10.313c-0.087,0.647-0.562,1.195-1.214,0.798
		c-0.94-1.461-0.203-5.379-0.196-7.216c-0.041-0.279,0.116-0.341-0.293-0.291c-1.83,0.226-4.807,2.184-6.717,2.692
		c-0.905,1.093,1.095,5.41-1.296,4.109c-0.405-0.912-0.314-1.949-0.506-2.901c-0.05-0.247,0.149-0.358-0.293-0.304
		c-0.993,0.717-5.119,1.649-5.705,2.301c-0.782,0.87,1.541,3.877-1.377,3.482l-0.625-2.779l-8.178,3.025l0.244,6.531
		C54.445,91.86,52.839,91.531,52.718,91.163z M88.936,69.852c-1.821,0.441-5.32,1.764-7.001,2.599
		C83.928,71.568,87.692,71.216,88.936,69.852z M134.561,83.358c0.081-1.184,0.098-2.534-0.202-3.701l-0.198-0.001v4.302
		c0,0.155-0.344,0.575-0.198,0.9C134.164,85.126,134.539,83.562,134.561,83.358z M134.159,96.264l0.8-11.004l-0.596,2.102
		C134.857,90.278,133.459,93.571,134.159,96.264z M13.697,88.863c-1.481-0.244-2.964-0.135-4.4-0.601
		C9.014,89.271,13.016,89.025,13.697,88.863z M111.15,123.279c19.448-3.208,21.109-18.326,22.008-35.018
		c-4.454,7.896-12.393,12.148-20.921,14.396L111.15,123.279z M114.15,91.665c-3.647-0.81-7.471-1.603-11.203-1
		c1.453,0.634,3.964-0.106,5.698,0.201C110.391,90.774,112.749,92.311,114.15,91.665z M7.294,98.466v-7.004
		c-0.394,2.025-0.155,4.268-0.2,6.305C7.104,98.014,6.942,98.511,7.294,98.466z M99.942,91.664c-1.463-0.501-2.549,5.37-3.597,3.705
		c0.092-0.401,0.524-0.509,0.54-0.544c-0.328-0.607,0.907-2.346,0.855-2.762c-0.553,0.308-1.149,0.075-1.711,0.388
		c-0.583,0.079-2.781,5.233-3.076,3.33c0.192-1.716,2.682-4.032-0.828-2.231c-0.666,0.568-1.736,3.114-2.505,3.498
		c-1.201,0.069,0.611-2.059,0.618-2.784c0.072-0.234,0.22-0.302-0.196-0.196c-2.565,0.578-2.362,2.569-4.208,3.997
		c-0.554-0.9,0.857-1.895,0.803-2.799c-0.593,0.46-1.287,0.439-1.91,0.891c-0.731,0.381-2.715,4.346-2.716,2.689
		c1.983-4.75-1.934-0.06-3.18,1.22c-0.531-0.588,1.213-2.068,0.406-1.996c-16.479,5.163-32.146,15.821-50.128,15.708l-11.458,12.954
		c-0.252,3.146-0.086,6.311-0.153,9.555c25.108,0.492,57.074-0.116,82.445,0L99.942,91.664z M84.233,93.594L73.02,97.767
		l0.153,0.412l11.213-4.173L84.233,93.594z M101.576,98.061l-0.39,30.216l0.56,0.007l0.39-30.216L101.576,98.061z M7.494,98.666
		l-0.399,0.001c0.123,1.042,0.29,6.416,0.199,7.603h0.2V98.666z M109.867,102.866l-0.737,17.011l0.49,0.021l0.737-17.011
		L109.867,102.866z M17.5,122.379c-0.169,0.782,0.123,2.051,0,2.902c3.665-3.571,6.87-7.565,10.005-11.604l-2.8,0.299
		C22.788,117.081,19.632,119.533,17.5,122.379z M23.103,114.077c-1.779-0.792-4.192,3.217-5.214,4.089c0,0-0.587,2.713-0.587,2.713
		L23.103,114.077z M19.901,114.277c-0.483,0.071-1.85-0.194-2.114,0.185l-0.085,2.214L19.901,114.277z M15.499,126.481h-0.2v7.004
		h0.2V126.481z M75.93,137.489l-41.624,0.698C47.939,138.395,62.694,138.653,75.93,137.489z M24.303,138.487v0.2h5.403v-0.2H24.303z
		"/>
	<path d="M120.302,105.72c6.261-1.618,3.676,10.445-2,8.706C114.532,112.604,117.34,106.909,120.302,105.72z M120.006,107.924
		c-0.903,0.756-0.817,3.93-0.155,4.944C122.359,112.32,123.801,106.752,120.006,107.924z"/>
</g>
</svg>
