<?xml version="1.0" encoding="iso-8859-1"?>
<!-- Generator: Adobe Illustrator 29.5.1, SVG Export Plug-In . SVG Version: 9.03 Build 0)  -->
<svg version="1.1" id="Ebene_1" xmlns="http://www.w3.org/2000/svg" xmlns:xlink="http://www.w3.org/1999/xlink" x="0px" y="0px"
	 viewBox="0 0 141.732 141.732" style="enable-background:new 0 0 141.732 141.732;" xml:space="preserve">
<g>
	<path d="M23.12,49.529c2.987-6.024,14.754-17.788,18.277-6.065c0.408,5.072-9.381,15.73-13.159,18.981
		c-3.497,3.009-5.154,4.772-9.342,1.664C0.46,48.164,12.425,29.531,23.12,49.529z M15.197,46.81
		c-0.492,4.03,4.504,9.994,7.28,12.949c0,0,0.521,0.055,0.521,0.055c4.143-3.367,9.25-8.342,12.047-13.026
		c0.177-0.32,2.001-4.269,0.417-3.091c-4.601,2.738-8.994,15.659-15.023,12.223C19.491,54.909,15.72,46.757,15.197,46.81z"/>
	<path d="M132.983,44.346c1.365-0.697,6.154-4.493,6.886-1.482c0.678,2.791-4.026,3.04-4.72,4.136
		c0.654,2.321-1.779,4.024-3.413,1.886C95.239,71.67,61.195,98.288,26.866,124.212c-0.148,0.949-0.494,1.964-1.648,1.844
		c-1.557-0.107-6.119,0.81-4.116-2.025l-0.058-0.246C18.133,121.586-4.98,91.773,4.261,92.204
		c34.061-27.178,71.896-51.843,106.862-76.255c1.386-0.346,4.039-0.974,4.615,0.803C122.358,25.301,129.011,34.15,132.983,44.346z
		 M107.63,27.985c-2.198-2.515,5.757-5.341,6.005-6.503l-1.263-1.382C77.513,43.288,42.427,66.707,9.282,92.505
		c-0.503,0.428-2.523,2.091-2.57,2.562c4.244,9.569,10.044,19.347,17.639,26.736l0.372-0.003l2.073-1.522
		c-0.838-1.975-3.23-4.617-4.073-6.35c-0.423-1.389,1.746-2.706,2.963-1.624c1.397,1.243,2.691,4.252,3.88,5.793l2.375-1.987
		l-3.488-5.638c-0.431-1.557,1.605-2.703,2.819-1.67c1.159,0.985,2.554,3.921,3.317,5.311l2.995-2.177l-7.02-9.819
		c-0.83-1.738,1.694-2.76,2.898-1.761l6.89,9.577l1.826-1.596c-0.505-1.36-3.602-5.403-3.391-6.596
		c2.224-3.874,5.14,2.826,5.849,4.789l2.068-1.441l-3.694-6.519c-0.416-1.053,0.992-1.958,1.899-1.894
		c1.733,0.123,3.572,4.937,4.558,6.246l2.368-1.984c-0.883-1.177-6.68-5.532-1.965-6.538c1.077-0.02,3.59,3.872,4.717,4.544
		l1.966-1.952l-6.841-10.989c-0.671-1.402,1.25-2.598,2.456-2.079c2.641,2.563,5.035,7.729,7.023,10.99
		c0.092,0.934,2.208-1.356,2.577-1.489c1.147-0.598-3.402-4.579-3.717-6.093c-0.548-1.575,1.377-3.021,2.607-2.038
		c0.9,0.719,3.83,5.607,4.173,5.691l2.186-1.799c-0.001-0.456-2.708-3.522-2.964-4.456c-0.397-1.451,1.463-2.76,2.806-1.711
		c0.695,0.543,2.817,4.355,3.084,4.36l2.725-2.202l-5.294-9.824c-0.734-1.505,1.539-3.119,2.745-1.985l5.335,9.842l1.961-1.418
		c-0.971-1.886-4.579-5.222-1.947-6.898c2.016-1.05,3.491,3.892,4.34,5.101l1.75-1.234c0.054-0.637-2.608-4.007-2.767-4.787
		c1.063-4.825,4.738,0.683,5.279,2.982l2.451-1.608c-0.694-1.534-3.51-5.442-3.176-6.974c2.334-4.107,4.864,3.228,5.654,5.17
		c0.217,0.159,2.661-1.591,2.626-1.958l-7.41-10.607c-0.973-1.934,1.633-3.488,3.092-2.333c2.621,3.14,5.315,7.511,7.472,11.103
		l1.958-1.606c-0.501-1.137-6.726-7.946-0.999-6.931c1.051,0.606,3.46,5.091,3.778,5.117l3.312-2.379
		c-0.803-1.533-5.004-5.159-2.716-6.873c2.363-1.219,4.103,3.773,5.69,4.89l2.34-1.612l-3.132-5.191
		c-0.431-1.413,0.479-2.31,1.892-2.084c1.298,0.208,3.278,4.072,3.906,5.29c1.302-0.037,2.541-1.829,3.782-2.364
		c-2.61-2.79-4.977-6.451-7.29-9.58c-0.65-1.769,2.027-3.556,3.389-2.062c2.135,3.343,4.211,6.797,7.028,9.622l2.368-1.579
		l-2.986-5.162c-0.534-1.529,1.588-2.81,2.79-1.842c0.759,0.612,2.669,5.131,2.961,5.197l1.786-1.036
		c0.008-0.325-3.591-4.114-3.889-5.209c-0.474-1.742,1.325-2.985,2.74-1.792l3.901,5.385c0.215-0.442,3.564-1.565,2.601-2.407
		c-2.656-4.395-5.428-11.487-9.052-14.473c-1.449,1.253-5.616,6.264-6.866,2.224c0.048-1.593,3.908-3.926,5.057-4.981
		c-1.698-5.489-3.955,3.71-6.437,0.972c-1.314-1.727,2.51-3.523,3.58-4.485C115.5,20.547,110.08,30.478,107.63,27.985z
		 M90.893,32.594c-6.013,3.298-11.862,7.65-17.442,11.75C79.563,41.283,85.283,36.568,90.893,32.594z"/>
</g>
</svg>
