<?xml version="1.0" encoding="iso-8859-1"?>
<!-- Generator: Adobe Illustrator 29.5.1, SVG Export Plug-In . SVG Version: 9.03 Build 0)  -->
<svg version="1.1" id="Ebene_1" xmlns="http://www.w3.org/2000/svg" xmlns:xlink="http://www.w3.org/1999/xlink" x="0px" y="0px"
	 viewBox="0 0 141.732 141.732" style="enable-background:new 0 0 141.732 141.732;" xml:space="preserve">
<g>
	<path d="M111.836,107.052c0.495-0.046,1.7,0.669,2.134,1.002c3.185,2.45,6.357,7.097,9.454,9.852
		c0.767,0.591,1.88,2.437,2.949,1.803l9.754-9.93c1.231-0.913,1.809-1.151,2.925,0.069c0.773,0.845,0.121,1.76-0.486,2.56
		c-2.481,3.268-7.076,6.305-9.556,9.559c-0.188,0.247-0.476,0.52-0.467,0.861c0.011,0.398,2.112,2.25,2.554,2.737
		c0.817,0.9,1.625,1.963,2.455,2.844c1.708,1.813,4.672,4.191,5.966,6.147c1.188,1.796-1.114,3.382-2.643,2.264l-10.225-10.594
		c-0.272-0.259-0.644-0.516-1.038-0.475c-0.187,0.02-2.486,2.12-2.851,2.461c-2.499,2.333-4.992,5.464-7.571,7.57
		c-0.935,0.764-2.241,1.929-3.216,0.766c-1.214-1.45,0.274-2.626,1.229-3.699c2.735-3.07,6.99-6.245,9.377-9.359
		c0.194-0.253,0.448-0.466,0.431-0.827c-0.068-0.732-1.901-1.937-2.43-2.481c-2.44-2.508-5.123-5.284-7.47-7.861
		c-0.39-0.428-2.531-2.787-2.643-3.034C109.965,108.175,110.711,107.156,111.836,107.052z"/>
	<path d="M16.243,110.178c-0.487,0.37-1.268-0.048-1.707-0.353c-1.347-0.935-4.609-6.215-4.657-7.844
		c-0.029-0.969,0.713-1.232,1.558-0.979c0.789,0.236,1.388,2.043,1.804,2.737c0.545,0.909,3.511,5.199,3.402,5.786
		C16.624,109.632,16.336,110.107,16.243,110.178z"/>
	<path d="M12.374,35.805c-0.261-0.302-0.255-1.255-0.147-1.66c0.168-0.634,3.621-5.152,4.258-5.776
		c1.665-1.631,3.203-1.252,2.274,1.14c-1.709,1.443-3.092,4.846-4.629,6.158C13.704,36.029,12.758,36.249,12.374,35.805z"/>
	<path d="M82.638,4.726c1.001-0.051,5.441,0.99,6.446,1.404c1.027,0.423,2.053,1.415,0.731,2.26
		c-1.241,0.793-6.342-0.878-7.941-1.107C80.302,6.5,81.084,4.806,82.638,4.726z"/>
	<path d="M43.47,8.688c1.185,0.101,1.691,1.32,0.528,2.149c-0.818,0.582-5.279,2.499-6.313,2.772
		c-1.009,0.267-2.939,0.704-2.424-1.089c0.196-0.681,4.459-2.661,5.329-3.009C41.39,9.191,42.626,8.616,43.47,8.688z"/>
	<path d="M10.195,41.014c0.142,0.172,0.208,0.663,0.155,0.9c-1.32,2.228-1.814,6.03-3.264,8.079
		c-0.892,1.26-2.195,0.392-1.904-1.321c0.181-1.066,1.55-4.618,2.059-5.699c0.232-0.492,0.677-0.87,0.737-1.445l0.563,0.191
		C8.074,40.698,9.625,40.321,10.195,41.014z"/>
	<path d="M4.891,86.413c0.717-0.2,1.521,0.607,1.719,1.244c0.21,2.133,2.209,5.023,2.267,7.018c0.037,1.292-1.324,1.443-2.144,0.619
		c-0.621-0.623-1.762-4.164-2.034-5.174C4.461,89.238,3.68,86.751,4.891,86.413z"/>
	<path d="M5.091,56.15c0.287,0.286,0.256,1.154,0.233,1.559c-0.096,1.681-0.78,5.253-1.187,6.954
		c-0.059,0.248-0.227,0.904-0.371,1.048c-0.415,0.415-1.324,0.239-1.639-0.257c-0.579-0.911,0.157-5.466,0.444-6.709
		c0.099-0.428,0.71-2.362,0.907-2.592C3.752,55.836,4.79,55.85,5.091,56.15z"/>
	<path d="M59.592,6.652c-0.767,0.764-6.669,1.166-8.016,1.741c-1.82,0.012-0.917-2.367,0.367-2.672
		c1.98-0.242,4.347-1.009,6.29-1.099C59.659,4.556,60.695,5.555,59.592,6.652z"/>
	<path d="M29.118,16.398c1.15-0.262,2.177,0.394,1.582,1.583l-6.337,5.205c-1.327,0.589-2.089-0.605-1.246-1.812
		C23.676,20.572,28.318,16.58,29.118,16.398z"/>
	<path d="M136.251,66.36c0.734-0.154,1,0.084,1.278,0.723c0.326,0.75,0.344,2.799,0.297,3.696c-0.038,0.719-0.416,4.489-0.616,4.878
		c-0.244,0.473-1.328,0.714-1.685,0.243c-0.495-2.984-0.567-6.35,0.206-9.292C135.883,66.49,136.061,66.4,136.251,66.36z"/>
	<path d="M3.113,80.462c-0.93-1.028-1.333-5.973-1.204-7.427c0.148-1.667,1.531-1.988,2.43-0.709c0.204,1.933,0.24,3.892,0.42,5.826
		c0.064,0.688,0.587,1.761,0.202,2.286C4.515,81.048,3.588,80.987,3.113,80.462z"/>
	<path d="M130.76,96.254c0.487-0.072,1.086,0.621,1.154,1.057c0.145,0.934-3.457,7.566-4.269,7.786
		c-1.441,0.391-1.435-1.242-1.089-2.24c0.375-1.084,2.917-5.683,3.699-6.33C130.396,96.411,130.582,96.28,130.76,96.254z"/>
	<path d="M136.652,60.619c-1.1,0.432-1.95,0.009-2.338-1.109c-0.325-0.937-1.385-5.626-1.427-6.537
		c-0.023-0.501,0.021-1.108,0.513-1.391c0.999,0.033,1.506,0.119,1.913,1.061c0.41,0.949,0.997,3.764,1.188,4.887
		C136.592,58.061,136.813,60.364,136.652,60.619z"/>
	<path d="M21.725,114.655c0.833,1.547,3.881,3.64,4.584,4.973c0.335,0.635,0.338,1.315-0.366,1.671
		c-0.716,0.362-1.633-0.418-2.158-0.849c-0.653-0.536-4.056-3.729-4.278-4.238C18.738,114.451,20.393,113.563,21.725,114.655z"/>
	<path d="M132.759,90.682c-0.359-0.3-0.458-0.883-0.423-1.334c0.073-0.951,1.747-6.837,2.254-7.413
		c0.566-0.644,1.476-0.423,1.801,0.291c0.395,0.87-0.804,4.741-1.176,5.821C134.928,88.88,134.099,91.801,132.759,90.682z"/>
	<path d="M125.452,33.526c-0.386,0.461-1.285,0.597-1.78,0.188l-4.187-5.179c-1.325-1.618-0.358-3.38,1.577-1.955
		c0.829,0.611,3.802,4.564,4.291,5.549C125.602,32.627,125.895,32.997,125.452,33.526z"/>
	<path d="M128.476,37.968c1.217-0.1,3.162,4.422,3.559,5.462c0.322,0.843,1.287,2.509-0.081,2.945
		c-1.937,0.617-3.045-3.755-3.51-5.032C128.059,40.288,126.708,38.637,128.476,37.968z"/>
	<path d="M67.355,3.721c1.217-0.219,6.691-0.151,7.616,0.625c0.561,0.471,0.248,1.679-0.473,1.785
		c-1.83-0.127-3.704,0.143-5.521,0.114c-0.682-0.011-2.171,0.006-2.606-0.494C65.579,4.841,66.335,3.905,67.355,3.721z"/>
	<path d="M33.084,124.687c0.126,0.087,0.224,0.378,0.483,0.549c1.131,0.746,3.452,1.907,4.321,2.688
		c1.535,1.379,0.616,2.712-1.323,2.08c-1.368-1.216-4.244-2.239-5.409-3.486C29.815,125.082,31.391,123.513,33.084,124.687z"/>
	<path d="M96.885,9.201c0.379-0.032,1.905,0.725,2.386,0.938c1.015,0.449,4.333,1.991,4.682,2.905
		c0.361,0.946-0.728,1.505-1.577,1.384c-0.457-0.065-4.604-2.155-5.243-2.529C95.845,11.144,94.919,9.369,96.885,9.201z"/>
	<path d="M44.832,131.463c0.248-0.045,0.396,0.001,0.625,0.046c1.014,0.199,5.23,1.453,6.093,1.868
		c1.378,0.662,0.517,2.02-0.625,2.317c-1.521-0.551-5.925-1.121-6.88-2.193c-0.153-0.172-0.496-0.796-0.457-0.999
		C43.848,132.131,44.384,131.544,44.832,131.463z"/>
	<path d="M72.373,136.024c0.214-0.198,1.222-0.34,1.588-0.4c1.261-0.209,4.475-0.626,5.638-0.581
		c0.932,0.036,2.24,0.775,1.151,1.692c-1.214,1.022-5.335,1.336-7.002,1.34C72.466,138.078,71.331,136.986,72.373,136.024z"/>
	<path d="M95.171,132.894c-0.286,0.358-1.324,0.941-1.787,1.144c-0.882,0.388-4.001,1.301-4.905,1.355
		c-0.805,0.048-1.302-0.178-1.739-0.864c-0.274-1.445,4.839-2.423,5.918-2.731c0.834-0.238,1.692-0.995,2.676-0.377
		C95.554,131.733,95.417,132.586,95.171,132.894z"/>
	<path d="M57.799,135.455c0.656-0.758,4.1,0.024,5.16,0.141c0.765,0.084,3.555-0.234,3.412,1.159
		c-0.202,1.959-3.799,1.296-5.087,1.084C60.475,137.706,56.426,137.041,57.799,135.455z"/>
	<path d="M100.963,128.082c0.253-0.318,3.096-2.134,3.669-2.48c0.786-0.475,2.958-2.045,3.428-0.467
		c0.246,0.826-0.224,1.278-0.814,1.757c-0.564,0.458-4.494,2.992-5.009,3.132C100.889,130.389,100.233,128.998,100.963,128.082z"/>
	<path d="M111.75,18.004c1.218,0.764,2.373,1.123,3.426,2.348c1.131,1.315-0.018,2.651-1.41,1.977
		c-0.474-0.23-4.279-3.144-4.608-3.531c-0.85-0.999-0.812-2.836,0.826-2.15C110.564,16.891,111.415,17.794,111.75,18.004z"/>
	<path d="M68.977,20.957c0.657-0.742,2.452-1.02,2.942,0.066l12.98,28.471c9.341,1.569,18.831,2.455,28.155,4.21
		c0.912,0.172,4.051,0.607,4.513,1.164c0.795,0.96,0.014,1.889-0.663,2.566c-5.706,5.71-12.152,10.871-18.082,16.365
		c-0.639,0.592-4.582,4.224-4.691,4.585c-0.088,0.289-0.061,0.591-0.021,0.885l6.406,31.278c0.109,1.46-0.615,2.14-2.063,1.668
		L70.115,95.697l-1.12-0.407l-27.391,15.925c-0.874,0.516-2.796,0.613-3.126-0.55c-0.114-0.4,0.304-2.343,0.404-2.93
		c1.695-9.958,4.313-19.752,6.115-29.68L21.52,56.849c-1.035-1.29-0.245-2.967,1.332-3.185c10.72-1.437,21.486-2.463,32.254-3.518
		L68.977,20.957z M113.019,56.674c-9.882-1.606-19.742-3.438-29.714-4.45c-0.906-0.538-3.817-8.16-4.51-9.685
		c-1.155-2.542-2.421-5.05-3.606-7.561c-1.627-3.449-3.122-7.003-5.039-10.289c-0.611,1.215-1.248,2.425-1.831,3.654
		c-3.323,7-6.201,14.266-9.646,21.205c-0.324,0.653-1.218,2.714-1.68,3.051c-0.702,0.513-1.571,0.191-2.36,0.29
		c-2.527,0.316-5.06,0.472-7.571,0.757c-7.164,0.811-14.304,1.947-21.483,2.649c-0.231,0.193,1.303,1.601,1.511,1.8
		c6.317,6.039,13.596,11.543,19.879,17.597c1.319,1.271,1.03,1.775,0.703,3.547c-0.97,5.247-2.501,10.452-3.641,15.665
		c-0.976,4.465-1.819,8.965-2.742,13.439l27.729-16.079l28.103,16.269c-1.381-10.344-4.025-20.475-6.022-30.708
		c0.138-0.84,3.402-3.925,4.221-4.69c5.725-5.352,11.793-10.436,17.415-15.897C112.918,57.057,113.09,56.99,113.019,56.674z"/>
</g>
</svg>
