<?xml version="1.0" encoding="iso-8859-1"?>
<!-- Generator: Adobe Illustrator 29.5.1, SVG Export Plug-In . SVG Version: 9.03 Build 0)  -->
<svg version="1.1" id="Ebene_1" xmlns="http://www.w3.org/2000/svg" xmlns:xlink="http://www.w3.org/1999/xlink" x="0px" y="0px"
	 viewBox="0 0 141.732 141.732" style="enable-background:new 0 0 141.732 141.732;" xml:space="preserve">
<g>
	<path d="M140.004,57.246c-10.645,11.138-21.517,22.066-32.728,32.619c8.304,58.078,23.273,60.016-34.363,29.681
		c-0.889-0.411-1.961-1.15-2.912-0.715c-12.854,5.974-25.14,13.793-38.008,19.624c-4.966,2.888-7.525-0.198-5.893-5.335
		c1.736-14.424,5.168-28.719,7.443-43.026C22.596,80.165,12.679,68.578,1.964,58.256c-2.195-2.482-0.099-5.114,2.703-5.693
		c14.06-4.007,30.331-3.553,43.87-7.98c28.536-57.757,17.409-54.804,44.916,0.707c11.397,2.18,23.535,3.723,34.926,5.734
		C131.872,52.223,142.883,51.24,140.004,57.246z M71.253,6.404C64.47,19.239,57.819,33.709,51.629,47.307
		c-14.207,5.392-31.536,4.998-46.585,8.898C15.448,66.95,26.7,77.899,37.044,88.456c-1.628,15.698-5.827,31.903-8.314,47.573
		c13.835-7.011,27.492-14.462,41.411-21.35c0.553-0.731,2.84-3.166,2.792-3.908c-5.087-6.931-5.944-5.882-1.453-13.966
		c0.214-0.474,0.458-2.195,1.18-2.134l0.82,0.964l-1.948,7.961l4.841,5.775c1.798,2.714-1.951,4.525-2.054,7.081l37.224,19.017
		c-7.966-60.408-18.034-34.668,24.248-79.453c-15.106-2.181-30.424-4.566-45.274-7.698C84.42,34.4,77.273,20.415,71.253,6.404z
		 M19.965,51.725l-0.091-0.368l-5.505,1.3C16.289,52.692,18.106,52.056,19.965,51.725z M111.027,83.479l-3.728,3.728l0.19,0.19
		l3.728-3.728L111.027,83.479z M107.998,102.458c-0.264-1.654-0.23-3.799-0.929-5.221
		C107.109,98.535,107.651,101.197,107.998,102.458z"/>
	<path d="M75.155,57.714c0.55,3.441-2.12,6.138-3.623,9.303c-0.544,1.526-3.124,7.439-3.176,2.604
		c0.749-3.349,2.271-7.467,3.593-10.716l-8.497-9.723c2.173-4.48,4.357-9.89,7.785-13.221c0.708-0.053,1.153,0.833,1.102,1.453
		L66.77,48.266C67.05,48.473,74.926,58.194,75.155,57.714z"/>
	<path d="M93.835,62.909c0.123,0.089,2.376-1.349,1.855,0.939c0.966-0.512,2.724,0.221,2.029,1.378L79.481,83.715
		c4.666,4.873,12.044,9.427,16.208,14.548c0.352,0.497,0.865,1.317,0.376,1.869c-0.986,1.112-2.887-2.393-3.919-2.52
		c0.787,0.498,0.501,1.195,0.726,1.587c0.559,0.973,2.729,1.594,2.42,3.236c-1.497,0.958-1.974-0.426-2.975-1.172l-3.715-2.532
		c0.744,1.081,6.91,5.223,2.614,4.75C85.833,98.248,80.372,92.993,74.36,88.49c-2.708,2.404-13.998,14.953-16.922,16.309
		c-2.739-1.248-0.902-2.346,0.389-3.83c-1.105,0.566-3.474,3.316-3.835,0.558l16.114-17.254c-4.52-4.424-9.052-8.87-13.96-12.865
		c-0.572-0.818-2.349-1.667-1.822-2.749c0.938-1.926,2.407,0.999,2.757,0.601c0.002-1.109-1.33-1.062-1.119-2.321
		c0.296-1.766,2.513,0.619,2.983,1.202c-0.041-0.851-1.119-1.106-0.652-2.051c0.387-0.784,1.176-0.091,1.647,0.218
		c4.734,4.654,11.076,8.671,15.072,13.68l0.345,0.091C75.678,78.937,94.312,58.941,93.835,62.909z M63.609,74.852
		c-1.175-1.274-2.68-2.672-4.29-3.354C59.997,72.353,62.434,74.346,63.609,74.852z M66.966,89.96
		c0.35,0.082,0.444-0.195,0.653-0.371c0.644-0.699,1.919-1.513,2.143-2.425C68.622,87.876,67.757,88.891,66.966,89.96z
		 M91.773,97.234c-1.142-1.198-2.403-2.678-3.917-3.354C89.137,94.952,90.315,96.549,91.773,97.234z"/>
</g>
</svg>
