<?xml version="1.0" encoding="iso-8859-1"?>
<!-- Generator: Adobe Illustrator 29.5.1, SVG Export Plug-In . SVG Version: 9.03 Build 0)  -->
<svg version="1.1" id="Ebene_1" xmlns="http://www.w3.org/2000/svg" xmlns:xlink="http://www.w3.org/1999/xlink" x="0px" y="0px"
	 viewBox="0 0 40 40" enable-background="new 0 0 40 40" xml:space="preserve">
<g>
	<g>
		<path d="M28.658,19.395c-0.11,0.365-0.104,0.747-0.165,1.118c-0.314,1.872-0.718,3.74-1.039,5.622
			c-0.095,0.56-0.066,0.998-0.348,1.526c-0.692,1.294-2.147,1.018-3.366,1.02c-2.826,0.006-5.729,0.092-8.592,0.044
			c-1.19-0.02-2.161-0.202-2.481-1.515c-0.201-0.825-0.277-1.784-0.425-2.632c-0.252-1.449-0.511-2.9-0.792-4.34
			c-0.049-0.255-0.059-0.465-0.151-0.692c-0.015-0.036,0.016-0.105-0.028-0.139c-0.043-0.032-0.274-0.036-0.349-0.055
			c-0.247-0.06-0.414-0.188-0.604-0.348l0.056-0.084c-0.052-0.076-0.108-0.183-0.134-0.27c-0.095-0.311-0.149-1.315-0.051-1.621
			c0.065-0.204,0.197-0.375,0.381-0.485c0.53-0.316,1.232-0.209,1.836-0.203c0.504,0.005,1.247,0.091,1.736,0.026
			c0.032-0.004,0.063-0.005,0.087-0.028c0.56-0.641,0.983-1.384,1.472-2.076c0.736-1.044,1.537-2.286,2.337-3.258
			c0.263-0.32,0.507-0.542,0.955-0.384c0.207,0.073,0.451,0.282,0.443,0.511c-0.021,0.58-0.86,1.502-1.197,1.977
			c-0.626,0.882-1.197,1.808-1.874,2.654l-0.363,0.603h7.815l-0.624-0.848c-0.726-1.204-1.574-2.343-2.284-3.556
			c-0.22-0.374-0.593-0.979-0.107-1.307c0.471-0.316,0.938-0.031,1.239,0.348c1.021,1.291,1.905,2.918,2.819,4.304
			c0.231,0.35,0.484,0.692,0.715,1.044c0.195,0.009,0.397,0.039,0.591,0.045c0.827,0.027,1.682-0.037,2.509-0.002
			c0.251,0.011,0.806,0.122,0.967,0.33c0.06,0.077,0.225,0.569,0.227,0.667c0.005,0.163-0.074,0.365-0.085,0.517
			c-0.023,0.309-0.045,0.759-0.151,1.058C29.474,19.403,29.053,19.398,28.658,19.395z M21.419,11.636
			c0.062-0.214,0.254-0.517-0.115-0.519C21.319,11.301,21.18,11.553,21.419,11.636z M18.795,11.204
			c-0.174-0.079-0.243,0.012-0.345,0.137c-0.68,0.831-1.234,1.873-1.945,2.692l-1.43,2.131c0.165,0.02,0.174-0.132,0.247-0.228
			c1.044-1.371,2.032-2.798,3.067-4.17C18.529,11.581,18.642,11.378,18.795,11.204z M21.65,11.982
			c0.017-0.095,0.042-0.197,0.072-0.289c0.022-0.066,0.123-0.108,0.028-0.172l-0.182,0.338C21.57,11.914,21.572,12.003,21.65,11.982
			z M18.523,12.029c0.037-0.047,0.041-0.114,0.127-0.148l-0.086-0.072c-0.114,0.208-0.253,0.412-0.392,0.603
			c-0.135,0.188-0.328,0.369-0.416,0.579c0.245-0.239,0.421-0.532,0.622-0.806C18.419,12.131,18.485,12.078,18.523,12.029z
			 M21.937,12.473c0.018-0.247,0.262-0.433,0.015-0.634c-0.047-0.002-0.069,0.235-0.129,0.272c-0.018,0.012-0.057-0.015-0.058-0.013
			C21.721,12.171,21.857,12.426,21.937,12.473z M22.284,12.271c-0.105-0.08-0.1,0.422-0.259,0.346l0.159,0.258l0.151-0.452
			L22.284,12.271z M22.544,12.617c-0.07-0.064-0.131,0.226-0.158,0.259c-0.037,0.044-0.125,0.046-0.132,0.077
			c-0.023,0.104,0.191,0.342,0.248,0.443l0.1-0.361l0.077-0.143L22.544,12.617z M22.86,13.136l-0.056,0.019l-0.072,0.356
			c-0.027,0.058-0.183-0.139-0.188-0.015c-0.002,0.052,0.221,0.305,0.274,0.361c0.034-0.135,0.215-0.397,0.172-0.517
			C22.967,13.274,22.867,13.217,22.86,13.136z M17.344,13.732c0.014-0.016,0.012-0.055,0.027-0.072
			c0.122-0.14,0.258-0.258,0.357-0.423c0.022-0.036,0.036-0.066-0.014-0.071c-0.099-0.007-0.191,0.219-0.25,0.297
			c-0.076,0.1-0.303,0.346-0.341,0.439c-0.006,0.013-0.007,0.047,0.014,0.043C17.189,13.865,17.288,13.794,17.344,13.732z
			 M23.178,14.376c0.096-0.352,0.284-0.402,0.025-0.73c-0.022-0.028-0.044-0.069-0.081-0.077l-0.168,0.5L23.178,14.376z
			 M23.593,14.277c-0.046-0.058-0.085-0.127-0.156-0.161l-0.169,0.47c0.084,0.186,0.303,0.404,0.369,0.588
			c0.019,0.052,0.015,0.073,0.002,0.125l0.056-0.028l0.073,0.142c0.048,0,0.174-0.52,0.157-0.602
			c-0.064-0.019-0.18-0.003-0.172-0.089h-0.028c-0.024,0.094-0.042,0.209-0.144,0.246c-0.108,0.026-0.027-0.197-0.015-0.246
			c0.028-0.114,0.077-0.223,0.119-0.332C23.676,14.335,23.62,14.31,23.593,14.277z M16.228,15.155l-0.3,0.348l-0.161,0.258
			c0.072-0.017,0.1-0.127,0.144-0.156c0.014-0.009,0.05,0.012,0.054,0.007c0.012-0.015,0.009-0.082,0.036-0.122
			C16.077,15.376,16.219,15.302,16.228,15.155z M23.932,15.754c0.005,0.006,0.044-0.021,0.067,0.004
			c0.03,0.032,0.034,0.1,0.073,0.132c0.086,0.012,0.025-0.075,0.04-0.131c0.069-0.258,0.219-0.348-0.026-0.605
			c-0.021-0.009-0.105,0.446-0.274,0.259c-0.002,0.048-0.004,0.099,0.012,0.146C23.829,15.57,23.925,15.746,23.932,15.754z
			 M24.389,16.25c-0.005-0.219,0.209-0.499,0.014-0.663c-0.048,0.158-0.075,0.389-0.188,0.504L24.389,16.25z M24.727,16.028
			c-0.008-0.009-0.074-0.04-0.077-0.037c0,0.14-0.143,0.371-0.101,0.489c0.007,0.02,0.132,0.202,0.144,0.202
			c0.068,0.007,0.001-0.18,0.041-0.239c0.03-0.044,0.106-0.038,0.116-0.05c0.006-0.007-0.001-0.17-0.003-0.179
			C24.843,16.203,24.735,16.036,24.727,16.028z M15.178,16.584c0.084-0.11,0.174-0.226,0.256-0.336
			c0.044-0.06,0.104-0.159,0.132-0.229l-0.662,0.8l-0.044,0.151C14.966,16.843,15.077,16.716,15.178,16.584z M18.939,16.741
			c-0.108,0.005-0.218-0.012-0.325,0.007c-0.05,0.009-0.095,0.012-0.079,0.079c0.108-0.044,0.221-0.007,0.333-0.026
			C18.921,16.791,18.952,16.823,18.939,16.741z M11.355,18.817h0.418c0.124,0,0.233-0.184,0.313-0.25
			c0.034-0.028,0.079-0.041,0.112-0.069c0.084-0.073,0.626-0.61,0.67-0.607c0.113,0.027,0.216,0.064,0.132,0.192l-0.55,0.459
			l-0.258,0.275l0.1-0.058l-0.014,0.058c0.1-0.032,0.223,0.032,0.318-0.014c0.039-0.019,0.071-0.107,0.114-0.146
			c0.095-0.085,0.5-0.472,0.592-0.472c0.044,0,0.133,0.042,0.129,0.096c-0.007,0.031-0.384,0.357-0.433,0.434
			c-0.023,0.035-0.036,0.059-0.027,0.102l13.856,0.027l0.043-0.043l-0.045-0.072c0.108-0.088,0.469-0.504,0.583-0.513
			c0.046-0.004,0.101,0.047,0.151,0.055l-0.003,0.079l-0.599,0.466h0.461c0.005,0,0.008-0.053,0.042-0.087
			c0.1-0.102,0.491-0.517,0.608-0.517c0.054,0,0.184,0.074,0.146,0.142l-0.593,0.463h0.476c0.021,0,0.215-0.25,0.274-0.303
			c0.066-0.061,0.467-0.406,0.511-0.413c0.057-0.008,0.141,0.023,0.181,0.067l-0.562,0.62l-0.022-0.05
			c0.012-0.095-0.084,0.045-0.05,0.08c0.17,0.001,0.629,0.057,0.705-0.143c0.011-0.028-0.015-0.08-0.007-0.122
			c0.057-0.291,0.14-0.641,0.165-0.932c0.027-0.304,0.042-0.475-0.281-0.583c-0.538-0.179-1.554-0.087-2.156-0.093
			c-0.127-0.001-0.282-0.032-0.402-0.033c-0.156-0.001-0.329,0.074-0.504,0.003c0.285,0.223,0.407,0.769,0.163,1.057
			c-0.214,0.251-0.453,0.361-0.784,0.328c-0.375-0.037-0.421-0.291-0.607-0.547c-0.173-0.238-0.249-0.338-0.385-0.595
			c-0.027-0.051-0.189-0.232-0.247-0.244c-1.459,0.013-2.914,0.02-4.377,0.015c-1.181-0.004-2.382-0.011-3.566-0.026
			c-0.111-0.002-0.468-0.046-0.535,0.009c-0.171,0.291-0.401,0.547-0.586,0.826c-0.058,0.086-0.064,0.177-0.134,0.27
			c-0.126,0.167-0.411,0.328-0.622,0.274c-0.295-0.077-0.597-0.454-0.617-0.761c-0.02-0.296,0.191-0.363,0.272-0.61
			c-0.465,0.044-0.936-0.03-1.4-0.025c-0.284,0.003-0.588,0.02-0.868,0.035c-0.447,0.024-1.06-0.016-0.961,0.624
			c0.169-0.124,0.295-0.358,0.537-0.262c0.03,0.012,0.048-0.014,0.039,0.046l-0.59,0.561l0.013,0.405l0.393-0.298l0.625-0.574
			l0.251,0.051l-0.504,0.533c-0.197,0.1-0.365,0.294-0.548,0.433c-0.03,0.022-0.063,0.026-0.098,0.03
			c-0.061,0.069,0.184,0.382,0.311,0.311c0.007-0.033,0.007-0.071,0.03-0.099c0.22-0.269,0.507-0.427,0.777-0.636
			c0.114-0.088,0.315-0.314,0.42-0.362c0.082-0.037,0.128,0.034,0.132,0.107c0.003,0.063-0.759,0.718-0.868,0.803
			C11.591,18.616,11.3,18.769,11.355,18.817z M25.225,16.913c-0.105-0.021-0.023,0.081-0.03,0.154
			c-0.017,0.171-0.149,0.34,0.059,0.48L25.225,16.913z M25.623,17.408c-0.007-0.012-0.052-0.014-0.064-0.032
			c-0.016-0.025,0.039-0.131-0.074-0.116l-0.058,0.433C25.504,17.654,25.683,17.503,25.623,17.408z M28.109,19.365
			c-0.106,0.092-0.275,0.03-0.416,0.027c-3.505-0.03-6.985-0.061-10.499-0.041c-0.758,0.005-1.518,0.043-2.277,0.043
			c-1.022,0-2.052-0.074-3.072-0.001c0.134,0.561,0.216,1.138,0.32,1.713c0.274,1.511,0.563,3.024,0.825,4.538
			c0.188,1.087,0.052,2.38,1.521,2.488c1.584,0.116,3.309-0.093,4.904,0.002c1.721-0.046,3.468-0.015,5.192-0.033
			c0.8-0.008,1.542,0.13,2.004-0.704c0.113-0.202,0.119-0.488,0.201-0.707c-0.102-0.012-0.081,0.167-0.113,0.216
			c-0.118,0.187-0.674,0.673-0.868,0.864c-0.118,0.115-0.026,0.122-0.228,0.115c-0.021-0.001-0.081,0.045-0.059-0.028
			c0.012-0.038,0.124-0.177,0.158-0.217c0.279-0.329,0.667-0.675,0.981-0.981c0.04-0.039,0.101-0.036,0.13-0.08
			c0.013-0.019,0.104-0.404,0.11-0.453c0.02-0.164,0.014-0.206-0.154-0.104l-0.011,0.132l-0.696,0.722
			c-0.183,0.02-0.162-0.1-0.072-0.218c0.1-0.132,0.601-0.635,0.735-0.736c0.077-0.058,0.154-0.064,0.217-0.13
			c0.047-0.196,0.121-0.369,0.072-0.577l-0.19,0.257c-0.188,0.08-0.481,0.732-0.585,0.283l0.812-0.806l0.135-0.528
			c-0.061-0.054-0.069,0.048-0.113,0.089c-0.226,0.207-0.448,0.416-0.636,0.662c-0.125,0.064-0.154-0.034-0.115-0.142
			c0.041-0.113,0.423-0.507,0.533-0.623c0.06-0.063,0.364-0.324,0.375-0.346c0.027-0.054,0.148-0.518,0.157-0.593
			c0.003-0.024,0.003-0.046,0.002-0.07c-0.125-0.008-0.04,0.094-0.07,0.143c-0.016,0.026-0.075,0.04-0.103,0.073
			c-0.093,0.109-0.492,0.595-0.577,0.635c-0.095,0.044-0.151-0.071-0.138-0.141c0.015-0.079,0.626-0.593,0.7-0.739
			c0.023-0.062,0.191-0.099,0.202-0.114c0.055-0.077,0.106-0.471,0.116-0.578l-0.755,0.775l-0.183,0.002
			c-0.001-0.227,0.189-0.263,0.308-0.384c0.095-0.099,0.188-0.24,0.283-0.337c0.072-0.073,0.369-0.287,0.404-0.346
			c0.014-0.025,0.091-0.363,0.1-0.42c0.012-0.07-0.009-0.037-0.042-0.012c-0.23,0.178-0.456,0.496-0.655,0.714
			c-0.337,0.102-0.158-0.17-0.034-0.308c0.114-0.127,0.303-0.31,0.429-0.436c0.065-0.064,0.323-0.244,0.346-0.288
			c0.049-0.094,0.056-0.351,0.081-0.468c0.053-0.258,0.131-0.523,0.162-0.79c0.004-0.031,0.028-0.131-0.025-0.126
			c-0.048,0.096-0.144,0.208-0.216,0.289c-0.089,0.099-0.409,0.456-0.505,0.504c-0.03,0.015-0.062,0.022-0.095,0.017
			c-0.125-0.092,0-0.225,0.081-0.319c0.081-0.094,0.182-0.151,0.26-0.229c0.154-0.155,0.295-0.316,0.461-0.458l0.072,0.054
			c0.032-0.139,0.05-0.282,0.082-0.422c0.007-0.03,0.126-0.276,0.004-0.198l-0.699,0.715c-0.077,0.056-0.153-0.058-0.137-0.135
			c0.028-0.137,0.352-0.334,0.463-0.434c0.031-0.027,0.046-0.062,0.06-0.1l0.14,0.026l-0.014-0.058
			C27.993,19.56,28.089,19.468,28.109,19.365z"/>
		<path d="M22.592,25.76c-0.03,0.072-0.061,0.369-0.077,0.511c-0.023,0.209,0.012,0.547-0.114,0.722
			c-0.158,0.22-0.656,0.251-0.694-0.087c0.08-0.838,0.094-1.672,0.145-2.512c0.025-0.397,0.084-0.805,0.109-1.209
			c0.046-0.762,0.015-1.641,0.122-2.393c0.03-0.207,0.045-0.447,0.301-0.477c0.321-0.039,0.524,0.094,0.56,0.422
			c0.031,0.296-0.046,0.843-0.067,1.165c-0.081,1.205-0.234,2.434-0.257,3.643C22.618,25.589,22.605,25.728,22.592,25.76z"/>
		<path d="M19.912,20.322c0.262-0.032,0.491,0.221,0.498,0.472c0.002,0.062-0.03,0.114-0.028,0.172
			c0.012,1.504-0.052,3.014-0.077,4.502c-0.007,0.401,0.053,0.871,0.018,1.264c-0.039,0.433-0.37,0.524-0.736,0.361
			c-0.013-0.012-0.069-0.252-0.071-0.277c-0.055-0.976,0.007-2.015,0.017-2.991c0.009-0.844-0.002-1.649,0.009-2.484
			C19.547,21.053,19.501,20.372,19.912,20.322z M19.977,21.845v0.548l0.059-0.475L19.977,21.845z"/>
		<path d="M24.772,20.382c0.057-0.058,0.298-0.099,0.382-0.087c0.554,0.071,0.289,0.893,0.248,1.251
			c-0.163,1.458-0.356,2.899-0.589,4.343c-0.058,0.36-0.056,0.806-0.323,1.09c-0.29,0.31-0.713,0.162-0.678-0.275
			c0.022-0.265,0.148-0.642,0.193-0.932c0.122-0.777,0.258-1.613,0.351-2.389c0.105-0.87,0.087-1.95,0.311-2.773
			C24.679,20.57,24.749,20.405,24.772,20.382z M24.956,22.098c0.013-0.04-0.021-0.155-0.015-0.207
			c0.022-0.188,0.072-0.376,0.081-0.566c-0.055,0.011-0.047,0.06-0.059,0.1c-0.114,0.416-0.093,0.9-0.174,1.323l0.088,0.047
			l0.054-0.507l-0.053-0.013v-0.057l0.052-0.004l-0.026-0.095C24.907,22.104,24.955,22.104,24.956,22.098z M24.8,23.051l0.022-0.226
			c-0.045,0-0.047,0.1-0.053,0.134c-0.02,0.122-0.012,0.234-0.005,0.356c0.123-0.051-0.014-0.188,0.086-0.245L24.8,23.051z
			 M24.389,25.825c-0.013-0.098,0.059-0.161,0.08-0.252c0.044-0.195,0.036-0.427,0.069-0.624c0.067-0.411,0.17-0.834,0.223-1.247
			c0.008-0.07,0.036-0.212-0.012-0.271c-0.08,0.249-0.111,0.514-0.149,0.774c-0.07,0.472-0.098,0.966-0.194,1.427
			c-0.011,0.049-0.059,0.124-0.075,0.18L24.389,25.825z"/>
		<path d="M17.345,20.323c0.453-0.074,0.511,0.264,0.529,0.612c0.069,1.356,0.106,2.736,0.152,4.09
			c0.02,0.57,0.089,1.164,0.073,1.732c-0.002,0.066-0.082,0.26-0.128,0.305c-0.1,0.095-0.471,0.17-0.56,0.043
			c-0.036-0.052-0.107-0.54-0.115-0.637c-0.006-0.063,0.028-0.113,0.025-0.165c-0.119-1.563-0.208-3.139-0.256-4.705
			c-0.009-0.3-0.089-0.71-0.022-1C17.084,20.424,17.16,20.353,17.345,20.323z M17.525,21.873l-0.086,0.043
			c0.088,0.106,0.068,0.348,0.061,0.493c-0.003,0.06,0.034,0.066,0.054,0.041L17.525,21.873z M17.583,23.546
			c-0.11-0.023-0.039,0.155-0.059,0.218l0.059,0.388V23.546z M17.692,25.416c-0.077-0.227-0.024-0.479-0.065-0.716
			c-0.094,0.08-0.021,0.193-0.017,0.279c0.013,0.376,0.016,0.756,0.032,1.133c0.05,0.007,0.027-0.065,0.028-0.1
			c0.007-0.184,0.015-0.403-0.026-0.579L17.692,25.416z"/>
		<path d="M27.821,20.922c0.007,0.007-0.038,0.164-0.051,0.193c-0.074,0.156-0.472,0.519-0.612,0.656
			c-0.086,0.083-0.07,0.188-0.229,0.131c0.005-0.084,0.022-0.161,0.071-0.232c0.075-0.108,0.426-0.468,0.535-0.561
			C27.564,21.082,27.797,20.897,27.821,20.922z"/>
		<path d="M14.895,20.323c0.244-0.027,0.35,0.096,0.378,0.328c0.032,0.272,0.007,0.602,0.032,0.891
			c0.139,1.538,0.458,3.128,0.634,4.672c0.011,0.095,0.062,0.601,0.044,0.649c-0.098,0.27-0.528,0.369-0.735,0.186
			c-0.156-0.139-0.096-0.341-0.118-0.517c-0.21-1.751-0.499-3.495-0.664-5.248c-0.022-0.229-0.065-0.457-0.081-0.686
			C14.416,20.503,14.794,20.334,14.895,20.323z M15.075,22.565c-0.103-0.319-0.103-0.672-0.172-0.993
			c-0.008-0.042-0.002-0.091-0.058-0.102l0.145,1.021L15.075,22.565z M15.074,22.623l-0.057,0.014
			c-0.012,0.081,0.042,0.505,0.073,0.591c0.018,0.048-0.001,0.07,0.071,0.058C15.138,23.157,15.15,22.686,15.074,22.623z"/>
	</g>
	<line fill="none" stroke="#000000" stroke-width="0.5" stroke-miterlimit="10" x1="22.465" y1="13.876" x2="19.612" y2="16.728"/>
	<path fill="none" stroke="#000000" stroke-width="0.5" stroke-miterlimit="10" d="M27.805,16.728l-3.806-3.806
		c-0.16-0.16-0.57-0.019-0.73,0.142"/>
</g>
</svg>