<?xml version="1.0" encoding="iso-8859-1"?>
<!-- Generator: Adobe Illustrator 29.5.1, SVG Export Plug-In . SVG Version: 9.03 Build 0)  -->
<svg version="1.1" id="Ebene_1" xmlns="http://www.w3.org/2000/svg" xmlns:xlink="http://www.w3.org/1999/xlink" x="0px" y="0px"
	 viewBox="0 0 141.732 141.732" style="enable-background:new 0 0 141.732 141.732;" xml:space="preserve">
<g>
	<path d="M38.791,59.402c1.075,0.791,2.289,0.762,2.412,2.585c0.716,5.275-7.186,4.686-6.257-0.347
		c0.228-0.89,1.693-2.352,2.657-2.047c0.154-0.042,0.146-0.32,0.259-0.343C38.252,59.275,38.405,59.486,38.791,59.402z"/>
	<path d="M25.207,62.79c0.055,3.781-5.884,3.781-5.828,0C19.324,59.01,25.263,59.01,25.207,62.79z"/>
	<path d="M53.146,59.059c2.616,1.36,1.609,6.645-1.927,5.941l0-0.461c-2.334,0.241-2.713-3.827-0.909-4.87
		c0.415-0.129,0.603-0.199,0.74-0.635C51.537,58.528,52.61,58.913,53.146,59.059z"/>
	<path d="M62.903,59.164c2.095-0.16,2.97,1.975,2.844,3.764c-0.419,0.457-1.203,1.543-1.861,1.591
		c-0.757-0.472-1.591,0.064-2.372-0.457C59.476,62.544,60.267,58.933,62.903,59.164z"/>
	<path d="M80.724,41.925c-1.908-0.812-1.318-5.748-3.328-7.348c0.742,2.584,4.435,10.428,2.181,12.119
		c-2.2-0.206-1.925-3.292-2.444-5.026c-0.991-3.332-3.536-8.245-6.281-9.731c-0.008-0.329,0.091-0.416-0.229-0.231l0.124-0.519
		c-0.181-0.154-1.073-0.934-1.272-0.745c0.154,0.757-0.798-0.096-1.093-0.229l0.119-0.231c0.196-0.046,0.766,0.557,0.858,0.46
		c0.183-0.196-0.709-0.766-0.964-0.685c-0.186,0.059-0.104,0.365-0.297,0.34l-0.174-0.458l-0.222,0.225l-1.387-0.913l-0.283,0.228
		l-0.165-0.318c-0.633,0.282-1.097-0.326-1.789-0.142l0.118-0.228l-0.346-0.114l1.322,0.341l0.055-0.226
		c-1.799-0.628-4.288-2.239-6.083-1.955c1.464,0.426,2.633,1.576,4.188,1.724l-0.057,0.228l0.458-0.228l0.232,0.457
		c-8.189-2.451-16.691-3.373-25.3-1.935c-7.775,1.026-17.29,2.428-23.146,7.791c0.217,0.038,0.874-0.532,0.917-0.058
		c-9.557,7.797-9.947,32.21-6.199,42.766l-0.342,0.169c0.178,0.189,0.065,0.468,0.118,0.668c0.382,0.179,0.27,0.96,0.437,1.295
		c0.146,0.352,0.542,0.175,0.24,0.674l0.229,0.113l-0.106,0.409l0.342-0.23l0.002,0.573l0.227-0.228
		c-0.009,0.229,0.084,0.961,0.179,1.139c0.353,0.374,0.754,0.633,0.572,1.163c0.121,0.336,3.686,2.342,4.26,2.618
		c2.052,1.259,5.316,1.266,6.681,3.32c0.032,0.353-0.492,0.602,0.017,0.791c0.186,1.226-1.131,1.364-0.71,2.474
		c-0.034,0.173-0.413,0.643-0.41,0.725c0.759,1.571-1.641,7.543-2.089,9.642l0.281,0.17c1.77-1.884,4.719-2.637,6.259-4.478
		l0.325,0.103c2.214-1.854,4.781-3.699,7.219-5.249c3.521,1.627,8.824,2.512,12.66,2.322c8.682,0.933,19.162-1.36,25.392-7.887
		c1.21-4.188,2.599-8.041,3.429-12.309c-0.471-11.719-1.473-26.965,12.794-30.361c9.093-2.124,19.252-3.666,28.345-1.833
		l0.125-0.232c6.326,1.249,14.096,3.396,17.739,9.473l-0.23,0.112c1.278,2.185,3.152,6.166,3.844,9.243l0.172,0.114l-0.326-2.128
		l0.33-0.113c1.867,15.292,6.648,39.676-11.258,46.783c-0.588-0.484-0.977-0.579-1.61-0.05c1.743,3.47,4.729,8.258,5.178,12.03
		l-0.641,0.3c0.087,1.01-0.822,1.57-1.601,0.919c-0.299,0.606-1.029,0.623-1.666,0.578c0.039,0.32-0.054,1.023-0.496,0.905
		l-10.469-7.333c-0.588,0.038,0.832,0.971,0.233,1.031c-2.4-1.469-4.433-3.791-6.786-5.164c-7.045,2.169-14.588,2.713-21.905,1.846
		c-1.849,0.517,2.008,0.669,1.88,1.08c-0.421,0.728-2.295-0.238-2.978-0.349c-8.146-2.571-12.46-6.918-15.143-14.896
		c0.074-0.265,0.591-0.572,0.726-0.193c1.322,4.773,5.651,11.213,10.852,11.593c-3.538-1.22-8.094-4.742-9.298-8.726l0.903-0.106
		c0.974,1.812,2.081,3.607,3.688,4.928c-0.394-1.676-3.977-8.461-1.11-8.384c3.594,16.146,22.656,10.54,34.222,8.279
		c3.446,1.383,8.443,5.073,11.546,7.222c-5.784-12.032-5.045-8.962,4.594-15.324c0.259-0.386,2.78-2.228,1.607-2.47l0.564,0.106
		c3.494-4.963,3.121-12.181,3.917-17.959c-0.557-3.488-0.223-7.67-1.046-11.032c0.179-0.393-0.252-0.714-0.22-1.254l0.228,0.06
		l-0.115-0.802l-0.227,0.458l-0.232-2.067l-0.228,0.117c0.245-0.55-0.05-0.374-0.138-0.621c-0.151-0.423,0.234-0.601-0.32-0.815
		l0.227-0.402l-0.343,0.115c-0.358-1.48-1.107-3.461-2.065-4.849c-0.296-0.359-1.001-0.633-0.922-1.292
		c0.464-0.288,0.458,0.55,0.919,0.515c-6.27-8.823-23.685-7.124-33.117-5.97c-19.315,3.789-15.822,10.388-17.166,26.462l0.219-0.241
		c0.694-4.033,1.578-8.797,1.457-12.8c0,0,0.394-0.055,0.394-0.055l0.342,0.353c0.203,7.376,0.808,14.703-1.924,21.727
		c-0.71,1.616-0.221,5.265-2.094,5.769c-0.04,0.3-0.011,0.292,0.229,0.401c-0.749,0.672-2.119,1.083-2.089,2.102
		c-0.04,0.072-0.967,0.546-1.184,1.063c-4.528,6.528-13.508,8.408-21.251,8.702c-3.926,1.135-9.992-0.131-13.959-1.176
		c-1.316-0.356-0.994-0.763-2.315,0.177c-6.536,4.815-13.452,8.826-20.428,12.974c-0.872,0.67-1.112,0.979-1.627-0.356
		c-0.219,0.21-0.477,0.386-0.798,0.339c-0.418-0.085-0.309-0.536-0.727-0.482c0.019-0.311-0.389-0.996-0.584-1.214
		c0.142-0.696-0.046-0.475-0.532-0.719c-0.43-0.631-0.25-1.263,0.149-1.804c2.02-5.687,4.141-11.451,5.992-17.139
		C7.841,92.253,3.634,83.134,2.71,74.303c-0.162-1.033-0.2-1.89-0.283-3.041c-0.017-0.352-0.686-1.56,0.117-1.497l-0.573-0.292
		l0.011-0.75l0.218-0.104C0.384,58.182,2.905,41.996,8.855,32.68C24.563,16.966,77.477,13.386,80.724,41.925z M51.22,23.098
		l-2.295-0.115C48.833,23.558,51,23.403,51.22,23.098z M26.653,24.935c-0.494,0.082-1.262,0.206-1.607,0.572
		C25.548,25.508,26.275,25.296,26.653,24.935z M31.475,26.081c0.191,0.06,2.504-0.258,2.065-0.688
		C32.985,25.905,31.689,25.392,31.475,26.081z M10.924,32.052c-1.764,0.944-3.87,4.028-3.845,5.969
		C7.686,36.315,9.697,33.378,10.924,32.052z M75.098,34.921c0.221-0.218-1.378-2.456-1.95-2.41l1.572,2.269L75.098,34.921z
		 M7.827,43.532c0.451-0.442,0.463-1.257,0.687-1.837C8.1,42.15,7.882,42.93,7.827,43.532z M128.327,48.276
		c-4.498-3.287-10.48-3.978-15.918-4.284C117.467,44.822,124.648,46.159,128.327,48.276z M93.352,44.566
		c-0.136-0.104-1.359,0.246-1.149,0.687l-0.287-0.344l-0.285,0.227c0.358-0.067,0.104,0.428,0.398,0.345
		c0.329-0.093,0.609-0.536,0.65-0.55C92.822,44.882,93.191,45.246,93.352,44.566z M104.373,45.713
		c-0.741,0.215-2.332-0.473-2.639,0.228l0.458-0.115l0.001,0.346C102.76,45.751,104.128,46.398,104.373,45.713z M134.222,52.255
		c-1.195-1.836-2.846-3.389-4.82-4.361C130.67,49.403,132.637,50.959,134.222,52.255z M88.53,48.814
		c-0.514,0.078-1.599,0.237-1.721,0.802L88.53,48.814z M128.022,51.337c-0.15-0.528-1.757-1.435-2.18-1.721
		c0.179,0.636,1.329,1.171,1.822,1.591C127.732,51.25,127.743,51.435,128.022,51.337z M133.762,53.863
		c-0.635-1.225-1.811-2.772-2.984-3.442L133.762,53.863z M130.485,53.127c-0.15-0.299-0.77-0.866-0.51-0.151
		c2.789,2.641,4.466,6.537,5.854,9.727C134.977,59.112,133.12,55.697,130.485,53.127z M77.511,57.422
		c0.412-0.29,0.453-1.024,0.572-1.492C77.659,56.254,77.493,56.918,77.511,57.422z M3.233,62.244l-0.343,0
		c0.201,1.189-0.716,3.69,0.287,4.474c0.347-0.023-0.012-0.822-0.018-0.99L3.233,62.244z M134.106,62.934
		c-0.93,0.529,0.398,3.74,0.443,4.895c0.345,1.06-0.172,2.939,0.59,3.599c-0.31-2.292,0.188-4.661-0.783-6.861
		c-0.049-0.249,0.079-0.454,0.063-0.553C133.951,63.819,134.129,63.378,134.106,62.934z M76.017,71.199
		c0.176-1.935,0.729-4.356,0.002-6.2l-0.206,6.059L76.017,71.199z M133.993,69.935l-0.921-4.476
		c-0.656,0.861,0.433,2.909,0.446,4.089c0.327,2.401,0.519,5.669,0.253,8.119l0.449,0.419l-0.458-0.114
		c-0.105,5.216-1.047,10.702-2.755,15.612c3.649-3.345,3.88-16.687,3.565-21.748l-0.236-0.065l0.242-0.281l-0.359-2.702
		C133.705,68.953,134.38,69.677,133.993,69.935z M79.804,77.971c0.556-1.718,1.462-3.871,0.862-5.624L79.804,77.971z
		 M137.091,74.299l-0.523,0.107l0.065,4.255c0.528,0.049-0.132-0.442,0.351-0.531c-0.271-0.451,0.412-1.401-0.107-1.548
		l-0.014-0.216l0.343-0.176c0.085-0.301-0.292-0.115-0.344-0.171c0.035-0.467,0.19-1.004-0.005-1.428
		C136.857,74.495,137.215,74.601,137.091,74.299z M4.38,78.431c-0.588,4.445,7.493,14.756,12.4,13.432
		C10.633,90.456,5.684,84.448,4.38,78.431z M76.935,78.891c-1.217,1.561-1.046,4.443-2.179,6.313
		C76.154,83.432,76.522,81.059,76.935,78.891z M137.255,85.965c-0.265-0.421,0.34-1.151-0.397-1.052
		c-0.123,7.487-3.181,12.816-8.433,17.626c6.074-2.319,7.922-8.888,8.891-14.643c-0.12-0.532-0.185,0.172-0.455,0.062
		C137.047,87.507,137.792,86.264,137.255,85.965z M16.09,89.224l-2.179-1.379C13.663,88.171,15.902,89.675,16.09,89.224z
		 M71.884,92.093c-0.219-0.194-0.923,0.608-1.033,0.802C71.172,93.119,72.028,92.221,71.884,92.093z M67.752,94.504
		c-3.021,0.884-6.219,1.978-9.184,2.638C61.624,96.87,65.185,96.215,67.752,94.504z M66.374,96.683
		c0.569,0.023,1.076-0.276,1.49-0.63C67.568,95.744,66.592,96.364,66.374,96.683z M31.589,96.571l-6.658,4.648
		C27.129,100.659,29.756,98.236,31.589,96.571z M129.285,97.259c-1.639,1.254-3.812,2.648-5.854,3.385
		C125.156,100.835,128.655,98.794,129.285,97.259z M48.58,98.979l-0.322-0.15l-7.369-1.111
		C42.729,99.155,46.196,98.748,48.58,98.979z M66.718,97.948c-1.333,0.502-4.84,1.813-6.198,2.064
		C62.703,99.888,64.934,99.228,66.718,97.948z M35.261,99.444c-0.37-0.32-2.006,0.692-2.064,1.144
		c0.424,0.189,0.603-0.21,0.648-0.221C34.176,100.537,35.436,99.846,35.261,99.444z M31.245,99.441
		c-1.192,0.657-2.926,1.806-3.672,2.869C28.792,101.359,30.234,100.628,31.245,99.441z M126.529,109.657
		c-0.313-1.274-1.054-2.413-1.835-3.444C124.917,107.452,125.795,108.664,126.529,109.657z M117.92,110.115
		c-0.852-0.809-1.835-1.499-2.869-2.065C115.456,108.939,116.978,109.752,117.92,110.115z M121.914,113.586
		c-0.125-0.068-0.295-0.014-0.436-0.024c0.636,0.706,1.96,2.013,2.869,2.18l0.115-0.574c-0.573,0.245-0.389-0.03-0.541-0.114
		C123.246,114.707,122.26,114.268,121.914,113.586z"/>
	<path d="M91.219,67.918c3.85-4.003,12.079-3.736,13.726,2.017c3.198-7.529,15.794-6.335,13.534,3.144
		c-1.077,6.14-8.622,12.035-11.9,16.455c-0.047,1.225-0.18,2.97-1.684,1.754c-0.777,1.468-2.518-1.019-3.276-1.666
		C95.609,84.91,86.694,75.988,91.219,67.918z M116.313,67.524c-0.86-1.61-4.656-1.495-5.969-0.515
		C112.369,66.589,114.411,66.539,116.313,67.524z M102.765,68.098c-0.146-1.109-1.74-1.933-2.754-1.605l1.3,0.591
		C101.553,67.206,102.563,68.301,102.765,68.098z M97.37,66.837c-1.113,0.102-3.23,0.088-3.558,1.376
		c1.092-0.377,2.131-0.936,3.306-1.118C97.302,67.029,97.426,67.157,97.37,66.837z M90.596,71.887l0.574-2.64
		C90.583,69.817,90.232,71.249,90.596,71.887z M113.859,70.328c-6.153-3.654-9.011,12.908-12.586,2.482l-0.688-0.002l-0.345-0.748
		c0.673-0.366-0.024-0.196-0.12-0.232c-1.023-1.242-2.831-1.295-3.897,0.005l0.975,0.055l0.057,0.228
		c-0.534,0.267-0.99,0.427-1.607,0.346c-0.787,6.067,5.972,8.89,8.552,13.661C106.98,81.347,115.665,76.283,113.859,70.328z
		 M96.959,84.123c-0.663-0.785-1.302-1.605-2.113-2.248c0.38,0.448,2.092,2.802,2.639,2.984
		C97.618,84.726,97.049,84.229,96.959,84.123z"/>
</g>
</svg>
