<?xml version="1.0" encoding="iso-8859-1"?>
<!-- Generator: Adobe Illustrator 29.5.1, SVG Export Plug-In . SVG Version: 9.03 Build 0)  -->
<svg version="1.1" id="Ebene_1" xmlns="http://www.w3.org/2000/svg" xmlns:xlink="http://www.w3.org/1999/xlink" x="0px" y="0px"
	 viewBox="0 0 141.732 141.732" style="enable-background:new 0 0 141.732 141.732;" xml:space="preserve">
<g>
	<path d="M91.954,66.378c2.503,0.25,4.597-1.171,6.885-1.426c11.998-1.339,23.977,4.366,29.411,15.263
		c1.066,2.138,3.265,9.836,3.104,12.093c-0.088,1.236-1.434,1.461,0.066,3.763l-1.004,0.538
		c0.941,17.572-18.242,28.969-34.353,28.177c-3.312-0.163-14.531-3.272-16.498-5.862c-1.334-1.756,0.433-1.687,0.432-1.909
		c-0.007-2.105-0.294-3.975,2.948-2.901c11.337,3.754,20.419,4.482,30.548-3.142c8.317-6.26,9.47-17.27,5.984-26.734
		c-2.014-5.47-3.823-5.251-8.215-7.942c-0.726-0.445-0.784-1.329-1.92-1.882c-3.446-1.677-10.008-1.307-13.846-1.359
		c-1.101-0.015-2.279-0.632-3.208-0.505c-0.144,0.02-2.085,1.846-2.129,1.985c-0.09,0.29,0.443,0.863,0.139,1.785
		c-0.471,1.432-1.933,2.722-3.099,3.608l0.93,0.918l-6.488,9.886l-0.658,2.41c-0.256,1.618-4.491,4.852-4.665,5.159
		c-0.283,0.501,0.47,1.368,0.201,1.847c-0.141,0.251-3.294,3.075-4.043,4.026c-5.007,6.36-9.785,13.055-15.037,19.177
		c-0.556,0.649-2.45,2.181-2.89,2.426c-1.099,0.614-2.557,0.426-3.344-0.625c-0.258-0.345-0.041-1.037-0.159-1.241
		c-0.033-0.056-0.808,0.313-1.296,0.139c-0.858-0.307-2.938-1.731-1.995-2.536c-3.918-0.506-7.473-3.51-10.464-5.94
		c-10.089-8.197-25.776-24.464-30.976-36.037C5.655,78.06,1.793,68.217,1.811,67.574c0.008-0.298,0.714-0.76,0.749-1.399
		c0.071-1.29-0.805-3.696-0.846-5.242c-0.148-5.581,2.629-14.604,6.133-19.016c6.651-8.373,17.558-11.003,27.641-8.18
		c5.496,1.539,9.862,5.63,12.996,10.307l0.707-0.219c3.038-2.968,6.645-7.179,10.59-8.902c2.559-1.117,8.803-2.106,11.511-1.825
		c1.133,0.117,1.791,0.783,2.485,0.886c3.695,0.544,3.938-0.009,7.68,2.257C91.95,42.592,94.99,54.973,91.954,66.378z
		 M22.924,40.405c-1.513-0.602-1.97,1.339-2.625,1.764c-3.505,2.27-4.95,2.641-7.333,6.767
		c-9.081,15.719,6.267,37.018,16.972,47.857c5.56,5.629,13.308,13.119,20.68,15.436c0.866,0.272,1.425,1.396,2.505,1.149
		c1.566-0.395,17.341-22.066,19.265-24.979c6.906-10.454,16.177-24.881,10.29-37.693c-3.985-8.672-13.579-12.441-21.867-7.15
		C56.981,46,53.365,52.609,51.397,56.4c-0.694,1.337-0.357,3.341-2.67,4.071c-5.322,1.681-4.76-6.145-6.251-9.484
		c-2.084-4.668-6.415-8.429-11.004-9.824c-0.344-0.105-0.326-0.855-0.56-0.855c-1.955-0.007-5.281,0.906-7.187,0.925
		C22.882,41.241,23.039,40.451,22.924,40.405z"/>
	<path d="M120.536,28.289l16.417-4.074c2.368,0.355,3.943,2.681,2.545,4.886L127.25,40.476c1.208,1.125,0.353,2.845,0.612,3.588
		c0.496,1.423,3.405,5.234,4.266,7.087c0.85,1.831,1.8,4.811-1.075,5.642c-3.85,1.113-8.889-7.986-12.242-9.425
		c-0.899,1.595-2.417,3.321-3.202,4.887c-0.471,0.939-0.174,2.117-0.812,2.99c-0.119,0.163-2.811,2.619-2.993,2.706
		c-1.661,0.799-3.006,0.72-3.241-1.291c-0.456-3.892,0.706-7.819,0.289-11.697c-3.344-1.295-14.75-0.153-12.894-6.168
		c0.855-2.77,10.157-5.523,13.014-6.244c0.191-0.787,0.579-1.735,0.565-2.527c-0.068-3.714-0.919-8.072,0.106-11.773
		c0.43-1.554,2.003-3.069,3.707-2.534c1.794,0.563,1.854,2.722,2.654,4.038C117.719,22.579,119.656,24.963,120.536,28.289z
		 M123.79,34.542c-3.79,0.042-9.09-0.603-10.927,3.554l7.088,3.072L123.79,34.542z"/>
</g>
</svg>
