<?xml version="1.0" encoding="iso-8859-1"?>
<!-- Generator: Adobe Illustrator 29.5.1, SVG Export Plug-In . SVG Version: 9.03 Build 0)  -->
<svg version="1.1" id="Ebene_1" xmlns="http://www.w3.org/2000/svg" xmlns:xlink="http://www.w3.org/1999/xlink" x="0px" y="0px"
	 viewBox="0 0 141.732 141.732" style="enable-background:new 0 0 141.732 141.732;" xml:space="preserve">
<g>
	<path d="M125.035,44.394c-0.749,1.509-0.138,4.143-0.805,6.017l0.429,0.216c-0.32,1.002-0.109,1.707,0.163,2.369
		c0.29,0.704-1.493,2.14,0.915,1.628c-0.123,1.38,0.336,2.79-0.104,4.125c-1.061,3.223-2.72,4.036-1.914,8.192
		c0.317,1.632,0.956,2.274,0.936,4.037c-0.01,0.861-0.222,2.392-0.495,3.21c-0.147,0.44-0.768,1.284-0.768,1.362
		c0.001,0.101,0.868,1.189,1.083,1.694c1.019,2.396,0.264,2.88,0.083,5.024c-0.417,4.947,0.014,10.661,0.228,15.645
		c0.079,1.84,0.722,3.818,0.743,5.181c0.008,0.526-0.299,1.058-0.241,1.507c0.068,0.528,0.616,0.452,0.672,0.692
		c0.126,0.543-0.078,1.457,0.198,2.102c-0.701,0.447-1.394,0.622-2.044,1.219c-1.387,1.273-2.84,3.259-4.23,4.659
		c-4.625,4.659-9.565,9.353-13.776,14.189c-3.126,3.59-5.845,7.563-9.107,10.842c-0.34,0.341-1.68,1.693-1.979,1.709
		c-0.453-0.113-1.52-0.55-1.904-0.589c-0.228-0.023-0.538,0.194-0.857,0.17c-3.401-0.258-6.399-0.6-9.782-0.608
		c-0.655-0.002-1.366-0.538-1.513,0.197c-0.777-0.581-2.577-0.192-3.687-0.234c-0.541-0.021-1.412-0.29-1.732-0.297
		c-2.659-0.056-5.295,0.277-7.999,0.328l-0.245-0.449l-0.317,0.014l-0.117,0.43c-0.778-0.353-2.033-0.24-3.045-0.236
		c-4.047,0.013-8.218,0.196-12.348,0.137c-0.348-0.005-1.524-0.265-1.737-0.269c-0.169-0.004-0.378,0.407-0.646,0.369l-0.231-0.451
		c-0.217,0.048-0.449,0.191-0.665,0.189c-1.54-0.017-3.132-0.152-4.287-0.164c-5.196-1.82-11.495-1.034-17.118-1.016
		c-0.443,0.001-1.528,0.24-2.14,0.091c-1.134-0.277-0.759-0.802-0.875-1.31c-0.078-0.346-0.387-0.854-0.337-1.112
		c0.228-1.179,2.386-1.477,3.362-1.383c1.255,0.12,2.383,0.105,3.823,0.08c3.555-0.063,7.56-0.441,11.293,0.1
		c0.808,0.117,2.214,0.872,3.09,0.999c2.449,0.355,5.216-0.175,7.809-0.081c1.005,0.036,3.371,0.142,4.094,0.588
		c1.934-0.725,3.784-0.619,5.798-0.574c1.949,0.044,4.216,0.269,6.17-0.022c0.873-0.13,1.596-0.388,2.326,0.164l0.221-0.453
		c0.732,0.588,1.255,0.01,1.473,0.046c0.192,0.031,0.402,0.398,0.695,0.406c0.462,0.012,0.791-0.985,1.097-0.001
		c1.136,0.002,3.535-0.379,4.516-0.216c0.158,0.026,0.123,0.432,0.254,0.439l0.834-0.247l0.237,0.461
		c1.951-0.899,4.272-0.176,6.113,0.174c0.404,0.077,0.756-0.95,1.056,0.039c1.585-0.169,3.284-0.216,4.862-0.004
		c0.22-0.198,0.401-5.054,0.505-5.897c0.354-2.874,1.088-5.653,1.35-8.568c0.292-3.256,0.17-6.5,0.648-9.71
		c0.102-0.687,0.558-1.72,0.65-2.377c0.072-0.517-0.401-1.081,0.087-1.759c0.213-0.295,1.391-0.925,1.787-1.029
		c1.036-0.271,2.508-0.135,3.672-0.456c0.542-0.149-0.002-0.26,1.123-0.427c2.563-0.38,4.981-0.502,7.415-1.011l0.214,0.448
		c1.028-0.964,2.527-0.113,3.478-0.871l0.224,0.445c2.7-0.626,5.517-0.753,8.336-0.662c-0.139-0.445-0.445-0.851-0.563-1.301
		c-0.097-0.368-0.069-1.888-0.128-2.062c-0.7-2.049-0.348-4.297-0.432-6.687c-0.176-4.99-0.748-10.128,0.464-15
		c-0.955-0.553-1.395-2.198-1.425-3.278c-0.034-1.206,1.188-2.636,1.223-4.312c0.022-1.042-0.496-1.718-0.695-2.568
		c-0.894-3.821-0.234-5.936,1.171-9.731c0.639-1.726-0.117-2.266-0.372-3.842c-1.145-7.089,0.334-14.278,0.099-21.345l0.44-0.125
		c-0.779-0.738-0.081-0.947-0.017-1.639c0.443-4.823,0.052-10.331-0.133-15.113c0.311-1.588-0.756-6.286-0.078-7.432
		c0.621-1.05,1.213-0.171,1.676-0.132c0.311,0.026,0.822-0.717,1.591-0.073c0.52,0.596,0.078,1.522,0.099,2.181
		c0.133,4.008,0.567,8.379,0.641,12.74c0.102,6.038-0.567,12.828-0.755,19.35C124.849,43.784,125.075,44.314,125.035,44.394z
		 M118.147,107.962c-0.74,0.112-1.526,0.198-2.274,0.233c-1.401,0.066-2.858,0.036-4.336,0.106c-0.331,0.016-1.552,0.384-1.93,0.327
		l-0.454-0.448c-0.343,1.017-1.191,0.388-2.128,0.516c-0.268,0.037-0.484,0.402-0.906,0.362c-0.14-0.013-0.017-0.619-0.435-0.445
		c-0.567,1.167-0.482,0.29-1.083,0.298c-0.127,0.002-0.311,0.236-0.474,0.257c-0.883,0.113-1.746,0.338-2.632,0.354l-0.045,0.39
		c-0.362,0.107-0.07-0.676-0.537-0.43c-0.639,0.337,0.32,0.887-1.411,0.216c0.188,0.856-0.352,0.55-0.642,0.759
		c-0.593,0.428-0.032,1.81-0.054,2.383c-0.225,5.762-0.734,11.536-1.541,17.1c-0.056,0.388-0.488,0.738-0.364,1.221
		c0.472,0.098,0.708-0.552,0.953-0.886c4.37-5.937,8.767-10.93,13.999-16.141c1.77-1.763,4.233-3.588,5.867-5.405
		C117.938,108.488,118.23,108.351,118.147,107.962z"/>
	<path d="M21.567,33.065c-0.613,1.029-1.344,1.558-1.191,2.997c0.085,0.802,1.058,2.472,1.459,3.322
		c0.159,0.338,0.566,0.572,0.652,0.866c0.17,0.582,0.245,2.137,0.026,2.714c-0.491,1.294-1.493,2.834-2,4.33
		c-0.477,1.407-0.864,3.498-0.212,4.891c0.421,0.898,1.79,2.427,2.083,3.563c0.98,3.805,0.068,4.284-1.038,7.348
		c-0.719,1.992,0.155,6.033,0.01,8.507c-0.102,1.741-0.358,4.106-0.617,5.839c-0.149,0.999-0.829,2.412-0.811,3.531
		c0.025,1.521,1.462,3.115,1.851,4.434c0.696,2.357-0.518,4.319-0.832,6.551c-0.141,1.001-0.295,3.902-0.279,4.835
		c0.005,0.295,0.752,1.623,0.881,2.068c0.351,1.208,0.174,1.826,0.211,3.041c-0.91,1.231-1.353,2.796-2.585,3.896
		c-0.446,1.016,0.329,2.348,0.971,3.139c0.752,0.927,1.597,0.941,1.727,2.411c0.049,0.552-0.31,2.377-0.594,2.841
		c-0.262,0.429-0.687,0.516-0.804,0.716c-0.188,0.323-0.058,0.753-0.221,1.082c-0.192,0.387-0.712,0.223-0.776,0.748
		c-0.376,3.063,2.253,5.622,1.976,8.907c-0.14,1.656-1.188,3.717-1.407,5.414c-0.202,1.571,0.636,3.152,0.491,4.725
		c-0.749,0.641-1.582,1.545-2.646,1.247c-1.518-2.822-1.692-5.004-0.937-8.081c0.166-0.676,0.593-1.322,0.72-1.84
		c0.93-3.792-2.446-7.033-1.5-10.868c0.395-1.599,1.616-2.969,2.198-4.45c-0.639-1.428-2.791-3.211-2.799-4.802
		c-0.007-1.331,1.226-3.64,2.001-4.741c0.263-0.374,0.737-0.368,0.842-0.899c0.196-0.995-0.515-1.779-0.72-2.75
		c-0.999-4.715,0.2-6.237,0.605-10.363c0.24-2.444-0.998-3.407-1.563-5.379c-0.714-2.493,0.91-7.959,1.02-10.999
		c0.097-2.681-0.433-5.653,0.05-8.245c0.325-1.74,1.724-3.916,1.617-5.755c-0.144-2.469-2.741-4.258-2.938-7.488
		c-0.169-2.773,1.673-5.123,2.455-7.472c0.243-0.73-0.064-1.959-0.342-2.666c-0.518-1.317-1.534-2.204-1.695-3.737
		c-0.061-0.583,0.135-1.91,0.311-2.474c0.577-1.849,2.466-2.283,1.283-4.529c-0.952-1.808-1.927-1.751-1.611-4.473
		c0.111-0.961,0.767-1.655,0.912-2.145c1-3.358,0.334-5.443,0.171-8.681c-0.075-1.488,0.035-2.773-0.08-4.242
		c-0.051-0.648-0.113-0.345-0.016-1.176c0.075-0.64-0.398-1.12,0.765-1.515c0.962-0.327,2.078,0.014,2.433,1.022
		c0.129,0.365-0.097,0.646-0.048,0.901c0.856,4.408,1.371,9.617,0.142,14.262c-0.201,0.761-0.827,1.459-0.83,2.231
		c-0.006,1.558,2.108,3.417,2.18,5.24C22.554,31.884,22.008,32.323,21.567,33.065z"/>
	<path d="M121.183,3.455l0.195,2.672l-0.911,0.621c-3.301,0.327-6.953,0.174-10.203,0.477c-1.703,0.159-3.522,0.655-4.995,1.012
		c-0.745,0.181-1.594,0.619-2.396,0.659c-2.644,0.131-3.808-1.399-4.995-3.485C96.724,6.17,95.28,7.26,93.84,7.295
		c-2.067,0.05-3.278-1.412-5.733-0.833c-1.531,0.361-2.759,1.247-4.137,1.847c-0.067,0.029-0.079,0.278-0.246,0.33
		c-1.504,0.466-2.782,0.4-4.172-0.303C78.097,7.6,76.586,5.974,75.06,5.71c-2.292-0.398-4.25,2.906-7.429,1.971
		c-1.638-0.482-2.558-2.458-4.227-2.504c-1.257,0.294-2.179,1.393-3.498,1.721c-2.208,0.55-3.936-0.686-5.994-0.355
		c-3.439,0.554-5.006,3.693-8.883,2.276c-1.208-0.442-2.811-2.618-3.962-2.275c-0.107,0.032-0.073,0.319-0.257,0.37
		c-0.722,0.201-2.481,0.47-3.215,0.338c-1.714-0.308-2.102-1.3-4.329-1.191c-3.072,0.15-5.451,1.378-8.726,1.355
		c-0.45-0.003-0.73,0.64-1.573-0.179c-0.04-0.039-0.625-0.853-0.649-0.903c-0.233-0.487-0.354-1.378-0.189-1.874
		c0.195-0.588,2.443-0.367,3.111-0.478c1.345-0.223,2.818-0.663,3.991-0.836c1.58-0.233,4.607-0.838,6.056-0.413
		c0.759,0.223,1.886,1.061,2.766,1.153c0.87,0.091,2.139-0.725,3.078-0.819c2.464-0.245,4.398,2.983,6.441,2.773
		c0.252-0.026,3.07-1.68,3.71-1.93c2.753-1.077,4.911-0.95,7.734-0.054c2.217-1.55,4.474-3.068,7.15-1.432
		c0.676,0.413,1.061,1.128,1.695,1.557c2.052,1.391,3.59-1.066,5.795-1.547c4.142-0.903,6.487,3.382,8.177,3.315
		c0.379-0.015,1.811-0.977,2.38-1.214c1.846-0.766,4.493-1.783,6.491-1.51c0.864,0.118,1.622,1.231,2.816,1.077
		c0.86-0.111,2.142-1.365,2.897-1.674c1.666-0.683,3.587-0.127,4.567,1.386c0.48,0.741,0.362,1.761,1.442,1.826
		c0.892,0.053,2.616-0.951,3.606-1.184c2.53-0.596,6.077-0.636,8.752-0.786c1.305-0.073,2.788-0.332,3.933-0.372
		C119.419,3.274,120.39,3.629,121.183,3.455z"/>
	<path d="M73.483,31.133c-2.603,3.377-6.129,6.613-8.859,9.685c-3.91,4.401-7.416,8.803-11.151,13.312
		c-1.7,2.052-2.784,3.465-5.678,3.768l-0.284-0.512c-0.639,0.261-1.587,0.276-2.111-0.211c-0.246-0.227-0.157-0.619-0.413-0.849
		c-0.654-0.589-1.838-0.973-2.804-1.93c-2.323-2.3-8.484-8.763-9.241-11.72c-0.945-3.692,0.41-6.814,4.453-7.068
		c0.806-0.051,3.85,0.758,4.621,1.145c0.702,0.352,0.967,1.148,1.086,1.213c0.363,0.202,0.971-0.103,1.354,0.108
		c0.097,0.054,0.159,0.395,0.318,0.512c0.901,0.661,1.655,1.402,2.518,2.095c0.794-1.33,2.103-2.362,3.031-3.514
		c1.94-2.406,3.706-5.011,5.717-7.369c2.724-3.195,8.627-10.287,12.593-11.397c1.591-0.445,3.468-0.813,5.014-0.195
		c1.287,0.514,3.089,3.059,3.235,4.455C77.192,25.639,75.255,28.834,73.483,31.133z M71.848,22.539
		c-0.065-0.037-1.372,0.033-1.484,0.061c-2.321,0.583-7.831,6.739-9.62,8.751c-3.574,4.018-7.592,10.404-11.307,13.775
		c-0.208,0.188-0.276,0.629-0.559,0.768c-0.517,0.254-2.641,0.11-3.091-0.19c-0.162-0.108-0.215-0.518-0.415-0.666
		c-1.81-1.338-4.243-4.203-6.329-4.584c-0.62-0.113-2.046-0.184-1.768,0.792c0.035,0.124,1.225,1.909,1.413,2.158
		c1.039,1.373,3.031,3.152,4.375,4.414c0.938,0.88,1.578,1.188,2.302,1.82c0.52,0.454,0.605,1.367,0.899,1.648
		c0.216,0.206,0.673,0.151,0.849,0.363c0.27,0.324-0.087,0.994,0.891,0.908c1.557-0.137,2.545-2.738,3.437-3.853
		c3.371-4.212,7.102-8.444,10.759-12.505c2.684-2.981,6.139-5.792,8.581-9.109c0.412-0.559,1.757-2.757,1.802-3.296
		C72.592,23.683,71.911,22.575,71.848,22.539z"/>
</g>
</svg>
