<?xml version="1.0" encoding="iso-8859-1"?>
<!-- Generator: Adobe Illustrator 29.5.1, SVG Export Plug-In . SVG Version: 9.03 Build 0)  -->
<svg version="1.1" id="Ebene_1" xmlns="http://www.w3.org/2000/svg" xmlns:xlink="http://www.w3.org/1999/xlink" x="0px" y="0px"
	 viewBox="0 0 141.732 141.732" style="enable-background:new 0 0 141.732 141.732;" xml:space="preserve">
<g>
	<path d="M116.58,41.095c0.211,0.19,1.216,1.843,1.192,2.112c-0.312,1.134-1.936,1.48-1.548,2.791
		c0.253,0.852,2.202,1.451,2.516,2.634c0.413,1.556-0.168,2.239-0.218,3.496c-0.056,1.403-0.205,3.793,0.346,5.024
		c0.943,2.108,3.606,2.156,5.24,3.407c2.213,1.694,0.851,3.853,0.714,6.047c-0.133,2.145,0.624,3.221-0.418,5.426
		c-1.082,2.288-2.85,2.205-5.01,1.889c-0.639-0.094-1.336-0.819-2.215-0.231l-15.229,9.326c-0.475,1.47,2.792,6.161,3.524,7.629
		c1.81,3.633,1.516,5.286,4.989,8.099c1.803,1.46,6.331,3.81,7.253,5.601c1.096,2.128,0.643,7.984-0.972,9.808
		c-1.582,1.786-5.432,4.485-7.466,6.089c-2.014,1.588-4.117,3.057-6.159,4.609c0.754,4.146,6.122,10.948-0.816,12.454l-8.077-2.929
		c-0.34-0.128-0.676-0.109-1.03-0.084c-1.697,0.12-6.921,3.791-9.107,4.7c-0.494,0.206-2.21,0.915-2.595,0.891
		c-0.222-0.014-2.603-1.08-2.95-1.274c-1.339-0.749-4.121-3.628-5.476-3.412c-0.714,0.113-1.448,2.081-1.939,2.755
		c-0.909,1.247-2.878,2.93-4.429,2.451c-2.626-0.811-3.819-4.241-6.134-4.85c-0.784-0.206-3.035-0.217-3.871-0.116
		c-0.587,0.071-0.991,0.434-1.418,0.477c-1.824,0.183-4.145-3.792-5.173-3.946c-1.169-0.175-1.969,3.027-3.912,3.255
		c-0.462,0.054-1.031,0.05-1.427-0.23c-0.693-0.491-0.318-1.834-1.153-1.902c-0.564-0.045-3.034,1.213-3.91,1.478
		c-4.937,1.492-8.091-0.055-8.843-5.321c1.502-7.45,4.815-14.441,7-21.71c-0.24-1.046-10.122-2.943-11.71-3.476
		c-2.89-0.97-4.882-4.272-4.872-7.3c0.008-2.3,1.916-2.118-0.561-4.562c-1.203-1.187-2.823-2.571-2.888-4.545
		c-0.009-0.271,0.236-2.309,0.309-2.463c0.25-0.523,2.363-1.446,2.935-1.973c2.584-2.38-0.915-3.557-2.353-5.148
		c-1.263-1.398-2.179-3.496-2.329-5.381c-0.187-2.338,1.014-2.407,1.907-4.166c2.104-4.147,0.673-5.361,0.02-9.215
		c-0.781-4.602,0.635-8.082,5.669-8.468c2.584-0.198,5.248,0.967,5.489-2.695c0.16-2.429-1.602-3.53-1.613-4.431
		c-0.003-0.273,1.291-4.39,1.494-4.798c1.107-2.227,6.758-4.589,7.119-6.908c0.112-0.723-0.769-4.01-1.192-4.27
		c-1.022-0.629-1.551,1.335-2.788,0.329c-1.304-1.061-1.024-2.81-0.133-4.029c0.825-1.129,6.892-4.829,8.241-4.972
		c2.454-0.26,5.628,2.196,7.793,3.157l0.676-0.242c-0.255-0.916-0.368-2.5-0.093-3.409c0.03-0.1,0.895-1.764,0.959-1.846
		c0.395-0.509,1.95-0.766,1.934-1.568c-0.013-0.62-0.79-0.74-1.131-1.128c-1.226-1.393-0.857-4.006,1.17-4.209
		c-0.218-0.719-0.832-0.648-1.286-1.05c-1.929-1.705-4.456-4.414-1.36-6.508c3.354-2.269,11.593-0.313,14.96,1.555
		c2.368,1.314,1.637,3.926,2.875,6.005c3.645,0.097,8.205-1.396,8.206,3.971c0,1.245-1.312,5.277,0.562,5.282
		c1.03,0.003,0.703-0.748,1.072-1.29c0.464-0.681,5.818-2.068,6.98-2.836c1.42-0.937,2.586-5.193,4.976-4.735
		c0.809,0.155,2.287,1.321,2.974,1.015c1.162-0.519,1.177-4.577,2.596-5.367c1.562-0.869,4.448-0.235,5.585,1.158
		c1.705,2.091-0.583,3.053,0.226,4.444c0.919,1.58,4.304,1.559,5.16,2.556c0.39,0.455,0.151,1.55,1.033,2.005
		c0.083,2.607,3.038,1.325,4.561,2.217c0.211,0.124,1.795,2.298,2.006,2.668c1.002,1.76,2.294,8.686,1.967,10.629
		c-0.216,1.279-4.523,5.418-4.412,6.057C111.545,39.69,115.454,40.081,116.58,41.095z M71.309,18.938c0.014-1.713,0-3.428,0-5.142
		c0-0.043-0.242-0.565-0.39-0.604c-2.949,0.461-4.968,1.392-7.083-1.272C62.444,10.168,63,9.166,62.662,7.252
		c-0.218-1.232-2.09-0.15-2.933-0.109c-2.483,0.119-2.223-2.064-4.216-2.335c-1.1-0.149-4.28,0.546-2.841,2.035
		c0.622,0.643,3.334,1.221,3.777,2.636c0.694,2.218-1.698,2.6-1.466,3.792c0.171,0.882,3.491,3.221,3.145,4.856
		c-1.249,2.262-2.975,2.134-5.25,1.897c-0.834,1.909,1.098,4.771-0.98,6.147c-1.832,1.214-4.435,0.265-6.049-0.938
		c-0.784-0.585-1.396-2.038-2.241-2.199c-2.278-0.434-3.954,0.693-5.719,1.868c0.043,0.839,0.914,0.789,1.287,1.629
		c1.799,4.054,0.19,8.887-3.035,11.694c-1.25,1.088-4.171,2.379-4.08,4.282c0.13,2.709,1.749,4.575,0.807,7.636
		c-0.832,2.704-2.826,4.9-5.857,4.68c-0.737-0.054-1.482-0.489-2.038-0.431c-0.193,0.02-2.149,0.489-2.271,0.544
		c-1.798,0.803,0.181,4.661,0.232,6.315c0.047,1.509-0.054,4.964-0.458,6.313c-0.387,1.295-2.343,4.899-2.325,5.835
		c0.018,0.929,1.835,2.679,2.566,3.247c2.177,1.691,4.939,1.566,3.598,5.042c-0.979,2.537-2.782,4.239-4.783,5.963
		c1.555,1.562,4.71,4.865,4.384,7.185c-0.116,0.826-0.885,1.874-0.893,2.626c-0.012,1.08,0.887,2.385,1.878,2.811
		c2.323,0.996,6.36,1.475,9.066,2.386c1.074,0.362,3.204,1.628,4.122,1.468c0.41-0.071,0.626-0.503,1.128-0.435
		c0.392,0.052,1.877,0.89,2,1.299c0.152,0.506,0.106,2.128-0.06,2.655c-0.266,0.846-1.257,0.967-1.633,1.639
		c-2.154,3.854-6.545,16.039-6.86,20.273c-0.094,1.267,0.545,1.556,1.703,1.68c3.57,0.382,5.844-2.08,9.116-2.334
		c0.706-0.055,1.681,0.229,2.068,0.166c0.322-0.053,0.845-0.642,1.315-0.765c1.682-0.441,4.644,0.891,5.713,2.25
		c0.199,0.253,0.825,1.607,0.954,1.628c0.747,0.119,0.591-0.534,1.141-0.753c2.14-0.852,6.136,0.628,7.857,2.027
		c0.952,0.774,1.579,1.857,2.482,2.674c2.259-1.837,2.747-4.379,6.133-4.517c4.353-0.177,5.346,2.716,8.795,4.452
		c3.919-1.389,8.141-5.915,12.414-5.976c2.69-0.038,4.909,2.703,7.332,3.253c0.662-3.153-2.735-5.791-2.286-8.938
		c0.436-3.062,6.228-5.733,8.578-7.56c1.66-1.291,5.264-4.801,6.296-6.558c0.72-1.226,0.784-3.058-0.219-4.152
		c-2.275-2.481-6.908-4.468-9.191-7.402c-2.91-3.74-3.982-11.664-7.847-15.057c-1.618-1.421-4.589-1.648-3.928-4.622
		c0.108-0.484,0.958-1.76,1.479-1.811c2.465,0.386,3.258,2.861,5.848,1.888c3.098-1.163,8.559-4.722,11.713-6.515
		c1.874-1.065,4.298-3.412,6.49-3.068c0.841,0.132,1.322,1.049,2.213,0.905c0.684-0.976,0.236-1.534,0.245-2.425
		c0.015-1.473,0.042-2.948-0.019-4.42c-0.142-0.417-1.704-0.591-2.344-0.928c-4.475-2.354-3.192-8.162-3.569-12.329
		c-0.729-0.875-1.699-1.262-2.465-2.205c-1.123-1.383-2.044-3.284-0.116-4.314c0.332-0.754-1.431-0.981-2.001-1.281
		c-2.263-1.191-3.688-3.512-3.739-6.099c-0.05-2.575,4.034-4.29,4.399-5.878c0.316-1.377-0.626-7.499-1.823-8.362
		c-0.527-0.38-2.601-0.906-3.201-0.651c-0.776,0.329-0.904,1.502-1.921,0.631c-0.299-0.256-2.03-2.296-2.062-2.586
		c-0.157-1.45,3.104-3.507-1.335-3.833c-1.423-0.104-2.77,0.193-4.175,0.251l-1.213-2.58c-0.439-0.102-2.375,2.703-4.567,1.998
		c-0.741-0.239-1.023-1.308-1.927-1.034c-1.28,0.877-1.729,3.07-2.985,3.809c-1.202,0.708-3.163,0.843-4.354,1.489
		c-1.327,0.72-1.813,2.404-3.339,2.971c-2.868,1.065-5.342-0.941-7.143-2.934C70.891,19.416,71.308,19.061,71.309,18.938z"/>
	<path d="M90.293,45.164c0.196,0.241,0.572,0.45,0.721,0.793c1.318-2.396,4.749-7.479,7.958-5.848
		c4.71,2.394,0.805,10.807-1.066,14.147c-1.928,3.441-4.621,7.415-7.822,9.705c-4.664-2.882-9.023-8.915-10.286-14.262
		c-1.05-4.448,0.222-9.271,5.737-8.308C88.029,41.827,88.883,43.426,90.293,45.164z"/>
</g>
</svg>
