<?xml version="1.0" encoding="iso-8859-1"?>
<!-- Generator: Adobe Illustrator 29.5.1, SVG Export Plug-In . SVG Version: 9.03 Build 0)  -->
<svg version="1.1" id="Ebene_1" xmlns="http://www.w3.org/2000/svg" xmlns:xlink="http://www.w3.org/1999/xlink" x="0px" y="0px"
	 viewBox="0 0 141.732 141.732" style="enable-background:new 0 0 141.732 141.732;" xml:space="preserve">
<g>
	<path d="M10.744,56.473c0.022,1.506-2.344,1.506-2.321,0C8.401,54.967,10.767,54.967,10.744,56.473z"/>
	<path d="M21.683,49.697c-1.341-2.271,3.063-2.083,1.599-0.163L21.683,49.697z"/>
	<path d="M42.448,81.173c1.946,4.88-9.779,1.372-12.296,1.872c-2.038,0.181-8.845,0.736-7.373-2.733
		C28.899,80.229,36.42,80.059,42.448,81.173z"/>
	<path d="M15.631,81.762c-0.039-1.671,2.155-1.172,0.854,0.12L15.631,81.762z"/>
	<path d="M9.349,66.344c4.53-0.569,9.186,0.599,13.689,0.81c3.498,1.122,24.244-3.919,21.954,1.722
		c-6.879,0.711-15.254,1.144-22.382,1.288c-4.432-0.824-9.484-0.754-13.873-0.962C6.566,68.684,6.645,66.684,9.349,66.344z"/>
	<path d="M14.829,57.626c-1.311-3.024,3.334-2.316,4.984-2.083c5.118,1.114,22.146-3.692,23.788,0.097
		c0.124,1.911-2.431,1.28-3.567,1.402C32.538,57.63,21.932,59.971,14.829,57.626z"/>
	<path d="M47.182,48.17c-1.654,0.709-25.062,3.256-17.232-1.429C33.088,47.523,48.918,42.721,47.182,48.17z"/>
	<path d="M2.967,67.981c-0.365-0.231-0.331-1.722,0.489-1.684C4.547,66.752,3.943,68.597,2.967,67.981z"/>
	<path d="M118.092,102.527c-7.256,7.834-19.889-3.995-15.597-12.48C110.891,79.502,126.117,92.014,118.092,102.527z M114.258,97.832
		c1.752-2.987-4.023-7.929-5.348-2.875c-0.201,0.288-1.351,0.814-0.675,1.208C110.407,98.443,111.077,99.824,114.258,97.832z"/>
	<path d="M55.835,49.299c0.172,13.24,0.818,26.591-0.213,39.772c5.901,0.705,4.94,0.865,10.481-1.663
		c9.374-1.275,12.714,8.33,8.184,15.494c-7.944,9.929-18.459-0.227-13.937-10.388c-3.083,0.681-5.785-0.778-8.803-0.658
		c-1.072-13.914,0.746-28.077,0.206-42.022c-0.092-3.224-0.235-4.026,2.859-5.522c7.024-2.961,15.258-6.657,22.195-9.434
		c0.681,0.009,0.79,0.598,1.293,0.671c2.879-1.299,6.311,0.047,9.45,0.204c8.783,0.752,18.671,1.027,27.274,2.396
		c5.228,0.832,4.117,1.958,4.213,6.537c-0.434,3.051,1.873,9.551-2.857,9.573c-1.403-1.627-0.219-8.783-0.36-10.763L93.675,51.02
		l-0.862,39.559c1.893,0.224,6.662,0.051,7.971,1.393c0.787,0.807-0.519,3.271-0.26,4.489c-0.189,0.603-2.218,0.311-2.871,0.354
		c-3.35-0.149-19.118,0.957-20.068-1.451c0-0.001,0.595-5.551,0.595-5.551l10.55,0.551c0.537-12.622,1.32-25.999,1.195-38.714
		l-6.141-0.847c0.035,3.049-0.05,6.562-0.443,9.556c-0.34,2.253-4.235,1.163-5.91,1.187c-3.796-0.616-9.793,2.208-12.528-0.788
		C65.128,46.787,69.664,49.532,55.835,49.299z M84.213,38.765l-7.789-0.605c-5.262,2.923-11.985,4.968-16.719,7.913l7.313,0.347
		C72.301,43.259,79.527,42.155,84.213,38.765z M97.973,39.841c-2.432,0.184-5.926-0.854-8.228-0.384
		c-4.811,2.384-10.161,4.395-15.146,6.562l-0.274,0.484l6.936,0.166L97.973,39.841z M112.162,41.131l-8.438-0.612L85.72,48.222
		C94.713,50.039,103.556,43.549,112.162,41.131z M79.7,49.728l-10.107-0.43l-0.215,9.247l10.107-0.215L79.7,49.728z M66.743,93.41
		c-3.442,0.513-2.93,8.403,0.041,7.376C69.565,99.886,69.815,93.909,66.743,93.41z"/>
	<path d="M114.261,52.36c0.942,1.395-0.306,2.589-1.662,3.072c-1.492,0.774-20.731,10.351-14.633,3.427
		C102.713,56.548,109.268,53.432,114.261,52.36z"/>
	<path d="M53.832,96.318c-2.948,2.895-11.17-0.623-9.878-4.829c0.998-2.167,3.299,1.112,4.16,1.758
		c0.822,0.618,2.016,1.301,3.074,1.192C52.545,93.534,55.055,94.41,53.832,96.318z"/>
	<path d="M133.394,89.665c-4.409,3.387-12.388,9.268-13.047-0.148c2.089,0.534,5.27-0.188,7.074-1.203
		c0.258-0.226,2.225-2.984,2.545-3.475c0.326-0.677,2.474-3.701,1.481-3.898c-0.966,0.173-3.579,1.172-3.986-0.19
		c-0.73-2.44,4.346-2.855,5.843-3.109l0.33-0.315l0.243-2.228c-3.16,0.265-7.907,0.556-11.283,0.432
		c-1.282,0.073-2.705,0.915-3.969,0.093c-1.639-1.067-0.959-6.623-0.863-8.364c-1.102-6.73,4.234-7.533,9.665-6.782l-1.222-2.538
		c-3.082-0.562-6.123,0.307-9.154,0.82l-1.072,1.343c-0.471,5.229-1.435,10.493-1.461,15.738c-0.009,1.768,0.896,7.811-0.568,8.677
		c-5.328,1.933-1.23-16.305-1.576-19.417c-1.659-7.824,6.5-11.447,13.198-10.613c1.435,0.126,3.315,0.37,4.046,1.758
		c2.248,5.537,6.363,10.912,8.595,16.344C140.684,78.262,133.957,83.796,133.394,89.665z M132.803,72.088
		c-0.892-2.364-3.741-8.132-6.396-8.975c-7.545-1.936-5.337,4.675-5.642,9.405L132.803,72.088z"/>
</g>
</svg>
