<?xml version="1.0" encoding="UTF-8"?>
<svg id="Ebene_1" xmlns="http://www.w3.org/2000/svg" baseProfile="tiny" version="1.2" viewBox="0 0 141.73 141.73">
  <!-- Generator: Adobe Illustrator 29.5.1, SVG Export Plug-In . SVG Version: 2.1.0 Build 141)  -->
  <path d="M25.55,109.08c.41.05.22-.53.23-.82.08-1.83.04-3.67.24-5.49l.46,1.17c-.33-1.82.12-3.49.23-5.26.08-1.17.54-5.73.37-6.43-.02-.09-.83-1.5-.9-1.56-.31-.31-3-1.14-1.34-1.7v-.23c-.74-.37-1.35-1.61-1.98-2.34-.38-.44-2.3-2.62-2.56-2.82-.24-.18-.54-.22-.83-.22l.36-.69c-2.95-3.61-5.96-7.18-8.64-11.01-2.47-3.54-6.53-9.2-8.35-12.91-.38-.78-.87-2.74-1.11-3.05-.16-.22-.48-.13-.72-.15v-1.16c.9.51.92-1.08,1.16-1.28.26-.22.77-.24.9-.42s0-.59.05-.64c.05-.05.71.27,1.17.14s1.45-.97,2.05-1.24c4.89-2.2,10.11-3.67,15.23-5.22l-.23-.46,14.02-3.51-.93-.23c0-.25-.06-.49.1-.71.23-.32,4.51-.83,5.32-.99.6-.12,1.68-.66,2.18-.62s.64.57.94.63c1.25.24,1.14-.52,1.44-1.04,3.31-5.63,6.67-11.22,10.14-16.74,4.03-6.41,8.18-12.44,13.04-18.27-.29-.56-1.33-.31-1.16-1.05.38-.17,1.7-.04,1.88-.13.4-.19.46-1.06,1.04-1.05l1.52,1.18-.12-.93c.32,1.11.98,1,1.53,1.51,6.79,6.24,10.72,14.43,15.55,22.07,3.14,4.98,6.6,9.76,9.92,14.61l11.67,2.47-.47.7c3.47.9,7.08,1.43,10.52,2.45,4.93,1.47,11.99,3.25,16.51,5.22,1.5.65,1.91,1.73,3.81.74-.36.86.86,1.44.91,1.79.04.25-.39.56-.44.91-.41,2.74-.33,1.41-1.46,3.21-1.51,2.4-2.77,5.35-4.29,7.87-4.07,6.71-9.45,14.62-14.16,20.89-.66.88-2.89,2.71-2.77,3.76.06.52.87,1.34.43,2.2-.95.53-1.36.2-2.07-.43l.47,45.44-.47-.12-.22.83.44.11v.46c-.44.34-.84.37-1.31.56-.08.03-.07.31-.23.36-.42.14-5.37-.37-6.23-.48-8.37-1.15-17.05-5.2-25.21-7.5-1.43-.4-2.87-.97-4.38-.87l.46-.46c-.64-.58-1.83-.61-2.32-.83-.72-.33-2.58-1.66-3.41-1.65-.87,0-2.95,1.27-4.25,1.25-.48,0-.75-.44-1.3-.36-.76.11-3.13,1.31-4.2,1.66-6.46,2.11-13.15,4.2-19.71,5.99-4.58,1.26-11.4,3.38-15.93,3.94-1.03.13-2.36.05-2.9-.95-.18-.33-.79-2.31-.79-2.62,0-.43.36-.97.38-1.63.12-5.8-.45-11.82-.02-17.54.22-2.91,1.31-5.31.23-8.41l.48-3.85v3.97ZM10.82,52.07c-1.67,1.19-4.66,1.35-6.55,2.45-.47.42.3,1.51.55,2.03,1.86,3.9,4.06,6.71,6.51,10.08,3.57,4.89,7.29,10.17,11.08,14.86,1.85,2.29,4.2,4.42,5.94,6.68.57.74.88,2.05,1.86,2.59l-.47,1.14c1.71.8.16,1.82.01,2.58-.33,1.71-.1,4.87-.24,6.77-.63,8.71-1.59,17.44-1.88,26.16-.03,1.04-.14,9.86.37,9.95,9.16-2.08,18.27-4.6,27.21-7.49l-.46-.46c1.06-.04,2.04-.59,3.03-.83,3.37-.85,7.06-1.91,10.34-3.38.24-.11.27-.48.58-.64,2.4-1.19,7.5,1.45,10,2.29,1.81.61,3.67,1.09,5.5,1.63.06-.05-.38-.56-.4-.84-.15-1.52.55-4.7.55-6.55,0-1.46-.37-3.22-.39-4.62-.04-3.42.33-6.8,0-10.18-1.07.74-.01-1.65.14-1.85.59-.8,3.87-2.11,4.95-2.53,7.35-2.86,14.89-4.22,21.54-9.07,7.56-9.92,15.79-19.33,22.4-29.94.85-1.36,2.02-3.35,2.7-4.77.53-1.1,1.5-2.64.53-3.63-.8-.82-4.81-2.22-6.11-2.66-2.11-.72-4.32-1.16-6.43-1.87l.23-.46c-.44.08-.7.21-1.17.14-3.82-.51-10.01-2.69-14.06-3.72-3.59-.91-7.17-1.55-10.71-2.61-.75-.23-1.53-.46-2.23-.81-2.95-5.01-6.31-9.75-9.41-14.66-4.11-6.51-7.69-13.43-12.67-19.34-1.34-1.59-2.79-4.24-4.79-2.23-7.07,7.1-13.2,19.1-18.47,27.79-.75,1.24-1.69,2.38-2.44,3.63-1.02,1.71-1.81,3.6-2.91,5.26l-.23-.93c-9.09,3.29-18.87,4.76-28.16,7.59-1.57.48-3.09,1.09-4.67,1.52l.7.46c-.65.16-1.17.41-1.87.47.11-.08.17-.32.47-.24v-.23s-1.16.23-1.16.23c-.07.37.47.25.7.23ZM113.61,136.4l-.56-42.75c-.28.6-.82,1.12-1.11,1.7-.36.72-.56,1.67-.94,2.22-2.82,4.08-5.64,8.34-8.6,12.31-4.53,6.08-8.39,12.95-13.08,18.71-.18.22-.17.68-.27.77-.21.17-1.43.1-1.58.98,8.54,2.28,16.82,5.95,25.7,6.78l-.23-.7h.68ZM106.16,98.8c-1.24.42-2.29,1.26-3.51,1.75-3.5,1.4-7.54,2.16-11.1,3.39-1.43.49-2.63,1.27-4.08,1.64-.08.44.44.11.65.27.08.06.34,1.06.28,1.12-1.67-.59-1.49,2.13-1.69,3.1-.14.71-.6,1.04-.67,1.91-.18,2.25.76,6.18.95,8.66.06.73-.03,1.48,0,2.22l2.33-1.87c-.66,1.42-2.3,2-1.87,3.74.83-.58,1.07-1.68,1.63-2.45,2.46-3.34,5.94-6.42,8.5-9.72,2-2.59,3.36-5.25,5.05-8.04l-.93-.23c.21-.68,1.59-1.12,1.74-1.28.29-.31.6-1.15.96-1.62.27-.35,2.08-2.23,1.73-2.59Z"/>
  <rect x="77.6" y="129.29" width=".31" height="1.63" transform="translate(-64.87 181.41) rotate(-78.92)"/>
  <path d="M52.88,130.11c-.19.55-1.23.37-1.63.23l1.63-.23Z"/>
  <path d="M112.46,96.46c.15.17-1.04,1.94-1.4,2.1.04-.58.51-1.16.82-1.64.08-.12.2-.9.58-.46Z"/>
  <path d="M91.91,118.19c.05-.9.65-1.67,1.4-2.1-.09.78-.83,1.59-1.4,2.1Z"/>
  <rect x="96.09" y="108.85" width="1.32" height=".34" transform="translate(-48.75 100.34) rotate(-45)"/>
  <path d="M94.94,113.05v.46s-.7.24-.7.24c-.08-.43.26-.77.7-.7Z"/>
</svg>