<?xml version="1.0" encoding="iso-8859-1"?>
<!-- Generator: Adobe Illustrator 29.5.1, SVG Export Plug-In . SVG Version: 9.03 Build 0)  -->
<svg version="1.1" id="Ebene_1" xmlns="http://www.w3.org/2000/svg" xmlns:xlink="http://www.w3.org/1999/xlink" x="0px" y="0px"
	 viewBox="0 0 141.732 141.732" style="enable-background:new 0 0 141.732 141.732;" xml:space="preserve">
<g>
	<path d="M103.544,12.692c8.986,0.07-4.03,7.464-6.549,8.204c-1.593,0.805-9.281,6.692-6.065,1.544
		C92.721,19.917,100.582,13.202,103.544,12.692z"/>
	<path d="M109.548,34.603c10.493-0.928,3.945,6.065-2.841,4.786C97.129,38.872,105.508,35.089,109.548,34.603z"/>
	<path d="M91.332,1.165c1.757,1.214-3.819,14.142-5.686,12.83C85.459,11.951,87.378-0.265,91.332,1.165z"/>
	<g>
		<path d="M73.5,21.762c18.471,15.944,30.548,42.716,21.453,66.72c-1.804,0.897,1.206-5.468,0.124-5.758
			c-2.303,15.876-12.486,32.138-28.349,37.126c-0.588,4.369,2.927,15.426,2.753,20.278c-0.998,0.242-0.853-0.733-1.21-1.09
			c-0.8-0.802-1.309,0.189-1.096,1.089l-0.687-0.921l-0.239,1.385c-4.329,2.199-5.162-18.054-5.803-21.167
			c-25.895-7.481-36.77-26.754-28.708-52.662c3.202-19.567,24.804-31.548,30.302-49.926C63.025,4.509,69.547,18.994,73.5,21.762z
			 M74.095,26.006l-6.222-7.145C69.331,21.428,71.524,24.615,74.095,26.006z M66.028,114.077
			c27.408-12.871,33.678-54.149,16.13-77.342c-6.279-6.257-13.321-9.472-17.051-17.643c-1.719,8.624-6.67,16.036-13.263,21.667
			c-20.658,22.125-24.455,61.374,8.416,73.778l-0.276-12.517c-3.1-2.975-14.448-15.312-13.204-19.069
			c1.004-0.206,4.573,4.981,5.407,5.886c2.506,2.717,5.763,5.115,8.424,7.715c0.522,0.096,0.318-0.228,0.343-0.571
			c-0.172-3.807,0.676-7.572,0.769-11.373c-4.311-5.855-13.387-13.403-14.552-20.838c0.035-2.317,2.107-1.001,2.948,0.161
			c3.061,4.687,7.54,9.316,12.216,12.333c0.409-4.504,2.88-11.7,3.466-15.743c-2.789-2.033-7.459-7.419-6.651-11.187
			c2.529-1.553,6.746,7.89,8.257,8.257c2.076-4.243,3.928-8.501,5.292-13.039c0.369-1.228,0.235-3.626,1.857-3.33
			c-0.121,7.243-2.668,14.098-4.609,20.979c1.844-0.709,3.209-3.186,4.837-4.498c2.056-1.509,4.986-4.178,6.457-5.993
			c4.507,0.504-11.356,15.728-13.238,17.196c-1.479,6.112-1.513,12.462-2.208,18.654c5.476-2.745,10.847-6.465,16.678-8.709
			c4.462,3.632-14.114,13.798-16.794,16.549L66.028,114.077z M51.963,38.225c1.991-0.966,4-3.553,5.07-5.531
			C55.106,34.3,53.482,36.24,51.963,38.225z M44.816,46.068c-6.35,5.258-11.045,14.562-11.986,23.051L44.816,46.068z M43.43,107.16
			c-6.49-8.538-11.571-15.765-11.753-27.203C30.538,90.111,35.09,101.221,43.43,107.16z M75.709,112
			c8.219-5.807,13.835-15.248,16.366-24.896C88.051,96.208,83.113,105.22,75.709,112z M68.562,89.411
			c-0.425-0.092-3.277,1.363-2.765,1.841C66.83,91.006,67.825,90.143,68.562,89.411z M59.108,116.155l-11.064-5.073
			c2.955,2.295,6.957,3.718,10.366,5.195C58.626,116.355,59.161,116.58,59.108,116.155z M66.254,135.517L63.723,123.3
			C64.068,127.306,64.054,132.076,66.254,135.517z"/>
	</g>
</g>
</svg>
