<?xml version="1.0" encoding="iso-8859-1"?>
<!-- Generator: Adobe Illustrator 29.5.1, SVG Export Plug-In . SVG Version: 9.03 Build 0)  -->
<svg version="1.2" baseProfile="tiny" id="Ebene_1" xmlns="http://www.w3.org/2000/svg" xmlns:xlink="http://www.w3.org/1999/xlink"
	 x="0px" y="0px" viewBox="0 0 1024 1024" xml:space="preserve" class="icon icon-search" fill="none">
<g>
	<path fill="currentColor" fill-rule="evenodd" d="M459.609,639.293c-133.073,15.744-249.773-91.796-256.014-223.605c-6.436-135.913,109.056-242.305,244.748-227.331
		C621.537,207.47,725.06,370.604,634.744,527.859l-18.092,24.435c0.501,9.86,21.002,16.554,21.411,24.617
		c0.065,1.281-3.067,2.24-2.21,4.381c0.237,1.139,5.875,7.938,6.943,8.764c2.603,2.012,8.541,1.183,12.134,2.044
		c12.097,2.899,24.967,22.102,33.782,31.407c32.488,34.293,65.719,68.617,97.152,103.952c8.152,9.164,29.084,31.336,32.938,41.495
		c7.854,20.702-10.732,42.111-26.405,53.18c-42.468,29.994-56.61,10.512-86.328-20.96c-41.495-43.945-81.214-90.474-121.043-135.76
		c-2.675-11.375-7.236-23.676-18.276-29.017l-19.818-25.392C519.394,624.85,490.36,635.655,459.609,639.293z M428.008,196.108
		l-19.572,1.107l-2.468,2.355L428.008,196.108z M330.342,234.931c-31.822,14.353-55.534,41.29-73.979,70.116
		c-60.193,94.07-21.754,216.508,67.571,277.173c101.507,68.938,243.239,26.185,299.079-80.717
		c68.016-130.212-28.131-269.899-165.664-288.228c-20.953-2.792-43.345-4.157-63.847,1.809l2.222,1.623l-32.574,6.674l-24.064,9.954
		l2.879-5.52c-4.017,2.781-8.345,5.53-13.348,5.363L330.342,234.931z M250.777,285.415c2.135-3.063,7.364-6.061,6.622-10.178
		c-1.888-1.022-16.52,21.955-17.691,24.645c-0.655,1.505-1.986,2.533-0.929,4.347C243.079,298.229,246.564,291.459,250.777,285.415z
		 M633.4,319.628c-1.046-2.821-4.012-4.336-5.485-6.653c-1.833-2.883-2.531-8.131-6.284-8.873
		c3.842,8.617,10.683,15.509,12.487,24.984L633.4,319.628z M225.114,481.466c0.071,0.224,2.396,1.358,2.593,0.917
		c-2.355-3.654-2.371-8.282-3.704-12.118c-1.003-2.888-2.533-4.465-3.004-7.629c-0.343-2.302-0.206-1.43-2.011-0.644
		L225.114,481.466z M240.962,515.221c0.691,1.099,1.001,3.442,2.541,2.678c-1.771-4.701-3.453-9.84-6.388-13.976
		c-1.125-1.584-0.4-2.926-3.104-1.53C236.823,506.392,238.352,511.072,240.962,515.221z M659.652,437.924
		c0.782-3.371,2.586-12.79-1.145-14.701l-0.815,17.596C660.675,440.517,659.278,439.537,659.652,437.924z M583.454,609.2
		c1.631,5.402,7.276,3.896,8.816,9.4l10.45-3.15c-0.003,2.356-4.3,2.091-5.533,4.581c-1.466,2.963,2.583,6.026-1.946,4.691
		l9.905,13.092l27.589-22.579l-11.419-14.406l-6.17,2.598c-1.059-2.122,0.925-4.013,0.094-6.182
		c-1.673-4.37-5.975-3.444-0.325-9.431l-4.089-5.613c-3.4-0.959-14.083,13.164-18.935,13.497l12.689-12.102l3.992-4.715
		c-5.32-5.278-7.556-1.604-12.044,2.088c-3.622,2.98-22.684,20.091-23.483,22.956c-0.461,1.652-0.047,1.885,1.364,2.523
		c4.993,1.393,10.278-8.699,15.71-9.013C588.505,601.843,581.666,603.278,583.454,609.2z M506.6,613.301
		c5.915-2.065,12.809-5.963,18.812-8.259c-1.655-2.467-6.447,2.04-7.886,2.493l-16.316,5.132
		C501.718,614.412,505.517,613.679,506.6,613.301z M620.765,635.846c1.988-1.608,4.407-4.883,6.742-7.083
		c1.211-1.141,3.109-0.242,1.56-3.099l-12.732,10.956C616.777,638.714,619.956,636.501,620.765,635.846z M633.722,664.838
		c2.666,1.061,8.553,6.558,5.074,8.563l-12.655,1.775c4.685,7.123,13.979,1.671,19.618,3.705
		c2.186,0.789,11.104,10.234,7.836,11.944l-13.397-0.418c-0.207,0.518,4.797,6.295,5.495,6.747
		c2.182,1.413,15.956-0.091,18.94,1.215c1.923,0.842,2.328,3.071,3.729,4.368c0.215,0.199,6.75,2.45,1.734,3.754
		c-4.793,1.247-11.105-2.38-15.357,0.733c10.155,10.072,22.27,0.987,31.546,13.758c1.023,1.408,2.618,3.175-0.082,3.553l-17.25-1.52
		c2.984,2.04,4.959,6.468,7.443,8.491c4.558,3.714,14.729,0.819,20.427,3.016c1.805,0.696,10.371,6.276,9.481,7.959l-19.864-0.686
		c-0.275,0.715,6.319,7.679,7.451,8.476c6.016,4.234,18.139,0.711,25.403,6.974c1.81,1.56,3.297,4.723,4.949,5.712
		c2.408,1.442,6.153-1.075,4.85,2.258c-6.262,4.703-14.244-1.102-20.188-1.555c-4.264-0.325,1.712,3.749,2.174,4.278
		c1.576,1.805,4.69,7.244,5.993,7.912c2.284,1.171,14.115,0.216,18.285,1.217c4.038,0.97,11.563,5.574,8.76,10.174l-17.579-2.524
		c2.638,1.942,5.716,7.112,8.364,8.412c3,1.473,13.374-0.056,18.648,1.365c3.842,1.035,11.335,4.539,8.283,9.104l-13.812-0.188
		c-0.054,6.242,15.23,7.554,19.552,6.523c8.297-1.979,28.272-24.938,26.913-33.385c-0.278-1.729-0.853-3.377-1.749-4.883
		L655.115,622.081l-2.86,0.201c-11.938,12.776-23.822,25.884-38.246,35.989C615.58,669.447,625.904,661.727,633.722,664.838z
		 M690.744,643.238l-11.159-11.485c2.84,6.101,7.455,11.057,11.944,15.893L690.744,643.238z M719.816,789.137
		c0.388-3.507-11.515-11.369-13.098-8.598L719.816,789.137z M724.888,779.444c0.581,3.469,13.078,5.088,13.879,3.725
		C740.63,780,726.027,780.237,724.888,779.444z M758.348,801.308c2.083-3.729-16.014-2.867-17.04-2.725
		C745.936,802.597,752.844,799.487,758.348,801.308z M768.558,817.621c5.702-2.52,12.28-6.879,16.921-10.964l1.974,4.04
		l-5.227,3.936c0.336,1.957,2.698,0.311,3.67-0.283c1.301-0.794,6.533-5.421,6.613-6.69c0.095-1.502-2.351-3.131-2.604-5.082
		c-0.211-1.629,6.222-5.092,4.511-7.984c-2.831,1.363-3.734,4.687-6.029,6.967c-7.772,7.721-17.479,13.934-28.212,16.529
		C757.51,821.875,767.481,818.097,768.558,817.621z"/>
	<path fill="currentColor" fill-rule="evenodd" d="M590.175,316.315c95.86,142.138-44.907,311.661-203.79,269.331c-95.258-25.379-158.118-136.504-130.574-231.608
		c14.052-48.519,61.885-97.977,110.491-112.623C448.61,216.614,541.607,244.3,590.175,316.315z M330.884,277.026
		c5.785-4.667,12.682-7.215,18.593-11.434c0.99-0.707,3.094-1.263,2.369-2.702c-13.084,4.867-25.825,13.898-33.591,25.581
		C323.687,286.309,326.321,280.707,330.884,277.026z M333.917,531.008c92.918,78.824,244.7,26.43,261.72-95.698
		c15.187-108.974-99.644-198.814-201.879-176.022C260.936,288.899,234.043,446.284,333.917,531.008z M466.185,253.714
		c7.608-0.93,14.009,3.522,21.516,3.434l-4.099-3.092l-24.404-2.964L466.185,253.714z M558.266,296.583l-9.333-6.624
		c2.277,6.415,10.484,8.259,13.717,14.179C565.187,301.876,559.123,298.404,558.266,296.583z M595.356,357.031
		c-5.161-12.632-11.672-24.853-18.863-36.415l-8.696-11.142c3.747,8.169,9.631,15.25,13.888,23.124
		c4.177,7.726,7.319,15.801,11.591,23.552c0.865,1.569,1.117,2.181,0.867,4.015C597.005,359.689,596.24,359.196,595.356,357.031z
		 M595.509,346.589c0.447,1.008,3.731,13.632,5.334,9.16c-1.83-4.833-4.066-10.501-6.815-14.842
		c-1.057-1.668-0.181-3.159-3.013-1.715C592.723,341.452,594.356,343.99,595.509,346.589z M607.505,457.768l5.339-27.116
		c-2.332,0.219-2.119,1.822-2.606,3.472c-1.176,3.984-1.355,12.382-2.32,15.071C606.786,452.348,603.028,451.98,607.505,457.768z
		 M602.847,443.039c-2.833,8.196-7.132,16.468-7.041,25.35C599.132,460.642,603.295,451.665,602.847,443.039z M477.372,577.353
		c-0.341-1.676-3.258-0.608-4.566-0.491c-6.376,0.568-12.121,2.903-18.343,3.104l0.154,2.238L477.372,577.353z"/>
</g>
</svg>
