<?xml version="1.0" encoding="iso-8859-1"?>
<!-- Generator: Adobe Illustrator 29.5.1, SVG Export Plug-In . SVG Version: 9.03 Build 0)  -->
<svg version="1.1" id="Ebene_1" xmlns="http://www.w3.org/2000/svg" xmlns:xlink="http://www.w3.org/1999/xlink" x="0px" y="0px"
	 viewBox="0 0 141.732 141.732" style="enable-background:new 0 0 141.732 141.732;" xml:space="preserve">
<g>
	<path d="M119.873,4.71c-0.013,28.903,1.405,59.291-0.75,88.027c-0.787,0.387-1.671,0.229-1.24-0.81
		c-0.035-0.191-0.369-0.356-0.455-0.613c-1.196-26.234-0.069-53.826-0.045-79.932C112.635,38.474,90.39,58.495,74.71,79.919
		c-13.075,12.945-23.965,32.646-43.209,36.41c13.34,1.29,28.321-1.162,41.567,1.188c1.585,1.84-2.968,0.065-3.437,0.987
		c1.265-0.033,2.716,0.079,3.797,0.653l-0.073,0.624c-18.672,0.623-37.363,0.378-56.109-0.184c-0.74-0.921-3.442-1.857-2.298-3.149
		c-0.017-0.198-0.295-0.456-0.324-0.767c0.441-37.063-1.632-75.716,1.32-112.262c0.675,0.571,1.268,0.061,2.016,0.311l0.403-1.081
		c31.631-0.578,63.428-1.062,95.123-0.885c3.273-0.401,5.185-1.037,5.804,2.722C119.432,4.672,119.758,4.613,119.873,4.71z
		 M97.227,2.304c-3.918,0.237-7.871-0.022-11.803,0.271c3.727,0.173,7.644,0.141,11.353,0.091C97.14,2.642,97.301,2.81,97.227,2.304
		z M103.582,2.305c-1.5-0.053-4.727,0.007-6.171,0.359C98.907,2.756,102.081,2.503,103.582,2.305z M73.805,3.212
		c-4.188-0.055-8.344,0.192-12.529,0.271C65.347,3.55,70.01,3.833,73.805,3.212z M116.654,3.575
		c-32.618,2.248-66.1,2.874-98.589,1.089c-1.016,36.914,1.145,74.176-0.918,111.04c32.118,2.544,41.382-29.416,23.978-53.576
		l0.724-0.271c-1.197-1.403,1.192-2.553,2.083-1.43C73.788,51.418,116.738,42.809,116.654,3.575z M92.143,3.757
		c-4.174,0.212-13.844,0.209-17.61,0.904C76.185,4.442,91.008,4.496,92.143,3.757z M42.938,4.12
		C38.166,3.816,23.949,4.11,18.97,4.209C26.618,5.015,35.419,4.304,42.938,4.12z M73.441,4.665
		C67.196,4.84,60.965,4.376,54.739,4.572C60.832,4.763,67.571,5.297,73.441,4.665z M118.471,14.286h-0.182v6.173h0.182V14.286z
		 M119.38,19.552l-0.385,0l0.017,13.978l0.385,0L119.38,19.552z M48.295,62.402c-0.365,0.139-3.201-0.255-3.358,0.272
		c9.01,11.341,10.762,28.697,3.451,41.307c9.347-10.026,20.436-20.083,28.596-30.684L56.921,92.998l-1.272,0.633l0.094-0.721
		C72.59,76.89,89.898,58.617,102.858,39.072C86.965,51.393,67.592,57.57,48.295,62.402z M15.706,39.882l-0.21,14.343l0.474,0.007
		l0.21-14.343L15.706,39.882z M84.448,47.722l-4.53,2.011l0.123,0.278L84.571,48L84.448,47.722z M119.016,68.212V55.684
		C118.502,59.465,118.795,64.199,119.016,68.212z M60.187,56.775c-1.847,0.272-7.568,1.988-9.44,2.538
		C53.373,59.017,57.595,57.49,60.187,56.775z M15.704,59.676l-0.374,0l0.009,15.616l0.374,0L15.704,59.676z M118.106,68.574
		c0.184-1.971-0.016-3.988-0.089-5.993C117.633,63.968,117.902,67.154,118.106,68.574z M44.39,65.306
		c-0.126-0.813-0.592-1.885-1.267-2.359C43.122,63.538,44.067,64.839,44.39,65.306z M50.563,79.105
		c-0.229-1.914-0.505-4.28-1.63-5.808L50.563,79.105z M119.016,84.19v-7.263c-0.546,0.392-0.032,1.933-0.342,2.639
		C118.842,80.921,118.511,83.085,119.016,84.19z M16.975,87.458c-0.123-0.296,0.331-3.736-0.363-3.631
		c-0.054,0.698,0.024,3.005,0.183,3.63L16.975,87.458z M51.471,93.812l0.545-9.804l-0.368,0.629
		C51.895,87.598,51.038,91.133,51.471,93.812z M16.975,97.444v-7.626c-0.521,0.603-0.015,2.108-0.183,2.993
		c-0.446,1.049,0.276,1.94-0.181,3.089L16.975,97.444z M59.405,94.85c-0.074,0.125-0.391,0.161-0.485,0.325
		c0.383,0.801,1.759-1.513,1.81-1.725C59.659,93.801,59.812,94.162,59.405,94.85z M49.775,104.644
		c0.336-0.58,1.645-1.32,1.426-1.933l-5.902,5.989C47.002,107.79,48.39,105.983,49.775,104.644z M16.611,113.15
		c0.064-0.991-0.047-2.005,0-2.996c-0.028,0.485-0.702,3.627-0.273,3.994C16.627,113.927,16.59,113.484,16.611,113.15z
		 M40.396,118.69c-6.919-0.163-14.464-0.825-21.244-0.274C24.584,118.224,35.365,119.333,40.396,118.69z M62.003,118.325h-8.171
		c-0.041,0.32,0.41,0.172,0.634,0.182C56.879,118.423,59.611,118.791,62.003,118.325z"/>
	<path d="M81.35,64.869c-6.683,6.776-13.647,15.609-21.343,20.955c10.732-11.656,23.05-22.916,32.681-35.861l0.216,0.396
		C89.527,55.568,85.549,60.314,81.35,64.869z"/>
	<path d="M75.739,67.241c-7.329,6.085,9.289-10.449,9.959-11.735c0.216,0.197,0.351,0.228,0.185,0.544
		C82.887,59.843,79.19,63.819,75.739,67.241z"/>
	<path d="M126.641,95.263l-1.272,0.275c4.018,0.255,0.685,4.415-1.087,5.811l0.361,0.269l-0.635,0.546l-0.18-0.362
		c-6.653,8.475-13.518,18.186-18.939,28.087c-1.63,2.213-4.985,12.071-8.101,9.826c-1.098-0.328-1.339,0.561-2.251-1.179
		c-3.065-6.184-8.221-13.662-12.562-18.759l0.727-0.003c-0.689-0.683-0.139-0.778-0.048-1.227c-0.123-1.572,1.423-2.884,2.832-2.572
		c0.782-1.472,2.477-0.499,3.112,0.554c0.251,0.199,0.504-0.043,0.828,0.229c2.81,3.493,5.757,10.763,7.798,14.457
		C101.226,123.87,117.863,92.83,126.641,95.263z M122.286,101.076c0.833-0.864,2.027-1.936,2.357-3.087
		C123.769,98.977,122.797,99.864,122.286,101.076z M102.677,126.132c1.06-1.429,3.664-5.032,4.173-6.718
		C105.315,121.541,103.624,123.664,102.677,126.132z M94.502,130.127c-0.84-2.58-1.997-5.263-3.628-7.444
		C92.201,125.077,93.062,127.848,94.502,130.127z M96.863,132.487l-1.267-2.722C95.745,130.695,96.122,131.87,96.863,132.487z
		 M95.229,136.299c0.347-0.675-0.261-0.735-0.515-1.208c-0.38-0.706-0.55-1.622-1.297-2.059
		C93.973,134.019,94.123,135.876,95.229,136.299z"/>
</g>
</svg>
